<?xml version="1.0" encoding="utf-8"?>
<!-- Generator: Adobe Illustrator 27.9.5, SVG Export Plug-In . SVG Version: 9.03 Build 54986)  -->
<svg version="1.1" xmlns="http://www.w3.org/2000/svg" xmlns:xlink="http://www.w3.org/1999/xlink" x="0px" y="0px"
	 viewBox="0 0 1024 1024" enable-background="new 0 0 1024 1024" xml:space="preserve">
<g id="Ebene_2">
</g>
<g id="Ebene_1">
	<g>
		<g>
			<path fill="#048093" d="M770.812,1023.443c-3.978,0-7.955-1.024-11.504-3.074l-228.9-132.156
				c-7.094-4.095-11.5-11.728-11.5-19.918l0.001-264.314c0-8.192,4.407-15.825,11.502-19.919l228.9-132.157
				c0.001,0,0.001,0,0.002-0.001c7.094-4.093,15.906-4.092,22.998,0.001l228.903,132.157c7.095,4.099,11.5,11.73,11.5,19.919
				v264.314c0,8.189-4.405,15.821-11.497,19.918l-228.906,132.158C778.765,1022.419,774.789,1023.443,770.812,1023.443z
				 M544.908,866.562l225.903,130.426l225.903-130.425V605.713L770.811,475.287L544.909,605.713L544.908,866.562z M772.311,474.421
				l-0.008,0.005c0.002-0.001,0.004-0.002,0.006-0.003L772.311,474.421z"/>
		</g>
		<g>
			<path fill="#048093" d="M253.189,1023.441c-3.977,0-7.953-1.024-11.5-3.071L12.786,888.213c-7.094-4.096-11.5-11.729-11.5-19.919
				l0.001-264.314c0-8.192,4.407-15.825,11.502-19.92l228.9-132.155c7.094-4.096,15.906-4.095,23-0.001L493.592,584.06
				c7.094,4.096,11.5,11.729,11.5,19.919v264.314c0,8.19-4.406,15.823-11.5,19.919l-228.903,132.156
				C261.142,1022.417,257.166,1023.441,253.189,1023.441z M27.286,866.561l225.903,130.426l225.903-130.426v-260.85L253.189,475.286
				L27.287,605.712L27.286,866.561z"/>
		</g>
		<g>
			<path fill="#048093" d="M512.001,575.165c-3.977,0-7.952-1.023-11.499-3.07L271.599,439.937
				c-0.001-0.001-0.002-0.002-0.003-0.002c-7.092-4.097-11.497-11.729-11.497-19.917V155.704c0-8.191,4.406-15.823,11.5-19.918
				L500.502,3.628c7.092-4.095,15.904-4.095,22.998-0.001l228.904,132.158c7.093,4.094,11.5,11.726,11.5,19.918v264.315
				c0,8.189-4.406,15.822-11.499,19.918L523.502,572.094C519.956,574.142,515.978,575.165,512.001,575.165z M286.099,418.286
				l225.903,130.426l225.902-130.426V157.435L512.002,27.011L286.099,157.436V418.286z"/>
		</g>
		<g>
			<path fill="#1D1D1B" d="M329.273,308.583v-49.137h18.905c12.724,0,22.288,3.163,22.288,16.036
				c0,12.873-9.564,16.036-22.288,16.036h-7.283v17.065H329.273z M340.896,281.882h7.651c5.368,0,9.635-1.176,9.635-6.399
				c0-5.149-4.268-6.252-9.635-6.252h-7.651V281.882z"/>
		</g>
		<g>
			<path fill="#1D1D1B" d="M375.91,308.583v-49.137h11.622v18.758h20.229v-18.758h11.622v49.137h-11.622v-20.155h-20.229v20.155
				H375.91z"/>
		</g>
		<g>
			<path fill="#1D1D1B" d="M423.358,259.447h13.535l10.96,18.905l10.96-18.905h13.609l-18.757,30.012v19.125h-11.548v-19.125
				L423.358,259.447z"/>
		</g>
		<g>
			<path fill="#1D1D1B" d="M485.593,293.21c1.322,4.708,5.296,6.914,10.738,6.914c4.194,0,8.755-1.325,8.755-5.149
				c0-3.457-3.68-5.149-8.975-6.179l-5.958-1.176c-8.017-1.546-14.931-5.444-14.931-13.829c0-10.519,10.96-15.226,20.815-15.226
				c7.945,0,15.742,3.089,18.831,10.666l-10.518,3.824c-1.325-3.309-4.708-5.149-9.341-5.149c-4.488,0-7.871,1.692-7.871,4.708
				c0,2.501,2.207,4.341,5.59,5.002l6.62,1.325c7.943,1.619,17.654,4.12,17.654,14.27c0,10.445-10.594,16.256-20.743,16.256
				c-10.74,0-18.243-4.561-21.26-12.43L485.593,293.21z"/>
		</g>
		<g>
			<path fill="#1D1D1B" d="M522.888,268.568v-9.121h25.303v9.121h-6.766v30.894h6.766v9.121h-25.303v-9.121h6.914v-30.894H522.888z"
				/>
		</g>
		<g>
			<path fill="#1D1D1B" d="M564.818,293.21c1.325,4.708,5.296,6.914,10.74,6.914c4.194,0,8.753-1.325,8.753-5.149
				c0-3.457-3.677-5.149-8.973-6.179l-5.958-1.176c-8.019-1.546-14.933-5.444-14.933-13.829c0-10.519,10.96-15.226,20.818-15.226
				c7.945,0,15.742,3.089,18.831,10.666l-10.52,3.824c-1.322-3.309-4.708-5.149-9.341-5.149c-4.488,0-7.871,1.692-7.871,4.708
				c0,2.501,2.207,4.341,5.59,5.002l6.62,1.325c7.945,1.619,17.654,4.12,17.654,14.27c0,10.445-10.592,16.256-20.744,16.256
				c-10.74,0-18.243-4.561-21.258-12.43L564.818,293.21z"/>
		</g>
		<g>
			<path fill="#1D1D1B" d="M600.497,284.015c0-15.522,9.635-25.451,24.861-25.451c9.269,0,16.404,4.487,20.155,11.401l-10.298,3.751
				c-2.207-3.971-6.252-5.59-10.226-5.59c-6.84,0-12.21,5.884-12.21,15.889c0,10.298,5.37,15.888,12.359,15.888
				c3.677,0,8.165-1.25,10.446-5.517l10.224,3.752c-3.971,6.987-11.474,11.327-20.744,11.327
				C609.764,309.466,600.497,299.683,600.497,284.015z"/>
		</g>
		<g>
			<path fill="#1D1D1B" d="M651.253,308.583v-49.137h11.622v18.758h20.229v-18.758h11.622v49.137h-11.622v-20.155h-20.229v20.155
				H651.253z"/>
		</g>
		<g>
			<path fill="#1D1D1B" d="M130.634,742.261c1.322,4.708,5.296,6.914,10.738,6.914c4.194,0,8.755-1.325,8.755-5.15
				c0-3.457-3.679-5.148-8.975-6.178l-5.958-1.176c-8.017-1.547-14.931-5.444-14.931-13.829c0-10.52,10.96-15.228,20.815-15.228
				c7.945,0,15.742,3.089,18.831,10.666l-10.518,3.825c-1.325-3.309-4.708-5.15-9.341-5.15c-4.488,0-7.871,1.693-7.871,4.708
				c0,2.501,2.207,4.342,5.59,5.002l6.62,1.325c7.943,1.619,17.654,4.12,17.654,14.271c0,10.444-10.594,16.256-20.743,16.256
				c-10.74,0-18.243-4.562-21.26-12.43L130.634,742.261z"/>
		</g>
		<g>
			<path fill="#1D1D1B" d="M191.763,707.615c15.079,0,25.597,10.152,25.597,25.451s-10.518,25.451-25.597,25.451
				s-25.451-10.152-25.451-25.451S176.683,707.615,191.763,707.615z M191.763,748.954c7.209,0,13.241-5.442,13.241-15.888
				c0-10.446-6.032-15.888-13.241-15.888c-7.135,0-13.167,5.442-13.167,15.888C178.596,743.512,184.628,748.954,191.763,748.954z"/>
		</g>
		<g>
			<path fill="#1D1D1B" d="M236.195,747.409h25.671v10.226h-40.971v-8.901l24.789-30.011h-23.687v-10.226h38.766v8.901
				L236.195,747.409z"/>
		</g>
		<g>
			<path fill="#1D1D1B" d="M268.415,717.618v-9.121h25.305v9.121h-6.769v30.895h6.769v9.121h-25.305v-9.121h6.914v-30.895H268.415z"
				/>
		</g>
		<g>
			<path fill="#1D1D1B" d="M316.892,708.497h12.799l18.611,49.138h-12.653l-2.943-8.753h-18.831l-2.941,8.753h-12.653
				L316.892,708.497z M317.038,739.466h12.504l-6.324-18.685L317.038,739.466z"/>
		</g>
		<g>
			<path fill="#1D1D1B" d="M387.068,747.409v10.226h-35.161v-49.138h11.622v38.912H387.068z"/>
		</g>
		<g>
			<path fill="#1D1D1B" d="M633.947,661.193v19.495l17.726-19.495h14.197l-19.419,21.04l20.375,28.098h-13.461l-14.417-20.007
				l-5.002,5.516v14.491h-11.622v-49.138H633.947z"/>
		</g>
		<g>
			<path fill="#1D1D1B" d="M692.134,660.313c15.079,0,25.597,10.149,25.597,25.449c0,15.302-10.518,25.451-25.597,25.451
				c-15.079,0-25.451-10.149-25.451-25.451C666.683,670.463,677.055,660.313,692.134,660.313z M692.134,701.652
				c7.209,0,13.241-5.444,13.241-15.89c0-10.444-6.032-15.888-13.241-15.888c-7.134,0-13.167,5.444-13.167,15.888
				C678.967,696.208,685,701.652,692.134,701.652z"/>
		</g>
		<g>
			<path fill="#1D1D1B" d="M740.98,661.193l10.224,35.237l10.372-35.237h17.434v49.138h-11.328v-38.618l-11.696,38.618h-9.561
				l-11.622-38.618v38.618h-11.256v-49.138H740.98z"/>
		</g>
		<g>
			<path fill="#1D1D1B" d="M802.919,661.193l10.226,35.237l10.372-35.237h17.432v49.138H829.62v-38.618l-11.694,38.618h-9.564
				l-11.622-38.618v38.618h-11.254v-49.138H802.919z"/>
		</g>
		<g>
			<path fill="#1D1D1B" d="M847.205,661.193h11.622v28.614c0,7.283,1.399,11.916,9.564,11.916c8.091,0,9.487-4.634,9.487-11.916
				v-28.614H889.5v27.658c0,15.154-5.884,22.362-21.109,22.362c-15.373,0-21.186-7.209-21.186-22.362V661.193z"/>
		</g>
		<g>
			<path fill="#1D1D1B" d="M895.537,696.796v-9.489h23.978v9.489H895.537z"/>
		</g>
		<g>
			<path fill="#1D1D1B" d="M635.381,749.47l18.977,35.013V749.47h11.254v49.138h-14.857l-18.979-35.015v35.015h-11.18V749.47
				H635.381z"/>
		</g>
		<g>
			<path fill="#1D1D1B" d="M673.045,758.591v-9.121h25.305v9.121h-6.769v30.893h6.769v9.124h-25.305v-9.124h6.914v-30.893H673.045z"
				/>
		</g>
		<g>
			<path fill="#1D1D1B" d="M717.403,749.47v19.493l17.726-19.493h14.197l-19.419,21.038l20.375,28.1h-13.461l-14.417-20.009
				l-5.002,5.516v14.493h-11.622V749.47H717.403z"/>
		</g>
		<g>
			<path fill="#1D1D1B" d="M770.001,749.47h12.799l18.611,49.138h-12.653l-2.943-8.755h-18.831l-2.941,8.755H751.39L770.001,749.47z
				 M770.147,780.437h12.504l-6.324-18.683L770.147,780.437z"/>
		</g>
		<g>
			<path fill="#1D1D1B" d="M798.029,759.693V749.47h43.177v10.224h-15.814v38.914h-11.55v-38.914H798.029z"/>
		</g>
		<g>
			<path fill="#1D1D1B" d="M846.505,758.591v-9.121h25.305v9.121h-6.769v30.893h6.769v9.124h-25.305v-9.124h6.914v-30.893H846.505z"
				/>
		</g>
		<g>
			<path fill="#1D1D1B" d="M876.74,749.47h12.062l11.256,36.117l11.326-36.117h12.139l-16.698,49.138h-13.461L876.74,749.47z"/>
		</g>
	</g>
</g>
</svg>
