<svg xmlns="http://www.w3.org/2000/svg" viewBox="0 0 200 200" fill="#fff" focusable="false"><path d="M123.2 171.6c-4.5 0-8.5-2.6-10.2-6.8L100 134l-13 30.8c-1.7 4.1-5.7 6.8-10.2 6.8-1.5 0-2.9-.3-4.3-.9-5.6-2.4-8.3-8.9-5.9-14.5L85.3 112V88.3l-30.2-4.2c-2.9-.4-5.5-1.9-7.3-4.3s-2.5-5.3-2.1-8.2c.8-6 6.5-10.3 12.5-9.4l39 5.4c.5 0 1 .1 1.4.2l1.4.2 41.8-5.8c6-.8 11.6 3.4 12.5 9.4.4 2.9-.4 5.8-2.1 8.2s-4.4 3.9-7.3 4.3l-30.2 4.2v23.6l18.7 44.3c2.4 5.6-.3 12.1-5.9 14.5-1.4.6-2.8.9-4.3.9zm-23.2-51l17.8 42.2c.9 2.2 3 3.6 5.4 3.6.8 0 1.6-.2 2.3-.5 3-1.3 4.4-4.7 3.1-7.7L109.4 113V83.8l34.7-4.8c1.6-.2 2.9-1 3.9-2.3s1.3-2.8 1.1-4.3c-.4-3.2-3.4-5.4-6.6-5L100 73.3l-2.4-.3c-.3-.1-.6-.1-.9-.1h-.2l-39.1-5.5c-3.2-.4-6.2 1.8-6.6 5-.5 3.2 1.8 6.2 5 6.6l34.7 4.8V113l-19.1 45.2c-1.3 3 .1 6.4 3.1 7.7.7.3 1.5.5 2.3.5 2.4 0 4.5-1.4 5.4-3.6l17.8-42.2z"/><path d="M100.1 62.7c-8.7 0-15.8-7.1-15.8-15.8s7.1-15.8 15.8-15.8 15.8 7.1 15.8 15.8-7.1 15.8-15.8 15.8zm0-26.4c-5.9 0-10.6 4.8-10.6 10.6s4.8 10.6 10.6 10.6 10.6-4.8 10.6-10.6-4.8-10.6-10.6-10.6z"/><path d="M100.2 200C45.1 200 .2 155.1.2 100S45.1 0 100.2 0s100 44.9 100 100-44.9 100-100 100zm0-194.8C47.9 5.2 5.4 47.7 5.4 100s42.5 94.8 94.8 94.8S195 152.3 195 100 152.5 5.2 100.2 5.2z"/></svg>