<svg xmlns="http://www.w3.org/2000/svg" viewBox="0 0 24 24" focusable="false"><path d="M3.5 16.5c-.1.1-.1.2 0 .4.1.1.3.2.4.1.1-.1.1-.2 0-.4-.1-.1-.3-.1-.4-.1zM2.5 15.2c-.1-.1-.2 0-.3.1 0 .1 0 .2.1.2.1.1.2 0 .3-.1.1 0 .1-.1-.1-.2zM4.2 17.4c-.1.1-.1.3.1.4.1.1.3.2.4.1.1-.1.1-.3-.1-.4-.1-.2-.3-.2-.4-.1zM2.9 15.8c-.1.1-.1.2 0 .3.1.1.2.1.3.1.1-.1.1-.2 0-.3s-.2-.2-.3-.1zM5.6 18c-.2-.1-.3 0-.4.1 0 .1.1.3.3.3s.3 0 .4-.1-.2-.2-.3-.3zM7.9 18.1c-.2 0-.3.2-.3.3 0 .1.2.2.4.2s.3-.2.3-.3c-.1-.2-.3-.3-.4-.2zM6.7 18.2c-.2 0-.3.1-.3.2s.2.2.3.2.3-.1.3-.2c.1-.1-.1-.2-.3-.2z"/><path d="M15.8 18.3c0-1.4-.5-2.3-1-2.8 3.4-.4 6.9-1.7 6.9-7.5 0-1.7-.6-3-1.6-4.1.1-.4.7-1.9-.2-4 0 0-1.3-.4-4.2 1.6-1.2-.3-2.5-.5-3.8-.5-1.3 0-2.6.2-3.8.5C5.4-.4 4.1 0 4.1 0c-.8 2.1-.3 3.7-.1 4-1 1.1-1.6 2.4-1.6 4.1 0 5.8 3.5 7.1 6.9 7.5-.4.4-.8 1-1 2-.8.4-3 1-4.3-1.3 0 0-.8-1.5-2.3-1.6 0 0-1.5 0-.1.9 0 0 1 .5 1.7 2.2 0 0 .9 2.7 5.1 1.8v3.8c1.2.3 2.4.5 3.7.5 1.3 0 2.6-.2 3.8-.5l-.1-5.1zM2.7 15.5c0 .1-.2.1-.3.1-.1-.1-.2-.2-.1-.2 0-.1.2-.1.3-.1.1 0 .1.1.1.2zm.6.6c-.1.1-.2 0-.3-.1-.1-.1-.1-.3 0-.3.1-.1.2 0 .3.1 0 .1.1.3 0 .3zm.6.9c-.1.1-.2 0-.3-.1-.1-.1-.1-.3 0-.4s.2 0 .3.1c.1.2.1.3 0 .4zm.8.9c-.1.1-.3.1-.4-.1-.1-.1-.2-.3-.1-.4.1-.1.3-.1.4.1.1.1.2.3.1.4zm1.1.4c0 .1-.2.2-.4.1s-.3-.2-.3-.3c.1-.1.3-.1.5-.1.1.1.3.2.2.3zm.9.4c-.2 0-.3-.1-.3-.2s.1-.2.3-.2c.2 0 .3.1.3.2.1.1-.1.2-.3.2zm1.2-.2c-.2 0-.3 0-.4-.2 0-.1.1-.3.3-.3.2 0 .3 0 .4.2 0 .2-.1.3-.3.3z"/></svg>