<svg xmlns="http://www.w3.org/2000/svg" viewBox="0 0 24 24" focusable="false"><path d="M16.46 1H1v22h22V8.63L16.46 1zM17 4.703L19.825 8H17V4.703zM3 21V3h12v7h6v11H3z"/><path d="M19.348 13.375c-.844-.83-3.252-.601-4.457-.45-1.189-.727-1.985-1.729-2.546-3.202.27-1.115.699-2.811.374-3.875-.291-1.813-2.615-1.633-2.948-.408-.305 1.114-.028 2.664.484 4.643-.692 1.655-1.723 3.875-2.45 5.148-1.384.712-3.252 1.811-3.529 3.195-.228 1.094 1.799 3.819 5.266-2.158 1.55-.513 3.238-1.142 4.733-1.392 1.307.707 2.837 1.177 3.861 1.177 1.765.001 1.938-1.951 1.212-2.678zM5.64 18.76c.353-.949 1.695-2.041 2.104-2.422-1.315 2.096-2.104 2.47-2.104 2.422zm5.646-13.189c.513 0 .464 2.222.125 2.823-.305-.962-.298-2.823-.125-2.823zm-1.688 9.452c.671-1.17 1.246-2.559 1.709-3.785.575 1.045 1.308 1.882 2.083 2.456-1.44.299-2.692.907-3.792 1.329zm9.105-.346s-.346.416-2.58-.541c2.429-.178 2.83.375 2.58.541z"/></svg>