<svg xmlns="http://www.w3.org/2000/svg" viewBox="0 0 24 24" focusable="false" aria-labelledby="svg-title-30df7f629fcf6b940bcaef5faf2490bb"><title id="svg-title-30df7f629fcf6b940bcaef5faf2490bb">QR coder</title><desc id="svg-desc-30df7f629fcf6b940bcaef5faf2490bb">Manually edited diagram of qr code</desc><path d="M3.53 3.389h1.694v1.976H3.53z"/><path d="M8.753 0H0v8.753h8.753zM6.777 6.776h-4.8v-4.8h4.8zM15.247 0v8.753H24V0zm6.777 6.776h-4.8v-4.8h4.8z"/><path d="M18.777 3.389h1.694v1.976h-1.694zM3.53 18.636h1.694v1.976H3.53z"/><path d="M0 24h8.753v-8.753H0zm1.977-6.777h4.8v4.8h-4.8z"/><path d="M22.165 11.859H20.47v3.387h-5.083v-1.694h-1.694v1.694H12v-3.104h1.695v-1.977h-1.553V8.753h1.694V3.389h-1.694V1.976h1.553V0h-3.53v5.365h1.694v1.412h-1.694v3.53H12v1.553H6.918v-1.694H3.53v1.694H1.835v-1.694H.141v1.976h1.694v1.694H3.53v-1.694h1.694v1.694h5.083v1.694H12v1.411h-1.693v5.365H12V24h6.777v-3.388h3.388v1.412H20.47V24h1.694v-1.694h1.695V20.33h-1.695v-1.412h1.695V16.94h-1.695V13.836h1.695V10.164h-1.695zm-8.47 3.67h1.694v1.412h-1.694zM12 17.223h1.695v1.413H12zm0 4.8v-1.41h1.695v-1.695h1.694v1.694h1.694v1.412zm6.777-1.693h-1.695v-1.694h-1.694v-1.413h3.389v1.695zm3.388-1.694H20.47v-1.413h1.694z"/><path d="M17.083 13.835h1.694v-3.67h-3.388v1.976h1.694z"/></svg>