<svg xmlns="http://www.w3.org/2000/svg" viewBox="0 0 23.998 24" focusable="false"><path d="M21.53 7.112c.015.215.015.428.015.641 0 6.501-4.948 13.992-13.992 13.992A13.91 13.91 0 010 19.538c.396.045.775.061 1.188.061 2.3 0 4.417-.774 6.106-2.102a4.93 4.93 0 01-4.6-3.411c.305.047.61.076.928.076.441 0 .884-.061 1.296-.168A4.915 4.915 0 01.973 9.169v-.061a4.958 4.958 0 002.222.623 4.916 4.916 0 01-2.19-4.097c0-.912.244-1.751.67-2.48a13.984 13.984 0 0010.141 5.145 5.549 5.549 0 01-.12-1.127 4.915 4.915 0 014.916-4.917c1.416 0 2.695.595 3.595 1.554a9.722 9.722 0 003.121-1.188 4.893 4.893 0 01-2.162 2.71 9.78 9.78 0 002.832-.762 10.61 10.61 0 01-2.469 2.543z"/></svg>