<svg xmlns="http://www.w3.org/2000/svg" viewBox="0 0 24 24" focusable="false"><path d="M16.46 1H1v22h22V8.63L16.46 1zM17 4.703L19.825 8H17V4.703zM3 21V3h12v7h6v11H3z"/><path d="M16.247 11.012a.67.67 0 00-.659.534c-1.157 5.496-1.146 5.366-1.182 5.823-.01-.069-.021-.147-.037-.242-.048-.285.016.01-1.329-5.597a.674.674 0 00-.658-.518h-.748c-.31 0-.58.213-.659.512-1.372 5.569-1.35 5.411-1.395 5.833-.006-.061-.011-.141-.028-.236-.04-.291-.794-4.123-1.074-5.569a.676.676 0 00-.665-.545h-.944a.677.677 0 00-.658.833c.449 1.833 1.501 6.161 1.867 7.652a.67.67 0 00.658.508h1.417c.31 0 .581-.208.652-.51l1.008-4.019c.084-.348.141-.674.168-.972l.163.972c.006.022.709 2.842 1.008 4.019.074.297.343.51.654.51h1.387a.67.67 0 00.654-.51c1.169-4.61 1.699-6.694 1.94-7.652a.672.672 0 00-.652-.838h-.888v.012z"/></svg>