<?xml version="1.0" encoding="UTF-8"?>
<svg id="Ebene_1" xmlns="http://www.w3.org/2000/svg" viewBox="0 0 100 100">
  <path d="M53.82,37.97c0-2.66-2.02-4.32-5.54-4.32-2.3,0-5.18.65-8.64,2.02l-1.58-6.05c3.6-1.51,7.27-2.45,11.31-2.45,7.92,0,12.6,3.53,12.6,9.65,0,8.5-9.22,10.87-9.22,18.94v2.81h-8.06v-3.31c0-9,9.15-11.45,9.15-17.28ZM43.95,67.86c0-2.88,2.16-5.04,4.97-5.04s5.04,2.16,5.04,5.04-2.16,4.97-5.04,4.97-4.97-2.16-4.97-4.97Z"/>
  <path d="M50,10c22.06,0,40,17.94,40,40s-17.94,40-40,40S10,72.06,10,50,27.94,10,50,10M50,0C22.39,0,0,22.39,0,50s22.39,50,50,50,50-22.39,50-50S77.61,0,50,0h0Z"/>
</svg>