<?xml version="1.0" encoding="UTF-8"?>
<svg id="Ebene_1" data-name="Ebene 1" xmlns="http://www.w3.org/2000/svg" viewBox="0 0 323.07 85.14">
  <defs>
    <style>
      .cls-1 {
        fill: #fff;
      }
    </style>
  </defs>
  <g id="RZ_2" data-name="RZ 2">
    <path class="cls-1" d="M323.07,70.25h-12.14l-8.15-13.26-4.42,5.01v8.25h-10.54V17.5h10.54v31.79l11.52-14.38h12.46l-13.12,14.81,13.84,20.53ZM235.06,63.57c-5.23,0-7.96-2.63-8.59-8.25h17.39v-7.38h-17.2c.79-3.95,2.84-5.65,6.83-5.65h10.37s0,0,0,0v-7.39h-10.09l-1.04.04c-10.39.43-15.88,6.57-15.88,17.87,0,11.85,6.05,18.38,17.04,18.38,4.66,0,9.07-.95,13.48-2.89l-2.35-6.83c-3.67,1.39-7.01,2.1-9.94,2.1ZM272.87,44.36c.54-.05,1.06-.04,1.57.01,1.18.12,2.24.48,3.18,1.01l3.19-9.27c-1.08-.67-2.14-1.15-3.18-1.47-.04-.01-.08-.03-.12-.04-3.8-1.13-7.29-.11-9.96,2.02-1.4,1-2.83,2.35-4.36,4.1l-.5.57v-6.38h-10.46v35.34h10.54v-18.62l.05-.07c1.08-1.66,2.16-3,3.27-4.06,2.46-2.04,4.75-2.97,6.79-3.14ZM200.97,56.52l-8.32-21.62h-7.25l-7.9,21.68-4.81-21.68h-10.89l10.15,35.34h7.86l8.93-21.89,8.85,21.89h7.78l9.77-35.34h-10.1l-4.08,21.62ZM267.94,58.12l7.66,12.14h12.15l-11.42-15.94-8.39,3.8ZM85.14,42.57c0,23.51-19.06,42.57-42.57,42.57S0,66.08,0,42.57c0-1.25.07-2.48.17-3.7l16.48-18.34-5.72-6.44c1.52-1.69,3.17-3.25,4.94-4.67l8.02,11.44-11.63,16.26,6.16,4.83,19.39-21.41-14.4-15.98C29.18,1.65,35.68,0,42.57,0c23.51,0,42.57,19.06,42.57,42.57ZM71.46,33.11h-37.11v9.91h9.49v6.41c0,14.31,2.84,22.06,17.8,22.06,2.36,0,4.6-.15,6.65-.46l-.63-8.9c-.84.13-2.08.13-3.73.13-6.57,0-8.89-3.36-8.89-12.82v-6.41h16.43v-9.91ZM123.92,51.87c0,12.1-6.9,19.33-18.46,19.33s-17.67-6.93-17.67-18.54,6.93-18.62,18.54-18.62,17.59,6.67,17.59,17.83ZM113.15,52.42c0-6.93-2.48-10.44-7.37-10.44s-7.13,3.46-7.13,10.28c0,7.24,2.51,10.91,7.45,10.91,4.68,0,7.06-3.62,7.06-10.76ZM147.05,55.6h10.54V17.5h-10.54v38.1ZM129.03,70.25h10.54V17.5h-10.54v52.75Z"/>
  </g>
</svg>