<svg xmlns="http://www.w3.org/2000/svg" xml:space="preserve" x="0px" y="0px" version="1.1" viewBox="0 0 169.847 169.847" focusable="false" aria-hidden="true"><g><rect width="169.847" height="169.848" fill="#931831"/><path fill="#FFFFFF" d="M13.297,37.803c0-1.812,0.319-3.385,0.959-4.718c0.64-1.332,1.586-2.319,2.839-2.959
		c-0.987-0.719-1.786-1.685-2.399-2.898c-0.613-1.213-0.92-2.685-0.92-4.418c0-2.666,0.706-4.738,2.12-6.218
		c1.412-1.479,3.438-2.219,6.077-2.219c2.639,0,4.651,0.734,6.037,2.199c1.386,1.467,2.079,3.506,2.079,6.118
		c0,1.813-0.293,3.332-0.879,4.558c-0.587,1.226-1.373,2.186-2.359,2.878c1.253,0.64,2.199,1.654,2.838,3.039
		c0.641,1.387,0.96,3.026,0.96,4.918c0,3.013-0.693,5.358-2.079,7.037c-1.386,1.679-3.585,2.519-6.597,2.519
		C16.189,47.639,13.297,44.36,13.297,37.803 M24.072,41.622c0.36-0.946,0.54-2.14,0.54-3.579c0-1.599-0.18-2.865-0.54-3.798
		c-0.36-0.933-1.059-1.399-2.099-1.399c-1.039,0-1.739,0.473-2.099,1.419c-0.36,0.946-0.54,2.206-0.54,3.778
		c0,1.439,0.18,2.633,0.54,3.579c0.36,0.946,1.06,1.419,2.099,1.419C23.013,43.041,23.712,42.568,24.072,41.622 M24.252,22.81
		c0-1.173-0.187-2.1-0.56-2.779c-0.373-0.68-0.946-1.02-1.719-1.02s-1.36,0.34-1.759,1.02c-0.4,0.679-0.6,1.606-0.6,2.779
		c0,3.332,0.786,4.998,2.359,4.998C23.492,27.808,24.252,26.142,24.252,22.81"/><polygon fill="#FFFFFF" points="42.784,21.017 42.986,8.641 45.3,8.641 47.091,17.337 48.935,8.641 51.197,8.641 51.406,21.017 
		49.704,21.017 49.555,12.492 47.77,21.017 46.449,21.017 44.643,12.462 44.508,21.017 	"/><polygon fill="#FFFFFF" points="52.837,21.017 52.837,8.641 58.017,8.641 58.017,10.23 55.091,10.23 55.091,13.784 57.405,13.784 
		57.405,15.373 55.091,15.373 55.091,19.457 58.055,19.457 58.055,21.017 	"/><polygon fill="#FFFFFF" points="58.956,21.017 58.956,8.641 60.508,8.641 63.539,15.65 63.539,8.641 65.405,8.641 65.405,21.017 
		63.927,21.017 60.867,13.649 60.867,21.017 	"/><path fill="#FFFFFF" d="M69.98,21.166c-2.18,0-3.324-1.259-3.434-3.777l1.963-0.411c0.05,1.637,0.518,2.456,1.404,2.456
		c0.343,0,0.598-0.104,0.765-0.313c0.166-0.209,0.25-0.491,0.25-0.844c0-0.343-0.062-0.658-0.187-0.944
		c-0.124-0.287-0.268-0.52-0.433-0.702c-0.164-0.182-0.398-0.407-0.702-0.675l-1.626-1.412c-0.479-0.418-0.834-0.852-1.068-1.302
		c-0.234-0.451-0.351-1.014-0.351-1.691c0-0.96,0.282-1.707,0.847-2.239c0.565-0.532,1.34-0.804,2.325-0.813
		c0.454-0.006,0.854,0.05,1.202,0.167c0.349,0.117,0.636,0.274,0.862,0.471c0.227,0.196,0.416,0.441,0.568,0.735
		c0.152,0.294,0.265,0.598,0.34,0.914c0.074,0.317,0.126,0.668,0.156,1.056l-1.926,0.381c-0.01-0.248-0.026-0.465-0.048-0.649
		c-0.023-0.184-0.061-0.371-0.116-0.56s-0.125-0.342-0.212-0.459c-0.088-0.117-0.205-0.21-0.351-0.28
		c-0.147-0.07-0.318-0.097-0.512-0.082c-0.333,0.02-0.589,0.13-0.765,0.332c-0.177,0.202-0.265,0.472-0.265,0.81
		c0,0.398,0.078,0.725,0.235,0.981c0.157,0.257,0.402,0.532,0.735,0.825l1.613,1.403c0.269,0.245,0.502,0.481,0.702,0.71
		c0.198,0.229,0.389,0.49,0.571,0.784c0.181,0.293,0.319,0.617,0.414,0.97c0.094,0.353,0.142,0.726,0.142,1.119
		c0,0.901-0.285,1.633-0.855,2.195C71.653,20.885,70.905,21.166,69.98,21.166"/><path fill="#FFFFFF" d="M77.323,21.166c-0.533,0-1.003-0.067-1.411-0.202c-0.408-0.134-0.745-0.321-1.011-0.56
		c-0.266-0.238-0.483-0.534-0.65-0.888c-0.167-0.353-0.283-0.733-0.351-1.139c-0.067-0.405-0.1-0.861-0.1-1.369v-4.315
		c0-0.537,0.034-1.013,0.104-1.429c0.07-0.415,0.187-0.801,0.351-1.157c0.164-0.356,0.38-0.648,0.646-0.877
		c0.266-0.229,0.602-0.408,1.007-0.538c0.406-0.129,0.877-0.193,1.415-0.193c0.617,0,1.145,0.082,1.583,0.246
		c0.438,0.164,0.783,0.405,1.037,0.724c0.254,0.318,0.438,0.69,0.552,1.115c0.115,0.426,0.172,0.922,0.172,1.49v1.06h-2.172v-1.052
		c0-0.618-0.032-1.033-0.097-1.247c-0.13-0.419-0.446-0.642-0.948-0.672h-0.12c-0.189,0-0.354,0.023-0.496,0.067
		c-0.142,0.045-0.258,0.116-0.347,0.213c-0.09,0.097-0.162,0.2-0.217,0.309c-0.054,0.11-0.095,0.253-0.123,0.43
		c-0.027,0.176-0.045,0.339-0.052,0.489c-0.007,0.149-0.011,0.338-0.011,0.567v5.24c0,0.727,0.091,1.245,0.272,1.553
		c0.182,0.308,0.507,0.463,0.974,0.463c0.16,0,0.3-0.019,0.422-0.057c0.122-0.037,0.224-0.084,0.306-0.141
		c0.082-0.057,0.152-0.139,0.209-0.247c0.057-0.107,0.101-0.206,0.131-0.298c0.029-0.092,0.052-0.22,0.067-0.384
		c0.015-0.165,0.024-0.304,0.026-0.418c0.002-0.115,0.004-0.272,0.004-0.471v-1.104h2.172v1.015c0,0.463-0.032,0.878-0.097,1.246
		c-0.065,0.368-0.175,0.715-0.332,1.038c-0.157,0.324-0.36,0.592-0.608,0.806c-0.249,0.214-0.568,0.382-0.956,0.504
		S77.835,21.166,77.323,21.166"/><polygon fill="#FFFFFF" points="81.852,21.017 81.852,8.641 84.106,8.641 84.106,13.813 86.622,13.813 86.622,8.641 88.876,8.641 
		88.876,21.017 86.622,21.017 86.622,15.418 84.106,15.418 84.106,21.017 	"/><polygon fill="#FFFFFF" points="90.352,21.017 90.352,8.641 95.533,8.641 95.533,10.23 92.606,10.23 92.606,13.784 94.92,13.784 
		94.92,15.373 92.606,15.373 92.606,19.457 95.57,19.457 95.57,21.017 	"/><polygon fill="#FFFFFF" points="96.472,21.017 96.472,8.641 98.024,8.641 101.054,15.65 101.054,8.641 102.921,8.641 
		102.921,21.017 101.443,21.017 98.382,13.649 98.382,21.017 	"/><polygon fill="#FFFFFF" points="105.719,21.017 103.95,8.641 105.846,8.641 106.861,16.62 108.182,8.641 109.698,8.641 
		111.049,16.628 112.064,8.641 113.923,8.641 112.154,21.017 110.354,21.017 108.958,12.753 107.57,21.017 	"/><path fill="#FFFFFF" d="M118.339,21.166c-0.552,0-1.031-0.065-1.437-0.194c-0.405-0.129-0.739-0.311-1-0.545
		c-0.261-0.234-0.47-0.534-0.627-0.899c-0.157-0.366-0.266-0.762-0.328-1.187c-0.063-0.426-0.094-0.92-0.094-1.482V8.64h2.187v8.451
		c0,0.288,0.008,0.534,0.023,0.738c0.015,0.205,0.047,0.418,0.097,0.643c0.05,0.223,0.121,0.402,0.212,0.537
		c0.093,0.134,0.22,0.246,0.381,0.336c0.162,0.089,0.357,0.134,0.586,0.134s0.425-0.045,0.586-0.134
		c0.162-0.09,0.286-0.202,0.374-0.336c0.087-0.135,0.156-0.314,0.209-0.537c0.052-0.225,0.084-0.437,0.097-0.639
		c0.012-0.201,0.018-0.449,0.018-0.742V8.64h2.187v8.219c0,0.562-0.031,1.056-0.093,1.482c-0.062,0.425-0.172,0.821-0.328,1.187
		c-0.157,0.365-0.365,0.665-0.624,0.899c-0.258,0.234-0.591,0.416-0.996,0.545C119.363,21.101,118.887,21.166,118.339,21.166
		 M115.928,5.602h1.874v1.985h-1.874V5.602z M118.862,5.602h1.881v1.985h-1.881V5.602z"/><path fill="#FFFFFF" d="M123.167,21.017V8.641h2.837c0.651,0,1.211,0.054,1.679,0.16c0.467,0.107,0.874,0.287,1.22,0.538
		c0.346,0.251,0.605,0.592,0.777,1.023c0.172,0.43,0.257,0.956,0.257,1.578c0,0.777-0.116,1.411-0.347,1.903
		c-0.231,0.493-0.613,0.852-1.146,1.076l1.717,6.098H127.9l-1.479-5.651h-1v5.651H123.167z M125.421,13.926h0.545
		c0.667,0,1.141-0.142,1.422-0.426c0.281-0.283,0.422-0.768,0.422-1.455c0-0.662-0.122-1.136-0.366-1.422
		c-0.244-0.286-0.692-0.429-1.344-0.429h-0.679V13.926z"/><path fill="#FFFFFF" d="M131.25,21.017V8.64h2.881c0.747,0,1.371,0.075,1.873,0.224c0.503,0.149,0.906,0.386,1.21,0.709
		c0.304,0.323,0.519,0.72,0.645,1.191c0.127,0.47,0.191,1.048,0.191,1.735v4.464c0,0.707-0.065,1.306-0.194,1.799
		c-0.129,0.493-0.342,0.911-0.638,1.254c-0.297,0.343-0.691,0.596-1.184,0.758c-0.492,0.161-1.097,0.243-1.813,0.243H131.25z
		 M133.504,19.434h0.642c0.224,0,0.42-0.02,0.589-0.06c0.17-0.04,0.311-0.087,0.426-0.142c0.114-0.054,0.21-0.144,0.287-0.268
		c0.077-0.125,0.136-0.239,0.176-0.344c0.04-0.104,0.069-0.262,0.089-0.474c0.02-0.211,0.033-0.392,0.038-0.541
		c0.005-0.149,0.007-0.371,0.007-0.664v-4.524c0-0.294-0.005-0.53-0.015-0.709c-0.01-0.179-0.033-0.359-0.071-0.541
		c-0.037-0.182-0.092-0.322-0.164-0.422c-0.072-0.1-0.168-0.19-0.287-0.272c-0.119-0.082-0.269-0.14-0.448-0.172
		c-0.179-0.033-0.395-0.049-0.649-0.049h-0.62V19.434z"/><rect width="2.224" height="12.376" x="139.377" y="8.64" fill="#FFFFFF"/><path fill="#FFFFFF" d="M146.205,21.181c-1.17,0-2.012-0.366-2.527-1.097c-0.515-0.732-0.772-1.797-0.772-3.195v-4.031
		c0-0.712,0.055-1.325,0.168-1.84c0.111-0.515,0.299-0.967,0.563-1.355c0.264-0.388,0.627-0.679,1.09-0.873
		c0.463-0.194,1.03-0.291,1.702-0.291c1.224,0,2.102,0.3,2.635,0.899c0.532,0.6,0.799,1.509,0.799,2.728v0.605h-2.158v-0.642
		c0-0.274-0.006-0.497-0.019-0.672c-0.012-0.174-0.042-0.349-0.089-0.526c-0.047-0.176-0.116-0.312-0.205-0.407
		c-0.09-0.095-0.212-0.172-0.366-0.231c-0.154-0.06-0.343-0.09-0.568-0.09c-0.169,0-0.319,0.021-0.451,0.063
		c-0.132,0.043-0.242,0.095-0.332,0.158c-0.09,0.062-0.166,0.15-0.228,0.264c-0.062,0.115-0.109,0.226-0.142,0.333
		c-0.032,0.107-0.057,0.245-0.075,0.414c-0.017,0.169-0.028,0.319-0.033,0.448c-0.005,0.129-0.007,0.296-0.007,0.5v4.994
		c0,0.746,0.092,1.292,0.276,1.638c0.184,0.346,0.535,0.519,1.052,0.519c0.269,0,0.494-0.051,0.676-0.153
		c0.181-0.102,0.323-0.256,0.426-0.463c0.101-0.206,0.173-0.443,0.216-0.709c0.042-0.266,0.063-0.588,0.063-0.967v-1.015h-1.336
		v-1.455h3.367v6.285h-1.463l-0.165-1.254C147.929,20.708,147.23,21.181,146.205,21.181"/><polygon fill="#FFFFFF" points="151.234,21.017 151.234,8.641 156.414,8.641 156.414,10.23 153.488,10.23 153.488,13.784 
		155.802,13.784 155.802,15.373 153.488,15.373 153.488,19.457 156.452,19.457 156.452,21.017 	"/><path fill="#FFFFFF" d="M42.164,41.243l2.516-12.376h2.351l2.508,12.376h-2.097l-0.501-2.874h-2.142l-0.508,2.874H42.164z
		 M45.038,36.899h1.657l-0.828-5.083L45.038,36.899z"/><path fill="#FFFFFF" d="M50.359,41.243V28.867h2.836c0.652,0,1.212,0.054,1.68,0.16c0.467,0.107,0.874,0.287,1.22,0.538
		c0.346,0.251,0.605,0.592,0.776,1.023c0.172,0.43,0.258,0.956,0.258,1.578c0,0.777-0.116,1.411-0.347,1.904
		c-0.231,0.493-0.613,0.851-1.146,1.075l1.717,6.098h-2.262l-1.478-5.651h-1v5.651H50.359z M52.613,34.152h0.545
		c0.667,0,1.141-0.142,1.422-0.426c0.281-0.283,0.422-0.768,0.422-1.455c0-0.662-0.122-1.136-0.366-1.422
		c-0.244-0.286-0.692-0.429-1.344-0.429h-0.679V34.152z"/><path fill="#FFFFFF" d="M58.442,41.244V28.867h3.03c0.573,0,1.071,0.052,1.497,0.153c0.425,0.102,0.804,0.272,1.134,0.508
		c0.331,0.236,0.581,0.563,0.751,0.981c0.169,0.418,0.251,0.924,0.246,1.516c-0.005,1.528-0.612,2.381-1.821,2.56
		c0.731,0.14,1.277,0.46,1.638,0.96s0.544,1.203,0.549,2.109c0.005,1.174-0.289,2.066-0.881,2.675
		c-0.592,0.61-1.456,0.915-2.59,0.915H58.442z M60.696,33.913h0.702c0.661,0,1.117-0.141,1.365-0.425
		c0.249-0.284,0.374-0.761,0.374-1.433c0-0.348-0.041-0.631-0.124-0.847c-0.082-0.217-0.22-0.38-0.414-0.49
		c-0.194-0.109-0.409-0.181-0.645-0.216c-0.237-0.035-0.551-0.052-0.945-0.052h-0.313V33.913z M60.696,39.654h0.829
		c0.671,0,1.136-0.157,1.395-0.47c0.259-0.314,0.388-0.831,0.388-1.553c0-0.747-0.145-1.288-0.436-1.623
		c-0.291-0.336-0.78-0.504-1.467-0.504h-0.709V39.654z"/><polygon fill="#FFFFFF" points="66.531,41.244 66.531,28.868 71.711,28.868 71.711,30.457 68.785,30.457 68.785,34.011 
		71.099,34.011 71.099,35.6 68.785,35.6 68.785,39.684 71.749,39.684 71.749,41.244 	"/><rect width="2.225" height="12.376" x="72.717" y="28.867" fill="#FFFFFF"/><polygon fill="#FFFFFF" points="77.657,41.244 77.657,30.532 75.582,30.532 75.582,28.868 81.919,28.868 81.919,30.532 
		79.911,30.532 79.911,41.244 	"/><path fill="#FFFFFF" d="M89.231,41.393c-0.552,0-1.031-0.065-1.437-0.194c-0.405-0.13-0.739-0.311-1-0.545
		c-0.261-0.234-0.47-0.534-0.627-0.9c-0.157-0.365-0.267-0.761-0.329-1.187c-0.062-0.425-0.093-0.919-0.093-1.481v-8.219h2.187v8.45
		c0,0.289,0.008,0.535,0.023,0.739c0.015,0.204,0.047,0.418,0.097,0.642s0.12,0.403,0.212,0.538
		c0.092,0.134,0.219,0.246,0.381,0.335c0.162,0.09,0.357,0.135,0.586,0.135c0.229,0,0.424-0.045,0.586-0.135
		c0.162-0.089,0.286-0.201,0.373-0.335c0.087-0.135,0.157-0.314,0.209-0.538c0.053-0.224,0.085-0.437,0.098-0.638
		c0.012-0.202,0.018-0.449,0.018-0.743v-8.45h2.187v8.219c0,0.562-0.031,1.056-0.093,1.481c-0.063,0.426-0.172,0.822-0.329,1.187
		c-0.156,0.366-0.364,0.666-0.623,0.9s-0.591,0.415-0.996,0.545C90.255,41.328,89.778,41.393,89.231,41.393"/><polygon fill="#FFFFFF" points="94.059,41.244 94.059,28.868 95.611,28.868 98.642,35.877 98.642,28.868 100.508,28.868 
		100.508,41.244 99.03,41.244 95.97,33.876 95.97,41.244 	"/><path fill="#FFFFFF" d="M101.962,41.244V28.867h2.881c0.747,0,1.371,0.075,1.873,0.224c0.503,0.149,0.906,0.386,1.21,0.709
		c0.304,0.324,0.519,0.72,0.646,1.191c0.126,0.47,0.19,1.048,0.19,1.735v4.464c0,0.707-0.065,1.306-0.194,1.799
		c-0.129,0.493-0.342,0.911-0.638,1.254c-0.297,0.344-0.691,0.596-1.183,0.758c-0.493,0.161-1.098,0.243-1.814,0.243H101.962z
		 M104.216,39.661h0.642c0.224,0,0.42-0.02,0.59-0.06c0.169-0.04,0.31-0.087,0.425-0.142c0.114-0.054,0.21-0.144,0.287-0.268
		c0.077-0.125,0.136-0.239,0.176-0.343c0.04-0.105,0.069-0.263,0.089-0.475c0.02-0.211,0.033-0.392,0.038-0.541
		c0.005-0.149,0.007-0.371,0.007-0.664v-4.524c0-0.294-0.004-0.53-0.015-0.709c-0.01-0.179-0.033-0.359-0.071-0.541
		c-0.037-0.182-0.092-0.322-0.164-0.422c-0.072-0.099-0.168-0.19-0.287-0.272c-0.119-0.082-0.269-0.14-0.448-0.172
		c-0.179-0.033-0.395-0.049-0.649-0.049h-0.62V39.661z"/><polygon fill="#FFFFFF" points="114.701,41.244 112.93,28.868 114.827,28.868 115.843,36.848 117.163,28.868 118.679,28.868 
		120.031,36.855 121.045,28.868 122.904,28.868 121.136,41.244 119.335,41.244 117.939,32.981 116.551,41.244 	"/><rect width="2.225" height="12.376" x="124.091" y="28.867" fill="#FFFFFF"/><path fill="#FFFFFF" d="M127.914,41.243V28.867h2.836c0.652,0,1.212,0.054,1.68,0.16c0.467,0.107,0.874,0.287,1.22,0.538
		c0.346,0.251,0.605,0.592,0.776,1.023c0.172,0.43,0.258,0.956,0.258,1.578c0,0.777-0.116,1.411-0.347,1.904
		c-0.231,0.493-0.614,0.851-1.146,1.075l1.717,6.098h-2.262l-1.478-5.651h-1v5.651H127.914z M130.168,34.152h0.545
		c0.666,0,1.141-0.142,1.422-0.426c0.281-0.283,0.422-0.768,0.422-1.455c0-0.662-0.122-1.136-0.366-1.422
		c-0.244-0.286-0.692-0.429-1.344-0.429h-0.679V34.152z"/><polygon fill="#FFFFFF" points="137.297,41.244 137.297,30.532 135.222,30.532 135.222,28.868 141.559,28.868 141.559,30.532 
		139.551,30.532 139.551,41.244 	"/><rect width="3.688" height="1.448" x="142.171" y="35.645" fill="#FFFFFF"/><path fill="#FFFFFF" d="M45.927,61.62c-2.18,0-3.324-1.259-3.434-3.777l1.963-0.411c0.05,1.638,0.518,2.456,1.404,2.456
		c0.343,0,0.598-0.104,0.765-0.313c0.167-0.209,0.25-0.491,0.25-0.844c0-0.343-0.062-0.658-0.187-0.944
		c-0.124-0.286-0.268-0.52-0.432-0.702c-0.165-0.181-0.399-0.407-0.702-0.675l-1.627-1.411c-0.478-0.418-0.834-0.852-1.068-1.303
		c-0.234-0.45-0.351-1.014-0.351-1.691c0-0.96,0.283-1.706,0.848-2.239c0.564-0.532,1.34-0.804,2.325-0.813
		c0.453-0.005,0.853,0.05,1.202,0.167c0.348,0.117,0.635,0.274,0.862,0.471c0.226,0.196,0.415,0.442,0.567,0.735
		c0.152,0.294,0.265,0.598,0.34,0.914c0.074,0.317,0.127,0.669,0.156,1.057l-1.925,0.38c-0.011-0.248-0.027-0.465-0.049-0.649
		s-0.061-0.371-0.115-0.56c-0.056-0.189-0.126-0.342-0.213-0.459s-0.204-0.21-0.351-0.28c-0.147-0.069-0.317-0.097-0.512-0.082
		c-0.333,0.02-0.588,0.131-0.765,0.332c-0.177,0.202-0.264,0.472-0.264,0.81c0,0.398,0.078,0.725,0.234,0.981
		c0.157,0.257,0.402,0.532,0.736,0.826l1.612,1.403c0.269,0.244,0.502,0.48,0.702,0.709c0.199,0.229,0.389,0.49,0.571,0.784
		s0.319,0.617,0.414,0.97s0.142,0.727,0.142,1.12c0,0.901-0.285,1.632-0.855,2.194C47.6,61.339,46.853,61.62,45.927,61.62"/><path fill="#FFFFFF" d="M53.362,61.62c-0.532,0-1.002-0.067-1.411-0.202c-0.408-0.134-0.745-0.32-1.011-0.56
		c-0.266-0.238-0.483-0.534-0.649-0.888c-0.167-0.353-0.284-0.732-0.351-1.138c-0.068-0.406-0.101-0.862-0.101-1.37v-4.315
		c0-0.537,0.035-1.013,0.105-1.429c0.069-0.415,0.186-0.801,0.35-1.157c0.164-0.356,0.38-0.648,0.646-0.877
		c0.266-0.229,0.602-0.408,1.007-0.538c0.406-0.129,0.878-0.193,1.415-0.193c0.617,0,1.145,0.082,1.583,0.246
		c0.438,0.164,0.783,0.405,1.037,0.724s0.438,0.69,0.552,1.116c0.115,0.425,0.172,0.922,0.172,1.489v1.06h-2.172v-1.052
		c0-0.618-0.032-1.033-0.097-1.247c-0.129-0.418-0.446-0.642-0.948-0.672H53.37c-0.19,0-0.355,0.023-0.497,0.067
		c-0.142,0.045-0.258,0.116-0.347,0.213c-0.089,0.097-0.162,0.2-0.216,0.31c-0.055,0.109-0.096,0.252-0.123,0.429
		c-0.028,0.176-0.045,0.339-0.053,0.489c-0.007,0.149-0.011,0.338-0.011,0.567v5.24c0,0.727,0.091,1.245,0.273,1.553
		c0.181,0.308,0.506,0.463,0.974,0.463c0.159,0,0.299-0.019,0.421-0.056c0.122-0.038,0.224-0.085,0.306-0.142
		c0.082-0.057,0.152-0.139,0.209-0.246c0.057-0.107,0.101-0.207,0.131-0.299c0.03-0.092,0.052-0.22,0.067-0.384
		c0.015-0.164,0.024-0.304,0.026-0.418c0.003-0.115,0.004-0.271,0.004-0.471v-1.104h2.172v1.015c0,0.463-0.032,0.878-0.097,1.246
		c-0.064,0.369-0.175,0.715-0.332,1.038c-0.157,0.324-0.359,0.592-0.608,0.806c-0.249,0.214-0.568,0.382-0.956,0.504
		S53.875,61.62,53.362,61.62"/><polygon fill="#FFFFFF" points="57.983,61.47 57.983,49.094 60.237,49.094 60.237,54.266 62.753,54.266 62.753,49.094 
		65.007,49.094 65.007,61.47 62.753,61.47 62.753,55.871 60.237,55.871 60.237,61.47 	"/><path fill="#FFFFFF" d="M65.932,61.47l2.516-12.376h2.351l2.508,12.376H71.21l-0.5-2.874h-2.143l-0.507,2.874H65.932z
		 M68.807,57.126h1.657l-0.828-5.083L68.807,57.126z"/><polygon fill="#FFFFFF" points="74.219,61.47 74.219,49.094 79.302,49.094 79.302,50.654 76.473,50.654 76.473,54.252 
		78.735,54.252 78.735,55.842 76.473,55.842 76.473,61.47 	"/><polygon fill="#FFFFFF" points="81.768,61.47 81.768,50.758 79.693,50.758 79.693,49.094 86.031,49.094 86.031,50.758 
		84.022,50.758 84.022,61.47 	"/><path fill="#FFFFFF" d="M89.455,61.62c-2.18,0-3.324-1.259-3.434-3.777l1.963-0.411c0.05,1.638,0.518,2.456,1.404,2.456
		c0.343,0,0.598-0.104,0.765-0.313c0.166-0.209,0.25-0.491,0.25-0.844c0-0.343-0.062-0.658-0.187-0.944
		c-0.124-0.286-0.268-0.52-0.433-0.702c-0.164-0.181-0.398-0.407-0.702-0.675l-1.626-1.411c-0.479-0.418-0.834-0.852-1.068-1.303
		c-0.234-0.45-0.351-1.014-0.351-1.691c0-0.96,0.282-1.706,0.847-2.239c0.565-0.532,1.34-0.804,2.325-0.813
		c0.454-0.005,0.854,0.05,1.202,0.167c0.349,0.117,0.636,0.274,0.862,0.471c0.227,0.196,0.416,0.442,0.568,0.735
		c0.152,0.294,0.265,0.598,0.34,0.914c0.074,0.317,0.126,0.669,0.156,1.057l-1.926,0.38c-0.01-0.248-0.026-0.465-0.048-0.649
		c-0.023-0.184-0.061-0.371-0.116-0.56s-0.125-0.342-0.212-0.459c-0.088-0.117-0.205-0.21-0.351-0.28
		c-0.147-0.069-0.318-0.097-0.512-0.082c-0.333,0.02-0.589,0.131-0.765,0.332c-0.177,0.202-0.265,0.472-0.265,0.81
		c0,0.398,0.078,0.725,0.235,0.981c0.157,0.257,0.402,0.532,0.735,0.826l1.613,1.403c0.269,0.244,0.502,0.48,0.702,0.709
		c0.198,0.229,0.389,0.49,0.571,0.784c0.181,0.294,0.319,0.617,0.414,0.97c0.094,0.353,0.142,0.727,0.142,1.12
		c0,0.901-0.285,1.632-0.855,2.194C91.128,61.339,90.38,61.62,89.455,61.62"/><polygon fill="#FFFFFF" points="94.912,61.47 93.143,49.094 95.038,49.094 96.054,57.074 97.374,49.094 98.89,49.094 
		100.242,57.081 101.256,49.094 103.115,49.094 101.347,61.47 99.548,61.47 98.152,53.207 96.764,61.47 	"/><path fill="#FFFFFF" d="M103.205,61.47l2.516-12.376h2.351l2.508,12.376h-2.097l-0.5-2.874h-2.143l-0.508,2.874H103.205z
		 M106.079,57.126h1.657l-0.828-5.083L106.079,57.126z"/><path fill="#FFFFFF" d="M114.813,61.62c-0.532,0-1.003-0.067-1.411-0.202c-0.408-0.134-0.745-0.32-1.011-0.56
		c-0.266-0.238-0.483-0.534-0.65-0.888c-0.166-0.353-0.283-0.732-0.35-1.138c-0.068-0.406-0.101-0.862-0.101-1.37v-4.315
		c0-0.537,0.035-1.013,0.104-1.429c0.07-0.415,0.187-0.801,0.351-1.157c0.164-0.356,0.38-0.648,0.646-0.877
		c0.266-0.229,0.602-0.408,1.007-0.538c0.406-0.129,0.877-0.193,1.415-0.193c0.617,0,1.145,0.082,1.583,0.246
		c0.438,0.164,0.783,0.405,1.037,0.724s0.438,0.69,0.552,1.116c0.115,0.425,0.172,0.922,0.172,1.489v1.06h-2.172v-1.052
		c0-0.618-0.032-1.033-0.097-1.247c-0.13-0.418-0.446-0.642-0.948-0.672h-0.12c-0.189,0-0.354,0.023-0.496,0.067
		c-0.142,0.045-0.258,0.116-0.347,0.213c-0.09,0.097-0.162,0.2-0.216,0.31c-0.055,0.109-0.096,0.252-0.124,0.429
		c-0.027,0.176-0.044,0.339-0.052,0.489c-0.007,0.149-0.011,0.338-0.011,0.567v5.24c0,0.727,0.091,1.245,0.272,1.553
		c0.182,0.308,0.507,0.463,0.974,0.463c0.16,0,0.3-0.019,0.422-0.056c0.122-0.038,0.224-0.085,0.306-0.142
		c0.082-0.057,0.152-0.139,0.209-0.246c0.057-0.107,0.101-0.207,0.131-0.299c0.03-0.092,0.052-0.22,0.067-0.384
		c0.015-0.164,0.024-0.304,0.026-0.418c0.003-0.115,0.004-0.271,0.004-0.471v-1.104h2.172v1.015c0,0.463-0.032,0.878-0.097,1.246
		c-0.064,0.369-0.175,0.715-0.332,1.038c-0.157,0.324-0.36,0.592-0.608,0.806c-0.249,0.214-0.568,0.382-0.956,0.504
		S115.326,61.62,114.813,61.62"/><polygon fill="#FFFFFF" points="119.434,61.47 119.434,49.094 121.688,49.094 121.688,54.266 124.204,54.266 124.204,49.094 
		126.458,49.094 126.458,61.47 124.204,61.47 124.204,55.871 121.688,55.871 121.688,61.47 	"/><path fill="#FFFFFF" d="M131.146,61.62c-2.18,0-3.324-1.259-3.434-3.777l1.963-0.411c0.05,1.638,0.518,2.456,1.404,2.456
		c0.343,0,0.598-0.104,0.765-0.313c0.166-0.209,0.25-0.491,0.25-0.844c0-0.343-0.062-0.658-0.187-0.944
		c-0.124-0.286-0.268-0.52-0.433-0.702c-0.164-0.181-0.398-0.407-0.702-0.675l-1.626-1.411c-0.479-0.418-0.834-0.852-1.068-1.303
		c-0.234-0.45-0.351-1.014-0.351-1.691c0-0.96,0.282-1.706,0.847-2.239c0.565-0.532,1.34-0.804,2.325-0.813
		c0.454-0.005,0.854,0.05,1.203,0.167c0.348,0.117,0.635,0.274,0.861,0.471c0.227,0.196,0.416,0.442,0.568,0.735
		c0.152,0.294,0.265,0.598,0.34,0.914c0.074,0.317,0.127,0.669,0.156,1.057l-1.925,0.38c-0.011-0.248-0.027-0.465-0.049-0.649
		c-0.023-0.184-0.061-0.371-0.116-0.56s-0.125-0.342-0.212-0.459c-0.088-0.117-0.205-0.21-0.351-0.28
		c-0.147-0.069-0.318-0.097-0.512-0.082c-0.333,0.02-0.589,0.131-0.765,0.332c-0.177,0.202-0.265,0.472-0.265,0.81
		c0,0.398,0.078,0.725,0.235,0.981c0.157,0.257,0.402,0.532,0.735,0.826l1.613,1.403c0.269,0.244,0.502,0.48,0.702,0.709
		c0.198,0.229,0.389,0.49,0.571,0.784c0.181,0.294,0.319,0.617,0.414,0.97c0.094,0.353,0.142,0.727,0.142,1.12
		c0,0.901-0.285,1.632-0.855,2.194C132.819,61.339,132.071,61.62,131.146,61.62"/><polygon fill="#FFFFFF" points="136.469,61.47 136.469,50.758 134.394,50.758 134.394,49.094 140.731,49.094 140.731,50.758 
		138.723,50.758 138.723,61.47 	"/><path fill="#FFFFFF" d="M144.8,61.62c-0.552,0-1.031-0.065-1.437-0.194c-0.406-0.13-0.739-0.311-1-0.545
		c-0.262-0.234-0.471-0.534-0.627-0.9c-0.157-0.365-0.267-0.761-0.329-1.186c-0.062-0.426-0.093-0.92-0.093-1.482v-8.219h2.187v8.45
		c0,0.289,0.007,0.535,0.023,0.739c0.014,0.204,0.047,0.418,0.096,0.642c0.05,0.224,0.121,0.403,0.213,0.538
		c0.092,0.134,0.219,0.246,0.381,0.336c0.162,0.089,0.357,0.134,0.586,0.134c0.229,0,0.424-0.045,0.586-0.134
		c0.162-0.09,0.286-0.202,0.373-0.336c0.087-0.135,0.157-0.314,0.209-0.538c0.052-0.224,0.085-0.437,0.097-0.638
		c0.012-0.202,0.019-0.449,0.019-0.743v-8.45h2.187v8.219c0,0.562-0.031,1.056-0.094,1.482c-0.062,0.425-0.171,0.821-0.328,1.186
		c-0.156,0.366-0.364,0.666-0.623,0.9s-0.591,0.415-0.996,0.545C145.824,61.555,145.347,61.62,144.8,61.62"/><polygon fill="#FFFFFF" points="149.697,61.47 149.899,49.094 152.213,49.094 154.004,57.79 155.848,49.094 158.11,49.094 
		158.319,61.47 156.616,61.47 156.468,52.946 154.683,61.47 153.362,61.47 151.556,52.915 151.421,61.47 	"/><path fill="#FFFFFF" d="M115.721,86.706l-16.518,15.713c-0.623,0.62-0.943,1.077-0.943,2.36v44.037c0,0.517,0.422,0.94,0.943,0.94
		h17.062c0.52,0,0.94-0.423,0.94-0.94V87.103C117.206,86.583,116.8,85.634,115.721,86.706"/><path fill="#FFFFFF" d="M68.136,107.177l-16.519,15.711c-0.621,0.621-0.941,1.077-0.941,2.358v23.57
		c0,0.515,0.422,0.938,0.941,0.938H68.68c0.521,0,0.941-0.423,0.941-0.938v-41.245C69.621,107.05,69.211,106.1,68.136,107.177"/><path fill="#FFFFFF" d="M123.23,67.651c0.006-0.126-0.039-0.259-0.14-0.358c-0.087-0.085-0.198-0.124-0.306-0.134l-0.09,0.006
		l-0.136,0.009l-12.647,2.852l-0.23,0.024c-0.09,0.018-0.176,0.063-0.246,0.13c-0.187,0.189-0.187,0.491,0,0.68l0.143,0.144
		l2.889,2.887l-28.66,28.66L70.569,89.312c-0.15-0.151-0.388-0.151-0.538,0l-3.592,3.592c-0.003,0-0.003,0.004-0.003,0.004
		l-21.219,21.215c-0.147,0.15-0.147,0.392,0,0.539l3.596,3.595c0.148,0.149,0.387,0.149,0.535,0l20.954-20.95l9.605,9.607
		c0.01,0.014,0.015,0.03,0.03,0.045l3.593,3.589c0.149,0.15,0.389,0.15,0.538,0l32.527-32.526l3.032,3.032
		c0.187,0.189,0.491,0.189,0.675,0c0.089-0.089,0.131-0.197,0.138-0.311l0.002-0.041l2.778-12.911L123.23,67.651z"/><path fill="#FFFFFF" d="M92.023,109.935l-7.993,8.057c-0.151,0.126-0.373,0.122-0.514-0.02l-7.24-7.38
		c-1.326-1.32-1.611-0.249-1.611,0.27v37.952c0,0.517,0.416,0.941,0.934,0.941h17.067c0.517,0,0.939-0.424,0.939-0.941v-38.582
		C93.605,109.714,93.195,108.761,92.023,109.935"/></g></svg>