<svg xmlns="http://www.w3.org/2000/svg" xml:space="preserve" x="0px" y="0px" version="1.1" viewBox="0 0 169.847 169.847" focusable="false" aria-hidden="true"><g><rect width="169.847" height="169.848" fill="#F59D08"/><path fill="#FFFFFF" d="M14.801,21.171c-0.294,0.16-1.146,0.494-2.559,1c-1.12,0.373-1.826,0.626-2.119,0.759v-4.598
		c0.906-0.346,2.005-0.879,3.298-1.599c1.293-0.72,2.206-1.373,2.739-1.959h4.838V47.16h-6.197V21.171z"/><path fill="#FFFFFF" d="M28.355,21.171c-0.294,0.16-1.146,0.494-2.559,1c-1.12,0.373-1.826,0.626-2.119,0.759v-4.598
		c0.906-0.346,2.005-0.879,3.299-1.599c1.292-0.72,2.205-1.373,2.738-1.959h4.838V47.16h-6.197V21.171z"/><polygon fill="#FFFFFF" points="45.804,27.132 45.804,14.756 47.357,14.756 50.387,21.765 50.387,14.756 52.253,14.756 
		52.253,27.132 50.776,27.132 47.715,19.765 47.715,27.132 	"/><path fill="#FFFFFF" d="M52.837,27.131l2.516-12.376h2.351l2.508,12.376h-2.098l-0.5-2.873h-2.142l-0.508,2.873H52.837z
		 M55.711,22.787h1.657l-0.829-5.083L55.711,22.787z"/><path fill="#FFFFFF" d="M64.123,27.281c-0.532,0-1.002-0.067-1.41-0.202c-0.408-0.134-0.745-0.32-1.012-0.559
		c-0.266-0.239-0.482-0.535-0.649-0.888c-0.167-0.354-0.283-0.733-0.351-1.139c-0.067-0.405-0.1-0.862-0.1-1.37v-4.314
		c0-0.538,0.034-1.014,0.104-1.43c0.069-0.415,0.187-0.801,0.351-1.157c0.164-0.356,0.379-0.648,0.645-0.877
		c0.267-0.229,0.603-0.408,1.008-0.537c0.405-0.13,0.877-0.194,1.414-0.194c0.617,0,1.145,0.082,1.583,0.246
		c0.438,0.164,0.784,0.405,1.038,0.724c0.253,0.319,0.438,0.691,0.552,1.116c0.114,0.425,0.172,0.922,0.172,1.489v1.06h-2.172
		v-1.052c0-0.618-0.032-1.033-0.098-1.247c-0.129-0.418-0.445-0.642-0.947-0.672h-0.12c-0.19,0-0.355,0.023-0.496,0.067
		c-0.142,0.045-0.258,0.116-0.348,0.213c-0.089,0.097-0.161,0.201-0.216,0.31c-0.054,0.109-0.095,0.252-0.123,0.429
		c-0.027,0.177-0.045,0.34-0.053,0.489c-0.006,0.149-0.01,0.338-0.01,0.567v5.24c0,0.727,0.091,1.245,0.272,1.553
		c0.182,0.309,0.506,0.463,0.974,0.463c0.159,0,0.3-0.018,0.422-0.056c0.122-0.037,0.223-0.084,0.306-0.142
		c0.082-0.057,0.152-0.139,0.209-0.246c0.057-0.107,0.101-0.207,0.13-0.299c0.03-0.092,0.053-0.22,0.068-0.384
		c0.014-0.164,0.023-0.304,0.026-0.418c0.002-0.115,0.004-0.271,0.004-0.471v-1.104h2.172v1.015c0,0.463-0.032,0.879-0.097,1.247
		c-0.065,0.368-0.176,0.714-0.332,1.037c-0.157,0.324-0.36,0.592-0.608,0.806c-0.249,0.214-0.568,0.382-0.956,0.504
		S64.636,27.281,64.123,27.281"/><polygon fill="#FFFFFF" points="68.423,27.132 68.423,14.756 70.677,14.756 70.677,19.929 73.193,19.929 73.193,14.756 
		75.446,14.756 75.446,27.132 73.193,27.132 73.193,21.534 70.677,21.534 70.677,27.132 	"/><polygon fill="#FFFFFF" points="76.716,27.132 76.716,14.756 78.971,14.756 78.971,19.929 81.486,19.929 81.486,14.756 
		83.74,14.756 83.74,27.132 81.486,27.132 81.486,21.534 78.971,21.534 78.971,27.132 	"/><path fill="#FFFFFF" d="M84.345,27.131l2.516-12.376h2.351l2.508,12.376h-2.098l-0.5-2.873H86.98l-0.507,2.873H84.345z
		 M87.219,22.787h1.657l-0.828-5.083L87.219,22.787z"/><polygon fill="#FFFFFF" points="92.31,27.132 92.31,14.756 94.565,14.756 94.565,25.572 97.528,25.572 97.528,27.132 	"/><polygon fill="#FFFFFF" points="98.984,27.132 98.984,16.421 96.909,16.421 96.909,14.756 103.247,14.756 103.247,16.421 
		101.239,16.421 101.239,27.132 	"/><rect width="2.225" height="12.376" x="103.672" y="14.756" fill="#FFFFFF"/><path fill="#FFFFFF" d="M110.271,27.296c-1.169,0-2.012-0.366-2.526-1.098c-0.516-0.731-0.773-1.796-0.773-3.194v-4.031
		c0-0.712,0.056-1.325,0.168-1.84c0.111-0.515,0.3-0.967,0.564-1.355c0.263-0.388,0.627-0.679,1.089-0.874
		c0.463-0.193,1.031-0.291,1.703-0.291c1.223,0,2.101,0.3,2.634,0.9c0.533,0.6,0.799,1.509,0.799,2.728v0.605h-2.158v-0.642
		c0-0.274-0.006-0.498-0.019-0.672c-0.011-0.174-0.042-0.349-0.088-0.526c-0.048-0.177-0.117-0.313-0.206-0.407
		c-0.089-0.095-0.211-0.172-0.366-0.231c-0.154-0.06-0.343-0.09-0.567-0.09c-0.169,0-0.32,0.021-0.452,0.063
		c-0.132,0.043-0.242,0.095-0.332,0.157c-0.089,0.063-0.165,0.151-0.228,0.265c-0.061,0.115-0.109,0.225-0.141,0.332
		c-0.033,0.108-0.058,0.245-0.075,0.415c-0.017,0.169-0.029,0.318-0.034,0.448c-0.005,0.129-0.007,0.296-0.007,0.5v4.994
		c0,0.746,0.092,1.292,0.276,1.638c0.184,0.346,0.535,0.519,1.052,0.519c0.269,0,0.495-0.051,0.676-0.153
		c0.182-0.102,0.323-0.257,0.426-0.463c0.102-0.206,0.174-0.443,0.216-0.709c0.043-0.266,0.063-0.589,0.063-0.967v-1.015h-1.336
		v-1.456h3.367v6.285h-1.463l-0.164-1.253C111.996,26.823,111.296,27.296,110.271,27.296"/><polygon fill="#FFFFFF" points="115.071,27.132 115.071,14.756 120.252,14.756 120.252,16.346 117.326,16.346 117.326,19.899 
		119.639,19.899 119.639,21.489 117.326,21.489 117.326,25.572 120.289,25.572 120.289,27.132 	"/><path fill="#FFFFFF" d="M127.187,27.281c-2.18,0-3.324-1.259-3.434-3.777l1.963-0.41c0.05,1.637,0.518,2.455,1.404,2.455
		c0.342,0,0.597-0.104,0.764-0.313c0.167-0.209,0.25-0.491,0.25-0.844c0-0.343-0.061-0.658-0.186-0.944
		c-0.124-0.286-0.269-0.52-0.433-0.702c-0.164-0.181-0.398-0.406-0.701-0.675l-1.628-1.411c-0.478-0.418-0.834-0.852-1.067-1.303
		c-0.234-0.45-0.351-1.014-0.351-1.69c0-0.961,0.282-1.707,0.847-2.24c0.565-0.532,1.34-0.803,2.325-0.813
		c0.453-0.005,0.853,0.051,1.202,0.167c0.349,0.118,0.636,0.274,0.862,0.471c0.227,0.196,0.415,0.442,0.568,0.735
		c0.151,0.294,0.264,0.599,0.34,0.915c0.074,0.316,0.127,0.668,0.156,1.056l-1.926,0.381c-0.01-0.249-0.026-0.466-0.049-0.65
		c-0.022-0.184-0.06-0.371-0.115-0.56s-0.126-0.342-0.213-0.459c-0.087-0.117-0.204-0.21-0.35-0.28
		c-0.147-0.069-0.318-0.097-0.512-0.082c-0.333,0.02-0.589,0.131-0.765,0.332c-0.177,0.202-0.265,0.472-0.265,0.81
		c0,0.398,0.079,0.726,0.235,0.982c0.157,0.256,0.402,0.531,0.735,0.825l1.613,1.403c0.268,0.244,0.502,0.48,0.702,0.709
		c0.198,0.229,0.388,0.49,0.57,0.784s0.32,0.617,0.415,0.97c0.094,0.354,0.142,0.727,0.142,1.12c0,0.901-0.285,1.632-0.855,2.195
		C128.86,27,128.113,27.281,127.187,27.281"/><polygon fill="#FFFFFF" points="132.188,27.132 132.188,16.421 130.113,16.421 130.113,14.756 136.451,14.756 136.451,16.421 
		134.443,16.421 134.443,27.132 	"/><path fill="#FFFFFF" d="M136.107,27.132l2.516-12.376h2.351l2.508,12.376h-2.097l-0.501-2.874h-2.141l-0.508,2.874H136.107z
		 M137.384,11.718h1.873v1.985h-1.873V11.718z M138.981,22.787h1.657l-0.828-5.083L138.981,22.787z M140.317,11.718h1.882v1.985
		h-1.882V11.718z"/><path fill="#FFFFFF" d="M144.073,27.132V14.756h2.881c0.747,0,1.371,0.074,1.874,0.223c0.502,0.15,0.905,0.386,1.209,0.71
		c0.304,0.323,0.519,0.72,0.645,1.19c0.127,0.47,0.191,1.049,0.191,1.735v4.464c0,0.707-0.065,1.307-0.194,1.799
		c-0.129,0.493-0.342,0.911-0.638,1.255c-0.296,0.343-0.691,0.595-1.184,0.757c-0.492,0.162-1.096,0.243-1.813,0.243H144.073z
		 M146.327,25.549h0.642c0.224,0,0.42-0.02,0.589-0.06c0.17-0.039,0.312-0.086,0.426-0.141s0.21-0.145,0.287-0.269
		c0.077-0.124,0.136-0.239,0.176-0.343c0.04-0.105,0.069-0.263,0.09-0.475c0.019-0.211,0.032-0.391,0.037-0.541
		c0.005-0.149,0.007-0.37,0.007-0.664v-4.524c0-0.293-0.005-0.529-0.015-0.709c-0.01-0.179-0.033-0.359-0.07-0.541
		c-0.038-0.182-0.093-0.322-0.165-0.421c-0.071-0.1-0.168-0.191-0.287-0.273s-0.269-0.14-0.447-0.172
		c-0.18-0.032-0.397-0.048-0.651-0.048h-0.619V25.549z"/><polygon fill="#FFFFFF" points="153.112,27.132 153.112,16.421 151.037,16.421 151.037,14.756 157.375,14.756 157.375,16.421 
		155.367,16.421 155.367,27.132 	"/><polygon fill="#FFFFFF" points="157.733,27.132 157.733,14.756 162.914,14.756 162.914,16.346 159.988,16.346 159.988,19.899 
		162.301,19.899 162.301,21.489 159.988,21.489 159.988,25.572 162.951,25.572 162.951,27.132 	"/><path fill="#FFFFFF" d="M49.193,47.508c-0.552,0-1.031-0.064-1.437-0.194c-0.405-0.129-0.739-0.311-1-0.545
		c-0.261-0.234-0.47-0.533-0.626-0.9c-0.158-0.365-0.267-0.761-0.33-1.186c-0.061-0.426-0.092-0.92-0.092-1.482v-8.218h2.186v8.449
		c0,0.289,0.008,0.535,0.023,0.74c0.015,0.204,0.047,0.418,0.097,0.641c0.05,0.224,0.12,0.403,0.213,0.538
		c0.092,0.134,0.219,0.246,0.38,0.336c0.162,0.089,0.357,0.134,0.586,0.134c0.229,0,0.425-0.045,0.586-0.134
		c0.162-0.09,0.286-0.202,0.374-0.336c0.087-0.135,0.156-0.314,0.209-0.538c0.052-0.223,0.084-0.436,0.097-0.638
		c0.012-0.202,0.018-0.449,0.018-0.743v-8.449h2.188v8.218c0,0.562-0.032,1.056-0.094,1.482c-0.063,0.425-0.171,0.821-0.328,1.186
		c-0.157,0.367-0.364,0.666-0.623,0.9c-0.259,0.234-0.591,0.416-0.997,0.545C50.217,47.444,49.741,47.508,49.193,47.508"/><polygon fill="#FFFFFF" points="53.792,47.358 53.792,34.982 55.345,34.982 58.376,41.991 58.376,34.982 60.241,34.982 
		60.241,47.358 58.764,47.358 55.703,39.991 55.703,47.358 	"/><path fill="#FFFFFF" d="M61.465,47.359V34.983h2.882c0.746,0,1.371,0.074,1.874,0.223c0.502,0.15,0.905,0.386,1.209,0.71
		c0.303,0.323,0.519,0.72,0.645,1.19c0.127,0.47,0.191,1.049,0.191,1.735v4.464c0,0.707-0.065,1.307-0.194,1.8
		c-0.129,0.492-0.342,0.91-0.638,1.254c-0.297,0.343-0.691,0.596-1.184,0.757c-0.492,0.162-1.097,0.243-1.813,0.243H61.465z
		 M63.72,45.776h0.642c0.223,0,0.42-0.02,0.589-0.06c0.169-0.039,0.312-0.086,0.426-0.141s0.21-0.145,0.287-0.269
		c0.077-0.124,0.136-0.239,0.176-0.343c0.039-0.105,0.069-0.263,0.089-0.475c0.02-0.211,0.032-0.391,0.038-0.541
		c0.005-0.149,0.007-0.37,0.007-0.664v-4.524c0-0.293-0.005-0.529-0.015-0.709c-0.01-0.179-0.033-0.359-0.071-0.541
		c-0.037-0.181-0.092-0.322-0.164-0.421c-0.072-0.1-0.168-0.191-0.287-0.273c-0.12-0.082-0.269-0.139-0.448-0.172
		c-0.179-0.032-0.396-0.048-0.65-0.048H63.72V45.776z"/><path fill="#FFFFFF" d="M75.5,47.523c-1.17,0-2.012-0.366-2.526-1.098c-0.516-0.731-0.773-1.796-0.773-3.194V39.2
		c0-0.712,0.056-1.325,0.168-1.84c0.111-0.515,0.3-0.967,0.564-1.355c0.263-0.388,0.627-0.679,1.089-0.874
		c0.463-0.193,1.03-0.291,1.702-0.291c1.224,0,2.102,0.3,2.635,0.9c0.533,0.6,0.799,1.509,0.799,2.728v0.605h-2.157v-0.642
		c0-0.274-0.007-0.498-0.019-0.672c-0.012-0.174-0.043-0.349-0.089-0.526c-0.048-0.177-0.117-0.313-0.206-0.407
		c-0.089-0.095-0.211-0.172-0.366-0.231c-0.154-0.06-0.343-0.09-0.567-0.09c-0.169,0-0.319,0.021-0.451,0.063
		c-0.132,0.043-0.243,0.095-0.333,0.157c-0.089,0.063-0.165,0.151-0.228,0.265c-0.062,0.115-0.109,0.225-0.141,0.332
		c-0.033,0.108-0.058,0.245-0.075,0.415c-0.017,0.169-0.029,0.318-0.034,0.448c-0.005,0.129-0.007,0.296-0.007,0.5v4.994
		c0,0.746,0.092,1.292,0.276,1.638c0.184,0.346,0.535,0.519,1.052,0.519c0.269,0,0.495-0.051,0.676-0.153
		c0.182-0.102,0.323-0.256,0.426-0.463c0.102-0.206,0.174-0.443,0.216-0.709c0.042-0.266,0.063-0.589,0.063-0.967v-1.015h-1.336
		v-1.456h3.367v6.285h-1.463l-0.164-1.253C77.225,47.05,76.525,47.523,75.5,47.523"/><polygon fill="#FFFFFF" points="80.299,47.358 80.299,34.982 85.48,34.982 85.48,36.572 82.554,36.572 82.554,40.125 
		84.867,40.125 84.867,41.715 82.554,41.715 82.554,45.798 85.517,45.798 85.517,47.358 	"/><polygon fill="#FFFFFF" points="86.168,47.358 86.369,34.982 88.683,34.982 90.475,43.678 92.318,34.982 94.58,34.982 
		94.789,47.358 93.087,47.358 92.938,38.834 91.154,47.358 89.833,47.358 88.026,38.804 87.892,47.358 	"/><polygon fill="#FFFFFF" points="95.991,47.358 95.991,34.982 101.172,34.982 101.172,36.572 98.245,36.572 98.245,40.125 
		100.559,40.125 100.559,41.715 98.245,41.715 98.245,45.798 101.209,45.798 101.209,47.358 	"/><rect width="2.225" height="12.376" x="101.948" y="34.982" fill="#FFFFFF"/><polygon fill="#FFFFFF" points="105.449,47.358 105.449,34.982 107.002,34.982 110.033,41.991 110.033,34.982 111.899,34.982 
		111.899,47.358 110.421,47.358 107.36,39.991 107.36,47.358 	"/><path fill="#FFFFFF" d="M113.122,47.359V34.983h2.882c0.746,0,1.371,0.074,1.873,0.223c0.503,0.15,0.906,0.386,1.21,0.71
		c0.304,0.323,0.519,0.72,0.645,1.19c0.127,0.47,0.191,1.049,0.191,1.735v4.464c0,0.707-0.066,1.307-0.194,1.8
		c-0.129,0.492-0.342,0.91-0.638,1.254c-0.297,0.343-0.692,0.596-1.184,0.757c-0.493,0.162-1.097,0.243-1.813,0.243H113.122z
		 M115.378,45.776h0.642c0.223,0,0.42-0.02,0.589-0.06c0.169-0.039,0.311-0.086,0.426-0.141c0.114-0.055,0.21-0.145,0.287-0.269
		c0.077-0.124,0.136-0.239,0.176-0.343c0.039-0.105,0.069-0.263,0.089-0.475c0.02-0.211,0.032-0.391,0.037-0.541
		c0.006-0.149,0.008-0.37,0.008-0.664v-4.524c0-0.293-0.005-0.529-0.015-0.709c-0.01-0.179-0.033-0.359-0.071-0.541
		c-0.037-0.181-0.092-0.322-0.164-0.421c-0.072-0.1-0.168-0.191-0.287-0.273s-0.269-0.139-0.448-0.172
		c-0.179-0.032-0.396-0.048-0.65-0.048h-0.619V45.776z"/><polygon fill="#FFFFFF" points="120.954,47.358 120.954,34.982 126.135,34.982 126.135,36.572 123.208,36.572 123.208,40.125 
		125.522,40.125 125.522,41.715 123.208,41.715 123.208,45.798 126.172,45.798 126.172,47.358 	"/><polygon fill="#FFFFFF" points="126.843,47.358 126.843,34.982 128.396,34.982 131.426,41.991 131.426,34.982 133.292,34.982 
		133.292,47.358 131.815,47.358 128.754,39.991 128.754,47.358 	"/><path fill="#FFFFFF" d="M28.965,129.511h0.265H54.63c0.348,0,0.63-0.284,0.63-0.632c0-0.162-0.066-0.306-0.166-0.419l-0.035-0.037
		l-12.769-16.521l-0.125-0.137c-0.115-0.126-0.28-0.205-0.465-0.205c-0.158,0-0.299,0.066-0.413,0.161l-0.076,0.09l-0.12,0.135
		l-12.458,16.347l-0.191,0.234c-0.069,0.099-0.108,0.221-0.108,0.352C28.335,129.227,28.617,129.511,28.965,129.511"/><path fill="#FFFFFF" d="M54.553,131.84H28.836c-0.347,0-0.63,0.282-0.63,0.63v20.125c0,0.348,0.283,0.632,0.63,0.632h8.278v-12.661
		c0-0.351,0.28-0.63,0.629-0.63h7.683c0.348,0,0.63,0.279,0.63,0.63v12.661h8.497c0.347,0,0.629-0.284,0.629-0.632V132.47
		C55.182,132.122,54.9,131.84,54.553,131.84"/><path fill="#FFFFFF" d="M143.434,126.573h-25.453c-0.344,0-0.622,0.266-0.622,0.604v25.702c0,0.333,0.278,0.605,0.622,0.605h25.453
		c0.346,0,0.624-0.272,0.624-0.605v-25.702C144.057,126.839,143.779,126.573,143.434,126.573 M129.507,143.351
		c0,0.337-0.277,0.608-0.621,0.608h-7.605c-0.345,0-0.625-0.271-0.625-0.608v-4.621c0-0.337,0.28-0.607,0.625-0.607h7.605
		c0.344,0,0.621,0.27,0.621,0.607V143.351z M129.507,134.81c0,0.336-0.277,0.607-0.621,0.607h-7.605
		c-0.345,0-0.625-0.271-0.625-0.607v-4.624c0-0.334,0.28-0.605,0.625-0.605h7.605c0.344,0,0.621,0.271,0.621,0.605V134.81z
		 M141.129,143.351c0,0.337-0.277,0.608-0.623,0.608h-7.603c-0.345,0-0.623-0.271-0.623-0.608v-4.621
		c0-0.337,0.278-0.607,0.623-0.607h7.603c0.346,0,0.623,0.27,0.623,0.607V143.351z M141.129,134.81c0,0.336-0.277,0.607-0.623,0.607
		h-7.603c-0.345,0-0.623-0.271-0.623-0.607v-4.624c0-0.334,0.278-0.605,0.623-0.605h7.603c0.346,0,0.623,0.271,0.623,0.605V134.81z"/><path fill="#FFFFFF" d="M84.265,66.913H59.357c-0.334,0-0.61,0.271-0.61,0.611v85.127c0,0.336,0.276,0.61,0.61,0.61h24.908
		c0.334,0,0.613-0.274,0.613-0.61V67.524C84.878,67.184,84.599,66.913,84.265,66.913 M69.447,143.562
		c0,0.181-0.146,0.327-0.327,0.327h-5.703c-0.18,0-0.327-0.146-0.327-0.327v-6.355c0-0.181,0.147-0.325,0.327-0.325h5.703
		c0.181,0,0.327,0.144,0.327,0.325V143.562z M69.447,128.965c0,0.183-0.146,0.327-0.327,0.327h-5.703
		c-0.18,0-0.327-0.144-0.327-0.327v-6.354c0-0.184,0.147-0.327,0.327-0.327h5.703c0.181,0,0.327,0.143,0.327,0.327V128.965z
		 M69.447,114.371c0,0.18-0.146,0.327-0.327,0.327h-5.703c-0.18,0-0.327-0.147-0.327-0.327v-6.358c0-0.18,0.147-0.328,0.327-0.328
		h5.703c0.181,0,0.327,0.148,0.327,0.328V114.371z M69.447,99.772c0,0.181-0.146,0.328-0.327,0.328h-5.703
		c-0.18,0-0.327-0.147-0.327-0.328v-6.357c0-0.18,0.147-0.323,0.327-0.323h5.703c0.181,0,0.327,0.143,0.327,0.323V99.772z
		 M69.447,85.179c0,0.178-0.146,0.325-0.327,0.325h-5.703c-0.18,0-0.327-0.147-0.327-0.325v-6.358c0-0.182,0.147-0.327,0.327-0.327
		h5.703c0.181,0,0.327,0.145,0.327,0.327V85.179z M80.633,143.562c0,0.181-0.147,0.327-0.329,0.327h-5.701
		c-0.183,0-0.327-0.146-0.327-0.327v-6.355c0-0.181,0.144-0.325,0.327-0.325h5.701c0.182,0,0.329,0.144,0.329,0.325V143.562z
		 M80.633,128.965c0,0.183-0.147,0.327-0.329,0.327h-5.701c-0.183,0-0.327-0.144-0.327-0.327v-6.354
		c0-0.184,0.144-0.327,0.327-0.327h5.701c0.182,0,0.329,0.143,0.329,0.327V128.965z M80.633,114.371c0,0.18-0.147,0.327-0.329,0.327
		h-5.701c-0.183,0-0.327-0.147-0.327-0.327v-6.358c0-0.18,0.144-0.328,0.327-0.328h5.701c0.182,0,0.329,0.148,0.329,0.328V114.371z
		 M80.633,99.772c0,0.181-0.147,0.328-0.329,0.328h-5.701c-0.183,0-0.327-0.147-0.327-0.328v-6.357c0-0.18,0.144-0.323,0.327-0.323
		h5.701c0.182,0,0.329,0.143,0.329,0.323V99.772z M80.633,85.179c0,0.178-0.147,0.325-0.329,0.325h-5.701
		c-0.183,0-0.327-0.147-0.327-0.325v-6.358c0-0.182,0.144-0.327,0.327-0.327h5.701c0.182,0,0.329,0.145,0.329,0.327V85.179z"/><path fill="#FFFFFF" d="M144.028,123.986c0,0.286-0.228,0.514-0.512,0.514h-25.619c-0.281,0-0.512-0.228-0.512-0.514v-5.124
		c0-0.281,0.231-0.511,0.512-0.511h25.619c0.284,0,0.512,0.23,0.512,0.511V123.986z"/><path fill="#FFFFFF" d="M114.353,82.987c-0.083-0.273-0.325-0.476-0.626-0.476c-0.134,0-0.251,0.05-0.355,0.118
		c-0.016,0.01-0.032,0.018-0.047,0.031l-0.211,0.265L88.633,113.98l-0.113,0.152c-0.126,0.124-0.207,0.294-0.212,0.484v0.041v38.122
		c0,0.335,0.274,0.607,0.61,0.607h24.885c0.337,0,0.609-0.272,0.609-0.607V83.242C114.412,83.151,114.388,83.064,114.353,82.987
		 M104.045,99.852l0.176-0.219c1.675-2.15,4.498-5.624,5.874-7.312l0.18-0.216c0.131-0.157,0.327-0.258,0.548-0.258
		c0.341,0,0.613,0.246,0.679,0.569v0.275v0.224v7.358c0,0.379-0.301,0.684-0.676,0.7c-0.011,0-0.021,0.006-0.031,0.006
		s-0.019-0.006-0.031-0.006h-5.814h-0.304c-0.011,0-0.021,0.006-0.03,0.006c-0.011,0-0.02-0.006-0.032-0.006
		c-0.375-0.016-0.676-0.321-0.676-0.7C103.908,100.116,103.959,99.971,104.045,99.852 M100.172,143.346
		c0,0.338-0.271,0.609-0.609,0.609h-7.424c-0.338,0-0.608-0.271-0.608-0.609v-4.647c0-0.336,0.27-0.607,0.608-0.607h7.424
		c0.338,0,0.609,0.271,0.609,0.607V143.346z M100.172,134.76c0,0.338-0.271,0.609-0.609,0.609h-7.424
		c-0.338,0-0.608-0.271-0.608-0.609v-4.647c0-0.34,0.27-0.609,0.608-0.609h7.424c0.338,0,0.609,0.269,0.609,0.609V134.76z
		 M100.172,126.174c0,0.334-0.271,0.607-0.609,0.607h-7.424c-0.338,0-0.608-0.273-0.608-0.607v-4.65c0-0.337,0.27-0.608,0.608-0.608
		h7.424c0.338,0,0.609,0.271,0.609,0.608V126.174z M100.193,107.357v0.224v10.014c0,0.337-0.276,0.608-0.609,0.608h-7.422
		c-0.339,0-0.614-0.271-0.614-0.608v-1.237v-0.051c0.004-0.081,0.02-0.159,0.047-0.229c0.013-0.024,0.015-0.035,0.037-0.07
		c0.015-0.029,0.036-0.056,0.055-0.08c0.019-0.03,0.046-0.067,0.069-0.1c0.949-1.358,5.231-6.634,7.03-8.839l0.18-0.218
		c0.13-0.157,0.327-0.258,0.547-0.258c0.341,0,0.613,0.249,0.68,0.569V107.357z M111.521,143.346c0,0.338-0.275,0.609-0.609,0.609
		h-7.422c-0.34,0-0.614-0.271-0.614-0.609v-4.647c0-0.336,0.274-0.607,0.614-0.607h7.422c0.334,0,0.609,0.271,0.609,0.607V143.346z
		 M111.521,134.76c0,0.338-0.275,0.609-0.609,0.609h-7.422c-0.34,0-0.614-0.271-0.614-0.609v-4.647c0-0.34,0.274-0.609,0.614-0.609
		h7.422c0.334,0,0.609,0.269,0.609,0.609V134.76z M111.521,126.174c0,0.334-0.275,0.607-0.609,0.607h-7.422
		c-0.34,0-0.614-0.273-0.614-0.607v-4.65c0-0.337,0.274-0.608,0.614-0.608h7.422c0.334,0,0.609,0.271,0.609,0.608V126.174z
		 M111.521,117.586c0,0.336-0.275,0.606-0.609,0.606h-7.422c-0.34,0-0.614-0.27-0.614-0.606v-4.647c0-0.337,0.274-0.609,0.614-0.609
		h7.422c0.334,0,0.609,0.272,0.609,0.609V117.586z M111.521,108.998c0,0.337-0.275,0.608-0.609,0.608h-7.422
		c-0.34,0-0.614-0.271-0.614-0.608v-4.647c0-0.34,0.274-0.611,0.614-0.611h7.422c0.334,0,0.609,0.271,0.609,0.611V108.998z"/></g></svg>