<svg xmlns="http://www.w3.org/2000/svg" xml:space="preserve" x="0px" y="0px" version="1.1" viewBox="0 0 169.847 169.847" focusable="false" aria-hidden="true"><g><rect width="169.847" height="169.848" fill="#DD0979"/><path fill="#FFFFFF" d="M14.802,21.171c-0.294,0.16-1.146,0.494-2.56,1c-1.119,0.373-1.826,0.626-2.119,0.759v-4.598
		c0.907-0.346,2.006-0.879,3.299-1.599c1.293-0.72,2.205-1.373,2.739-1.959h4.838V47.16h-6.197V21.171z"/><path fill="#FFFFFF" d="M26.416,45.181c-1.48-1.692-2.219-3.964-2.219-6.817V23.85c0-2.959,0.72-5.284,2.159-6.977
		c1.439-1.692,3.611-2.539,6.517-2.539c2.879,0,5.038,0.847,6.477,2.539c1.44,1.693,2.159,4.018,2.159,6.977v14.514
		c0,2.826-0.747,5.091-2.239,6.797c-1.493,1.706-3.625,2.559-6.397,2.559C30.047,47.72,27.895,46.874,26.416,45.181 M35.232,38.244
		V23.97c0-1.2-0.153-2.199-0.46-2.998c-0.307-0.8-0.939-1.2-1.899-1.2c-1.013,0-1.666,0.393-1.959,1.18
		c-0.293,0.786-0.44,1.792-0.44,3.018v14.274c0,2.692,0.8,4.038,2.399,4.038C34.446,42.282,35.232,40.936,35.232,38.244"/><polygon fill="#FFFFFF" points="55.622,27.132 53.853,14.756 55.75,14.756 56.765,22.736 58.086,14.756 59.601,14.756 
		60.952,22.743 61.968,14.756 63.826,14.756 62.057,27.132 60.258,27.132 58.862,18.869 57.474,27.132 	"/><polygon fill="#FFFFFF" points="64.854,27.132 64.854,14.756 70.035,14.756 70.035,16.346 67.108,16.346 67.108,19.899 
		69.422,19.899 69.422,21.489 67.108,21.489 67.108,25.572 70.072,25.572 70.072,27.132 	"/><polygon fill="#FFFFFF" points="70.973,27.132 70.973,14.756 72.526,14.756 75.556,21.765 75.556,14.756 77.422,14.756 
		77.422,27.132 75.945,27.132 72.884,19.765 72.884,27.132 	"/><rect width="2.225" height="12.376" x="78.944" y="14.756" fill="#FFFFFF"/><path fill="#FFFFFF" d="M85.772,27.296c-1.17,0-2.012-0.366-2.527-1.098c-0.515-0.731-0.773-1.796-0.773-3.194v-4.031
		c0-0.712,0.057-1.325,0.168-1.84c0.112-0.515,0.3-0.967,0.564-1.355c0.263-0.388,0.627-0.679,1.089-0.874
		c0.463-0.193,1.031-0.291,1.703-0.291c1.224,0,2.102,0.3,2.634,0.9c0.534,0.6,0.799,1.509,0.799,2.728v0.605h-2.157v-0.642
		c0-0.274-0.006-0.498-0.019-0.672c-0.012-0.174-0.042-0.349-0.088-0.526c-0.048-0.177-0.117-0.313-0.206-0.407
		c-0.089-0.095-0.211-0.172-0.366-0.231c-0.154-0.06-0.343-0.09-0.567-0.09c-0.17,0-0.32,0.021-0.452,0.063
		c-0.132,0.043-0.242,0.095-0.332,0.157c-0.09,0.063-0.165,0.151-0.228,0.265c-0.062,0.115-0.109,0.225-0.141,0.332
		c-0.033,0.108-0.058,0.245-0.076,0.415c-0.017,0.169-0.028,0.318-0.033,0.448c-0.005,0.129-0.008,0.296-0.008,0.5v4.994
		c0,0.746,0.093,1.292,0.277,1.638c0.184,0.346,0.535,0.519,1.052,0.519c0.269,0,0.494-0.051,0.676-0.153
		c0.182-0.102,0.323-0.257,0.425-0.463c0.103-0.206,0.175-0.443,0.217-0.709c0.042-0.266,0.063-0.589,0.063-0.967v-1.015H86.13
		v-1.456h3.367v6.285h-1.463l-0.164-1.253C87.497,26.823,86.796,27.296,85.772,27.296"/><polygon fill="#FFFFFF" points="90.802,27.132 90.802,14.756 95.982,14.756 95.982,16.346 93.055,16.346 93.055,19.899 
		95.37,19.899 95.37,21.489 93.055,21.489 93.055,25.572 96.019,25.572 96.019,27.132 	"/><path fill="#FFFFFF" d="M96.92,27.131V14.755h2.836c0.652,0,1.212,0.054,1.68,0.16c0.467,0.108,0.875,0.287,1.22,0.538
		c0.346,0.252,0.605,0.592,0.777,1.023c0.172,0.43,0.258,0.957,0.258,1.579c0,0.776-0.117,1.41-0.348,1.903
		c-0.231,0.493-0.613,0.851-1.146,1.075l1.717,6.098h-2.261l-1.478-5.65h-1.001v5.65H96.92z M99.174,20.04h0.545
		c0.667,0,1.141-0.142,1.422-0.425c0.281-0.284,0.422-0.769,0.422-1.456c0-0.662-0.122-1.136-0.366-1.422
		c-0.244-0.286-0.692-0.429-1.343-0.429h-0.68V20.04z"/><path fill="#FFFFFF" d="M57.668,47.508c-0.553,0-1.031-0.064-1.437-0.194c-0.406-0.129-0.739-0.311-1.001-0.545
		c-0.26-0.234-0.469-0.533-0.626-0.9c-0.157-0.365-0.266-0.761-0.329-1.186c-0.062-0.426-0.093-0.92-0.093-1.482v-8.218h2.187v8.449
		c0,0.289,0.008,0.535,0.023,0.74c0.014,0.204,0.047,0.418,0.096,0.641c0.05,0.224,0.121,0.403,0.213,0.538
		c0.092,0.134,0.219,0.246,0.381,0.336c0.161,0.089,0.357,0.134,0.586,0.134c0.229,0,0.424-0.045,0.586-0.134
		c0.161-0.09,0.286-0.202,0.373-0.336c0.087-0.135,0.157-0.314,0.209-0.538c0.053-0.223,0.085-0.436,0.098-0.638
		c0.011-0.202,0.018-0.449,0.018-0.743v-8.449h2.187v8.218c0,0.562-0.032,1.056-0.093,1.482c-0.063,0.425-0.172,0.821-0.329,1.186
		c-0.156,0.367-0.364,0.666-0.623,0.9c-0.259,0.234-0.591,0.416-0.996,0.545C58.691,47.444,58.215,47.508,57.668,47.508"/><polygon fill="#FFFFFF" points="62.496,47.358 62.496,34.982 64.049,34.982 67.079,41.991 67.079,34.982 68.945,34.982 
		68.945,47.358 67.467,47.358 64.406,39.991 64.406,47.358 	"/><path fill="#FFFFFF" d="M73.497,47.523c-1.17,0-2.012-0.366-2.527-1.098c-0.515-0.731-0.773-1.796-0.773-3.194V39.2
		c0-0.712,0.056-1.325,0.168-1.84c0.112-0.515,0.3-0.967,0.564-1.355c0.263-0.388,0.627-0.679,1.089-0.874
		c0.463-0.193,1.031-0.291,1.703-0.291c1.224,0,2.102,0.3,2.634,0.9c0.533,0.6,0.799,1.509,0.799,2.728v0.605h-2.157v-0.642
		c0-0.274-0.006-0.498-0.019-0.672c-0.012-0.174-0.042-0.349-0.089-0.526s-0.116-0.313-0.205-0.407
		c-0.09-0.095-0.212-0.172-0.367-0.231c-0.154-0.06-0.342-0.09-0.566-0.09c-0.17,0-0.32,0.021-0.452,0.063
		c-0.132,0.043-0.242,0.095-0.332,0.157c-0.09,0.063-0.166,0.151-0.228,0.265c-0.062,0.115-0.109,0.225-0.142,0.332
		c-0.033,0.108-0.057,0.245-0.075,0.415c-0.017,0.169-0.028,0.318-0.033,0.448c-0.006,0.129-0.008,0.296-0.008,0.5v4.994
		c0,0.746,0.092,1.292,0.277,1.638c0.183,0.346,0.535,0.519,1.052,0.519c0.269,0,0.494-0.051,0.675-0.153
		c0.182-0.102,0.324-0.256,0.426-0.463c0.102-0.206,0.174-0.443,0.217-0.709c0.042-0.266,0.063-0.589,0.063-0.967v-1.015h-1.336
		v-1.456h3.367v6.285h-1.463l-0.165-1.253C75.221,47.05,74.521,47.523,73.497,47.523"/><polygon fill="#FFFFFF" points="78.526,47.358 78.526,34.982 80.78,34.982 80.78,45.798 83.744,45.798 83.744,47.358 	"/><polygon fill="#FFFFFF" points="84.541,47.358 84.541,34.982 89.721,34.982 89.721,36.572 86.795,36.572 86.795,40.125 
		89.109,40.125 89.109,41.715 86.795,41.715 86.795,45.798 89.759,45.798 89.759,47.358 	"/><rect width="2.225" height="12.376" x="90.726" y="34.982" fill="#FFFFFF"/><path fill="#FFFFFF" d="M97.779,47.508c-0.532,0-1.003-0.067-1.411-0.202c-0.408-0.134-0.745-0.32-1.012-0.559
		c-0.265-0.239-0.482-0.535-0.648-0.888c-0.167-0.354-0.284-0.733-0.352-1.139c-0.067-0.405-0.1-0.862-0.1-1.37v-4.314
		c0-0.538,0.035-1.014,0.104-1.43c0.069-0.415,0.187-0.801,0.351-1.157c0.164-0.356,0.38-0.648,0.645-0.877
		c0.267-0.229,0.603-0.408,1.008-0.537c0.406-0.13,0.877-0.194,1.415-0.194c0.617,0,1.145,0.082,1.582,0.246
		c0.439,0.164,0.784,0.405,1.038,0.724c0.254,0.319,0.438,0.691,0.552,1.116c0.115,0.426,0.172,0.922,0.172,1.489v1.06h-2.172
		v-1.052c0-0.617-0.032-1.033-0.098-1.247c-0.129-0.418-0.445-0.642-0.947-0.672h-0.119c-0.19,0-0.356,0.023-0.497,0.067
		c-0.142,0.045-0.258,0.116-0.347,0.213c-0.09,0.097-0.162,0.201-0.217,0.31c-0.054,0.109-0.095,0.252-0.123,0.429
		c-0.027,0.177-0.045,0.34-0.053,0.489c-0.006,0.149-0.01,0.339-0.01,0.567v5.24c0,0.727,0.091,1.245,0.272,1.553
		c0.182,0.309,0.506,0.463,0.975,0.463c0.159,0,0.299-0.018,0.421-0.056c0.122-0.037,0.224-0.084,0.306-0.142
		c0.082-0.057,0.152-0.139,0.209-0.246c0.057-0.107,0.101-0.207,0.13-0.299c0.03-0.092,0.053-0.22,0.068-0.384
		s0.023-0.304,0.026-0.418c0.003-0.115,0.004-0.271,0.004-0.471v-1.104h2.172v1.015c0,0.463-0.032,0.879-0.097,1.247
		c-0.064,0.368-0.176,0.714-0.332,1.037c-0.157,0.324-0.359,0.593-0.608,0.806c-0.249,0.214-0.568,0.382-0.956,0.504
		S98.292,47.508,97.779,47.508"/><polygon fill="#FFFFFF" points="102.308,47.358 102.308,34.982 104.562,34.982 104.562,40.155 107.078,40.155 107.078,34.982 
		109.331,34.982 109.331,47.358 107.078,47.358 107.078,41.76 104.562,41.76 104.562,47.358 	"/><polygon fill="#FFFFFF" points="110.831,47.358 110.831,34.982 113.085,34.982 113.085,40.155 115.601,40.155 115.601,34.982 
		117.855,34.982 117.855,47.358 115.601,47.358 115.601,41.76 113.085,41.76 113.085,47.358 	"/><polygon fill="#FFFFFF" points="119.331,47.358 119.331,34.982 124.512,34.982 124.512,36.572 121.586,36.572 121.586,40.125 
		123.899,40.125 123.899,41.715 121.586,41.715 121.586,45.798 124.549,45.798 124.549,47.358 	"/><rect width="2.225" height="12.376" x="125.517" y="34.982" fill="#FFFFFF"/><polygon fill="#FFFFFF" points="130.458,47.358 130.458,36.647 128.383,36.647 128.383,34.982 134.72,34.982 134.72,36.647 
		132.712,36.647 132.712,47.358 	"/><polygon fill="#FFFFFF" points="135.307,47.358 135.307,34.982 140.488,34.982 140.488,36.572 137.562,36.572 137.562,40.125 
		139.875,40.125 139.875,41.715 137.562,41.715 137.562,45.798 140.525,45.798 140.525,47.358 	"/><polygon fill="#FFFFFF" points="141.427,47.358 141.427,34.982 142.979,34.982 146.009,41.991 146.009,34.982 147.875,34.982 
		147.875,47.358 146.398,47.358 143.337,39.991 143.337,47.358 	"/><path fill="#FFFFFF" d="M100.683,111.454H69.404c-0.189,0-0.34,0.171-0.34,0.38v9.4c0,0.213,0.151,0.382,0.34,0.382h31.279
		c0.192,0,0.345-0.169,0.345-0.382v-9.4C101.028,111.625,100.875,111.454,100.683,111.454"/><path fill="#FFFFFF" d="M100.683,91.451H69.404c-0.189,0-0.34,0.171-0.34,0.38v9.4c0,0.213,0.151,0.382,0.34,0.382h31.279
		c0.192,0,0.345-0.169,0.345-0.382v-9.4C101.028,91.622,100.875,91.451,100.683,91.451"/><path fill="#FFFFFF" d="M100.244,77.24L85.229,62.225c-0.101-0.101-0.265-0.101-0.367,0L69.848,77.24
		c-0.164,0.163-0.047,0.442,0.183,0.442h30.029C100.292,77.682,100.407,77.403,100.244,77.24"/><path fill="#FFFFFF" d="M114.339,121.731l15.015-15.015c0.101-0.101,0.101-0.265,0-0.366l-15.015-15.015
		c-0.163-0.164-0.442-0.047-0.442,0.184v30.028C113.897,121.779,114.176,121.894,114.339,121.731"/><path fill="#FFFFFF" d="M69.848,135.826l15.014,15.015c0.101,0.101,0.265,0.101,0.367,0l15.015-15.015
		c0.163-0.163,0.047-0.442-0.184-0.442H70.031C69.8,135.384,69.684,135.663,69.848,135.826"/><path fill="#FFFFFF" d="M55.753,91.335L40.738,106.35c-0.1,0.1-0.1,0.264,0,0.366l15.015,15.015
		c0.163,0.163,0.443,0.047,0.443-0.184V91.519C56.196,91.287,55.916,91.171,55.753,91.335"/></g></svg>