<svg xmlns="http://www.w3.org/2000/svg" xml:space="preserve" x="0px" y="0px" version="1.1" viewBox="0 0 169.847 169.847" focusable="false" aria-hidden="true"><g><rect width="169.847" height="169.847" fill="#C11728"/><path fill="#FFFFFF" d="M22.734,39.482h-9.756v-4.878l8.437-19.831h6.917v20.031h3.238v4.678h-3.238v7.677h-5.598V39.482z
		 M22.734,34.804V21.05l-4.918,13.754H22.734z"/><polygon fill="#FFFFFF" points="44.713,27.131 44.713,14.755 46.968,14.755 46.968,19.927 49.484,19.927 49.484,14.755 
		51.737,14.755 51.737,27.131 49.484,27.131 49.484,21.532 46.968,21.532 46.968,27.131 	"/><path fill="#FFFFFF" d="M56.901,27.28c-1.274,0-2.187-0.346-2.74-1.038c-0.552-0.691-0.828-1.704-0.828-3.038v-4.568
		c0-0.657,0.063-1.227,0.187-1.709c0.125-0.483,0.325-0.901,0.6-1.254c0.277-0.354,0.647-0.619,1.11-0.796
		c0.462-0.176,1.019-0.264,1.671-0.264c1.269,0,2.181,0.34,2.736,1.022s0.833,1.682,0.833,3.001v4.568
		c0,0.647-0.065,1.216-0.191,1.706c-0.128,0.49-0.329,0.915-0.605,1.276c-0.275,0.361-0.646,0.634-1.108,0.818
		C58.103,27.188,57.548,27.28,56.901,27.28 M56.338,25.511c0.156,0.064,0.344,0.097,0.563,0.097s0.406-0.033,0.56-0.097
		c0.154-0.065,0.277-0.149,0.369-0.254c0.093-0.104,0.165-0.241,0.217-0.411c0.053-0.168,0.087-0.338,0.104-0.507
		c0.018-0.169,0.027-0.371,0.027-0.605v-5.62c0-0.299-0.016-0.548-0.045-0.747c-0.03-0.199-0.089-0.387-0.176-0.564
		c-0.087-0.176-0.218-0.308-0.391-0.395c-0.174-0.087-0.396-0.131-0.665-0.131c-0.268,0-0.492,0.044-0.667,0.131
		c-0.177,0.087-0.308,0.219-0.393,0.395c-0.084,0.177-0.142,0.365-0.172,0.564c-0.029,0.199-0.044,0.448-0.044,0.747v5.62
		c0,0.234,0.009,0.436,0.026,0.605c0.017,0.169,0.052,0.339,0.104,0.507c0.053,0.17,0.123,0.307,0.213,0.411
		C56.058,25.362,56.181,25.446,56.338,25.511"/><path fill="#FFFFFF" d="M65.364,27.28c-0.532,0-1.003-0.067-1.411-0.202c-0.408-0.134-0.745-0.32-1.011-0.56
		c-0.266-0.238-0.483-0.534-0.649-0.888c-0.167-0.353-0.284-0.732-0.352-1.138c-0.066-0.406-0.1-0.862-0.1-1.37v-4.315
		c0-0.537,0.035-1.013,0.104-1.429c0.069-0.415,0.187-0.801,0.351-1.157c0.165-0.356,0.38-0.648,0.646-0.877
		c0.266-0.229,0.602-0.408,1.008-0.538c0.405-0.129,0.877-0.193,1.414-0.193c0.617,0,1.145,0.082,1.582,0.246
		c0.439,0.164,0.784,0.405,1.038,0.724c0.254,0.319,0.438,0.69,0.553,1.115c0.114,0.426,0.171,0.923,0.171,1.49v1.06h-2.172v-1.052
		c0-0.618-0.032-1.033-0.097-1.247c-0.13-0.418-0.445-0.642-0.948-0.672h-0.119c-0.19,0-0.355,0.023-0.497,0.067
		c-0.142,0.045-0.257,0.116-0.347,0.213c-0.09,0.097-0.162,0.2-0.217,0.31c-0.054,0.109-0.095,0.252-0.123,0.429
		c-0.027,0.176-0.045,0.339-0.052,0.489c-0.007,0.149-0.011,0.338-0.011,0.567v5.24c0,0.727,0.091,1.245,0.272,1.553
		c0.182,0.308,0.507,0.463,0.975,0.463c0.159,0,0.3-0.019,0.422-0.056c0.121-0.038,0.223-0.085,0.305-0.142
		c0.082-0.057,0.152-0.139,0.209-0.246s0.101-0.207,0.131-0.299c0.029-0.092,0.052-0.22,0.068-0.384
		c0.014-0.164,0.023-0.304,0.025-0.418c0.003-0.115,0.004-0.271,0.004-0.471v-1.104h2.172v1.015c0,0.463-0.032,0.878-0.097,1.246
		c-0.064,0.369-0.176,0.715-0.332,1.038c-0.157,0.324-0.359,0.592-0.608,0.806c-0.249,0.214-0.568,0.382-0.955,0.504
		C66.327,27.219,65.877,27.28,65.364,27.28"/><polygon fill="#FFFFFF" points="70.214,27.131 70.214,14.755 72.468,14.755 72.468,19.927 74.984,19.927 74.984,14.755 
		77.237,14.755 77.237,27.131 74.984,27.131 74.984,21.532 72.468,21.532 72.468,27.131 	"/><polygon fill="#FFFFFF" points="80.38,27.131 78.61,14.755 80.507,14.755 81.522,22.735 82.843,14.755 84.359,14.755 
		85.709,22.742 86.725,14.755 88.583,14.755 86.815,27.131 85.015,27.131 83.619,18.868 82.231,27.131 	"/><polygon fill="#FFFFFF" points="89.932,27.131 89.932,14.755 95.113,14.755 95.113,16.344 92.186,16.344 92.186,19.898 
		94.5,19.898 94.5,21.488 92.186,21.488 92.186,25.571 95.15,25.571 95.15,27.131 	"/><path fill="#FFFFFF" d="M96.372,27.13V14.755h2.837c0.652,0,1.212,0.054,1.68,0.16c0.467,0.107,0.874,0.287,1.22,0.538
		c0.346,0.251,0.605,0.592,0.777,1.023c0.171,0.43,0.257,0.957,0.257,1.578c0,0.777-0.116,1.411-0.347,1.904
		c-0.231,0.493-0.613,0.851-1.146,1.075l1.717,6.098h-2.261l-1.479-5.651h-1v5.651H96.372z M98.627,20.039h0.545
		c0.667,0,1.141-0.142,1.422-0.426c0.281-0.283,0.422-0.768,0.422-1.455c0-0.662-0.122-1.136-0.367-1.422
		c-0.243-0.286-0.691-0.429-1.342-0.429h-0.68V20.039z"/><polygon fill="#FFFFFF" points="105.985,27.131 105.985,16.419 103.91,16.419 103.91,14.755 110.247,14.755 110.247,16.419 
		108.239,16.419 108.239,27.131 	"/><rect width="2.225" height="12.376" x="111.223" y="14.754" fill="#FFFFFF"/><path fill="#FFFFFF" d="M118.373,27.295c-1.17,0-2.012-0.366-2.526-1.097c-0.516-0.732-0.774-1.797-0.774-3.195v-4.031
		c0-0.712,0.057-1.325,0.168-1.84c0.112-0.515,0.3-0.966,0.564-1.355c0.263-0.388,0.627-0.679,1.089-0.873
		c0.463-0.194,1.031-0.291,1.703-0.291c1.224,0,2.102,0.3,2.635,0.899c0.533,0.6,0.798,1.51,0.798,2.728v0.605h-2.157v-0.642
		c0-0.273-0.006-0.497-0.019-0.672c-0.012-0.174-0.042-0.349-0.088-0.526c-0.048-0.176-0.117-0.312-0.206-0.407
		c-0.089-0.094-0.211-0.171-0.366-0.231c-0.154-0.06-0.343-0.09-0.567-0.09c-0.17,0-0.32,0.021-0.452,0.064
		c-0.132,0.042-0.242,0.094-0.332,0.157c-0.089,0.062-0.165,0.15-0.228,0.265c-0.062,0.114-0.109,0.225-0.141,0.332
		c-0.033,0.107-0.058,0.245-0.076,0.414c-0.016,0.169-0.028,0.319-0.033,0.448c-0.005,0.13-0.008,0.296-0.008,0.5v4.994
		c0,0.746,0.093,1.293,0.277,1.638c0.184,0.346,0.535,0.519,1.052,0.519c0.269,0,0.495-0.051,0.676-0.153
		c0.182-0.102,0.323-0.256,0.425-0.463c0.103-0.206,0.175-0.443,0.217-0.709s0.063-0.588,0.063-0.967v-1.015h-1.336v-1.455h3.367
		v6.285h-1.463l-0.164-1.254C120.098,26.822,119.398,27.295,118.373,27.295"/><polygon fill="#FFFFFF" points="123.723,27.131 123.723,14.755 128.903,14.755 128.903,16.344 125.977,16.344 125.977,19.898 
		128.291,19.898 128.291,21.488 125.977,21.488 125.977,25.571 128.941,25.571 128.941,27.131 	"/><path fill="#FFFFFF" d="M44.69,47.357V34.98h3.031c0.573,0,1.072,0.052,1.496,0.154c0.426,0.102,0.804,0.271,1.135,0.507
		s0.581,0.563,0.75,0.982c0.17,0.418,0.252,0.923,0.247,1.515c-0.005,1.528-0.612,2.381-1.821,2.561
		c0.731,0.139,1.277,0.459,1.638,0.959c0.361,0.5,0.544,1.203,0.549,2.109c0.004,1.174-0.29,2.066-0.881,2.675
		c-0.592,0.61-1.455,0.915-2.59,0.915H44.69z M46.945,40.027h0.701c0.662,0,1.117-0.142,1.366-0.426
		c0.249-0.284,0.373-0.761,0.373-1.433c0-0.348-0.041-0.631-0.123-0.847c-0.082-0.217-0.219-0.38-0.414-0.489
		c-0.194-0.11-0.409-0.182-0.645-0.217c-0.237-0.035-0.552-0.052-0.945-0.052h-0.313V40.027z M46.945,45.767h0.828
		c0.672,0,1.138-0.157,1.397-0.47c0.258-0.314,0.387-0.831,0.387-1.553c0-0.747-0.145-1.288-0.436-1.623
		c-0.291-0.336-0.78-0.504-1.467-0.504h-0.709V45.767z"/><rect width="2.225" height="12.376" x="53.169" y="34.981" fill="#FFFFFF"/><polygon fill="#FFFFFF" points="57.22,47.357 57.22,34.981 59.474,34.981 59.474,45.797 62.438,45.797 62.438,47.357 	"/><path fill="#FFFFFF" d="M63.555,47.358V34.981h2.882c0.746,0,1.371,0.075,1.873,0.224c0.503,0.15,0.906,0.386,1.21,0.709
		c0.303,0.324,0.519,0.721,0.645,1.191c0.127,0.47,0.191,1.049,0.191,1.735v4.464c0,0.707-0.065,1.306-0.194,1.799
		c-0.13,0.493-0.342,0.911-0.638,1.255c-0.297,0.343-0.691,0.595-1.184,0.757c-0.492,0.162-1.097,0.243-1.814,0.243H63.555z
		 M65.81,45.775h0.642c0.223,0,0.42-0.02,0.589-0.06c0.169-0.04,0.311-0.086,0.426-0.142c0.114-0.054,0.21-0.144,0.287-0.268
		c0.077-0.125,0.136-0.239,0.176-0.343c0.039-0.105,0.069-0.263,0.089-0.475c0.02-0.211,0.032-0.392,0.038-0.541
		c0.005-0.149,0.007-0.371,0.007-0.664v-4.524c0-0.293-0.005-0.53-0.015-0.709c-0.01-0.179-0.034-0.359-0.071-0.541
		s-0.092-0.322-0.164-0.422c-0.072-0.099-0.168-0.19-0.287-0.272c-0.12-0.082-0.269-0.14-0.448-0.172
		c-0.179-0.032-0.396-0.049-0.65-0.049H65.81V45.775z"/><path fill="#FFFFFF" d="M75.326,47.507c-0.553,0-1.031-0.065-1.437-0.194s-0.739-0.311-1.001-0.545
		c-0.261-0.234-0.47-0.534-0.626-0.9c-0.158-0.365-0.267-0.761-0.329-1.186c-0.062-0.426-0.093-0.92-0.093-1.482v-8.219h2.187v8.45
		c0,0.289,0.007,0.535,0.023,0.739c0.014,0.204,0.047,0.418,0.096,0.642c0.05,0.224,0.12,0.403,0.213,0.538
		c0.092,0.134,0.219,0.246,0.381,0.336c0.161,0.089,0.357,0.134,0.586,0.134c0.229,0,0.424-0.045,0.586-0.134
		c0.161-0.09,0.286-0.202,0.373-0.336c0.087-0.135,0.157-0.314,0.209-0.538c0.053-0.224,0.085-0.436,0.097-0.638
		c0.012-0.202,0.018-0.449,0.018-0.743v-8.45h2.188V43.2c0,0.562-0.032,1.056-0.094,1.482c-0.062,0.425-0.171,0.821-0.328,1.186
		c-0.156,0.366-0.364,0.666-0.623,0.9c-0.259,0.234-0.591,0.416-0.996,0.545C76.349,47.442,75.873,47.507,75.326,47.507"/><polygon fill="#FFFFFF" points="80.474,47.357 80.474,34.981 82.027,34.981 85.057,41.99 85.057,34.981 86.923,34.981 
		86.923,47.357 85.446,47.357 82.385,39.989 82.385,47.357 	"/><path fill="#FFFFFF" d="M91.797,47.521c-1.17,0-2.012-0.366-2.527-1.097c-0.515-0.732-0.773-1.797-0.773-3.195v-4.031
		c0-0.711,0.057-1.325,0.168-1.84c0.112-0.515,0.3-0.966,0.564-1.355c0.263-0.388,0.628-0.679,1.089-0.873
		c0.463-0.194,1.031-0.291,1.703-0.291c1.224,0,2.102,0.3,2.634,0.899c0.534,0.6,0.799,1.51,0.799,2.729v0.604h-2.157v-0.642
		c0-0.273-0.006-0.497-0.019-0.672c-0.012-0.174-0.042-0.349-0.089-0.526c-0.047-0.176-0.116-0.312-0.205-0.407
		c-0.09-0.094-0.211-0.171-0.366-0.231c-0.154-0.06-0.343-0.09-0.567-0.09c-0.17,0-0.32,0.021-0.452,0.064
		c-0.132,0.042-0.242,0.095-0.332,0.157c-0.09,0.062-0.165,0.15-0.228,0.265c-0.062,0.114-0.109,0.225-0.141,0.332
		c-0.034,0.107-0.058,0.245-0.076,0.414c-0.017,0.169-0.028,0.319-0.033,0.448c-0.005,0.13-0.008,0.296-0.008,0.5v4.994
		c0,0.746,0.092,1.293,0.277,1.638c0.184,0.346,0.535,0.519,1.052,0.519c0.269,0,0.495-0.051,0.676-0.153
		c0.182-0.102,0.323-0.256,0.425-0.463c0.103-0.206,0.175-0.443,0.217-0.709s0.063-0.588,0.063-0.967v-1.015h-1.336v-1.455h3.367
		v6.285h-1.463l-0.164-1.254C93.522,47.048,92.822,47.521,91.797,47.521"/><polygon fill="#FFFFFF" points="75.271,91.098 44.669,73.428 44.669,130.59 75.271,139.823 	"/><polygon fill="#FFFFFF" points="78.636,91.214 78.636,139.842 109.437,130.582 109.437,73.429 	"/><polygon fill="#FFFFFF" points="127.119,129.576 126.221,129.576 129.843,142.23 133.458,129.576 132.559,129.576 133.458,129.576 
		133.458,78.719 132.559,78.719 131.661,78.719 130.708,78.719 128.906,78.719 128.017,78.719 127.119,78.719 126.219,78.719 
		126.219,129.576 	"/><polygon fill="#FFFFFF" points="116.01,75.882 112.73,73.29 112.73,132.139 78.728,143.127 77.154,143.127 76.843,143.127 
		75.271,143.127 41.42,133.67 41.42,73.29 38.138,75.882 38.138,135.972 75.115,146.208 76.843,146.208 77.154,146.208 
		78.881,146.208 112.997,135.376 116.01,134.49 	"/><path fill="#FFFFFF" d="M133.46,71.981c0-2.001-1.621-3.622-3.617-3.622c-2.003,0-3.622,1.621-3.622,3.622v3.902h7.239V71.981z"/></g></svg>