<svg xmlns="http://www.w3.org/2000/svg" xml:space="preserve" x="0px" y="0px" version="1.1" viewBox="0 0 169.847 169.847" focusable="false" aria-hidden="true"><g><rect width="169.847" height="169.848" fill="#EC6411"/><path fill="#FFFFFF" d="M15.757,45.54c-1.266-1.373-1.913-3.445-1.939-6.217v-0.48h5.837c0,1.466,0.153,2.506,0.46,3.118
		c0.306,0.614,0.94,0.92,1.899,0.92c0.666,0,1.166-0.2,1.5-0.6c0.332-0.399,0.566-1.059,0.699-1.979
		c0.133-0.919,0.2-2.245,0.2-3.978v-3.279c-0.347,0.587-0.894,1.047-1.639,1.38c-0.747,0.333-1.613,0.5-2.599,0.5
		c-2.399,0-4.145-0.88-5.238-2.639c-1.093-1.76-1.639-4.092-1.639-6.997c0-7.277,2.905-10.916,8.716-10.916
		c2.985,0,5.184,0.92,6.597,2.759c1.413,1.839,2.119,4.372,2.119,7.597v11.795c0,3.492-0.646,6.211-1.939,8.156
		c-1.293,1.946-3.565,2.919-6.817,2.919C19.095,47.599,17.022,46.913,15.757,45.54 M24.413,28.727v-5.158
		c0-1.412-0.174-2.531-0.52-3.358c-0.347-0.826-0.973-1.24-1.879-1.24c-0.959,0-1.6,0.447-1.919,1.34
		c-0.32,0.893-0.48,2.312-0.48,4.258c0,1.386,0.04,2.446,0.12,3.179c0.08,0.733,0.3,1.326,0.66,1.779
		c0.36,0.453,0.913,0.679,1.659,0.679C23.04,30.206,23.827,29.714,24.413,28.727"/><rect width="2.224" height="12.376" x="37.932" y="14.533" fill="#FFFFFF"/><polygon fill="#FFFFFF" points="41.265,26.91 41.265,14.534 42.818,14.534 45.848,21.543 45.848,14.534 47.714,14.534 
		47.714,26.91 46.236,26.91 43.176,19.542 43.176,26.91 	"/><path fill="#FFFFFF" d="M48.771,26.91V14.533h2.881c0.747,0,1.371,0.075,1.874,0.224c0.502,0.15,0.905,0.386,1.209,0.709
		c0.304,0.324,0.519,0.721,0.646,1.191c0.126,0.47,0.19,1.049,0.19,1.735v4.464c0,0.707-0.065,1.306-0.194,1.799
		c-0.129,0.493-0.342,0.911-0.638,1.255c-0.297,0.343-0.691,0.595-1.183,0.757c-0.493,0.162-1.097,0.243-1.814,0.243H48.771z
		 M51.025,25.327h0.642c0.224,0,0.42-0.02,0.59-0.06c0.169-0.039,0.311-0.086,0.425-0.141c0.114-0.055,0.211-0.145,0.288-0.269
		c0.077-0.125,0.135-0.239,0.175-0.343c0.04-0.105,0.069-0.263,0.089-0.475c0.02-0.211,0.033-0.391,0.038-0.541
		c0.005-0.149,0.007-0.37,0.007-0.664V18.31c0-0.293-0.004-0.529-0.014-0.709c-0.011-0.179-0.034-0.359-0.072-0.541
		c-0.037-0.182-0.091-0.322-0.164-0.421c-0.072-0.1-0.168-0.191-0.287-0.273c-0.119-0.082-0.269-0.14-0.448-0.172
		c-0.179-0.032-0.395-0.048-0.649-0.048h-0.62V25.327z"/><path fill="#FFFFFF" d="M59.822,27.059c-0.553,0-1.032-0.065-1.437-0.194c-0.406-0.129-0.739-0.311-1.001-0.545
		c-0.261-0.234-0.47-0.533-0.626-0.9c-0.157-0.365-0.267-0.761-0.329-1.186c-0.062-0.426-0.093-0.92-0.093-1.482v-8.219h2.187v8.45
		c0,0.289,0.007,0.535,0.022,0.739c0.015,0.204,0.048,0.419,0.097,0.642c0.05,0.224,0.121,0.403,0.213,0.538
		c0.092,0.134,0.219,0.246,0.381,0.336c0.162,0.089,0.357,0.134,0.586,0.134c0.229,0,0.424-0.045,0.586-0.134
		c0.162-0.09,0.286-0.202,0.373-0.336c0.087-0.135,0.157-0.314,0.209-0.538c0.052-0.223,0.084-0.436,0.097-0.638
		c0.012-0.202,0.019-0.449,0.019-0.743v-8.45h2.187v8.219c0,0.562-0.031,1.056-0.094,1.482c-0.062,0.425-0.171,0.821-0.328,1.186
		c-0.156,0.367-0.364,0.666-0.623,0.9s-0.591,0.416-0.997,0.545C60.845,26.994,60.369,27.059,59.822,27.059"/><path fill="#FFFFFF" d="M67.372,27.059c-2.18,0-3.324-1.259-3.434-3.777l1.963-0.41c0.05,1.637,0.518,2.455,1.404,2.455
		c0.343,0,0.598-0.104,0.765-0.313c0.167-0.209,0.25-0.491,0.25-0.844c0-0.343-0.062-0.658-0.187-0.944
		c-0.124-0.286-0.268-0.52-0.432-0.702c-0.165-0.181-0.399-0.406-0.702-0.675l-1.627-1.411c-0.478-0.418-0.834-0.852-1.068-1.303
		c-0.234-0.45-0.351-1.014-0.351-1.69c0-0.961,0.283-1.707,0.848-2.24c0.564-0.532,1.34-0.804,2.325-0.813
		c0.453-0.005,0.853,0.051,1.202,0.167c0.348,0.118,0.635,0.274,0.862,0.471c0.226,0.196,0.415,0.442,0.567,0.735
		c0.152,0.294,0.265,0.599,0.34,0.915c0.074,0.316,0.127,0.668,0.156,1.056l-1.925,0.38c-0.011-0.248-0.027-0.465-0.049-0.649
		s-0.061-0.371-0.115-0.56c-0.056-0.189-0.126-0.342-0.213-0.459c-0.088-0.117-0.204-0.21-0.351-0.28
		c-0.147-0.069-0.317-0.097-0.512-0.082c-0.333,0.02-0.588,0.131-0.765,0.332c-0.177,0.202-0.265,0.472-0.265,0.81
		c0,0.398,0.079,0.726,0.235,0.981c0.157,0.257,0.402,0.532,0.736,0.826l1.612,1.403c0.269,0.244,0.502,0.48,0.702,0.709
		c0.199,0.229,0.389,0.49,0.571,0.784c0.181,0.294,0.319,0.617,0.414,0.97c0.094,0.354,0.142,0.727,0.142,1.12
		c0,0.901-0.285,1.632-0.855,2.194C69.045,26.778,68.298,27.059,67.372,27.059"/><polygon fill="#FFFFFF" points="72.206,26.91 72.206,16.199 70.131,16.199 70.131,14.534 76.468,14.534 76.468,16.199 
		74.46,16.199 74.46,26.91 	"/><path fill="#FFFFFF" d="M76.659,26.909V14.533h2.836c0.652,0,1.212,0.054,1.68,0.16c0.467,0.107,0.874,0.287,1.22,0.538
		c0.346,0.252,0.605,0.592,0.776,1.023c0.172,0.43,0.258,0.957,0.258,1.579c0,0.776-0.116,1.41-0.347,1.903
		c-0.231,0.493-0.613,0.851-1.146,1.075l1.717,6.098h-2.262l-1.478-5.65h-1v5.65H76.659z M78.913,19.818h0.545
		c0.666,0,1.141-0.142,1.422-0.425c0.281-0.284,0.422-0.769,0.422-1.456c0-0.662-0.122-1.136-0.366-1.422
		c-0.244-0.286-0.692-0.429-1.344-0.429h-0.679V19.818z"/><rect width="2.225" height="12.376" x="84.41" y="14.533" fill="#FFFFFF"/><polygon fill="#FFFFFF" points="87.743,26.91 87.743,14.534 92.924,14.534 92.924,16.124 89.997,16.124 89.997,19.677 
		92.311,19.677 92.311,21.267 89.997,21.267 89.997,25.35 92.961,25.35 92.961,26.91 	"/><path fill="#FFFFFF" d="M93.465,29.007l-0.224-0.784c0.294-0.074,0.534-0.225,0.721-0.451c0.186-0.227,0.279-0.514,0.279-0.863
		h-1.097v-2.023h2.053v1.882C95.197,28.031,94.619,28.778,93.465,29.007"/><rect width="2.225" height="12.376" x="98.885" y="14.533" fill="#FFFFFF"/><polygon fill="#FFFFFF" points="102.218,26.91 102.218,14.534 103.771,14.534 106.801,21.543 106.801,14.534 108.667,14.534 
		108.667,26.91 107.189,26.91 104.129,19.542 104.129,26.91 	"/><polygon fill="#FFFFFF" points="109.723,26.91 109.723,14.534 111.275,14.534 114.306,21.543 114.306,14.534 116.172,14.534 
		116.172,26.91 114.694,26.91 111.634,19.542 111.634,26.91 	"/><path fill="#FFFFFF" d="M120.595,27.059c-1.273,0-2.187-0.346-2.739-1.038c-0.553-0.691-0.828-1.704-0.828-3.038v-4.568
		c0-0.657,0.062-1.227,0.186-1.709c0.124-0.483,0.325-0.901,0.601-1.254c0.276-0.354,0.646-0.619,1.109-0.795
		c0.462-0.177,1.02-0.265,1.671-0.265c1.27,0,2.181,0.34,2.736,1.022c0.555,0.682,0.832,1.682,0.832,3.001v4.568
		c0,0.647-0.063,1.216-0.19,1.706s-0.328,0.916-0.605,1.276c-0.275,0.361-0.645,0.634-1.108,0.818S121.242,27.059,120.595,27.059
		 M120.032,25.29c0.157,0.064,0.345,0.097,0.563,0.097c0.219,0,0.406-0.033,0.561-0.097c0.153-0.065,0.277-0.149,0.369-0.254
		c0.092-0.104,0.164-0.241,0.216-0.411c0.053-0.168,0.087-0.338,0.105-0.507c0.017-0.169,0.026-0.371,0.026-0.605v-5.62
		c0-0.299-0.015-0.548-0.045-0.747c-0.03-0.199-0.088-0.387-0.175-0.564c-0.087-0.176-0.218-0.308-0.392-0.395
		c-0.174-0.087-0.396-0.131-0.665-0.131c-0.268,0-0.491,0.044-0.667,0.131c-0.177,0.087-0.308,0.219-0.393,0.395
		c-0.084,0.177-0.141,0.365-0.171,0.564s-0.045,0.448-0.045,0.747v5.62c0,0.234,0.009,0.436,0.026,0.605
		c0.018,0.169,0.052,0.339,0.105,0.507c0.052,0.17,0.123,0.307,0.212,0.411C119.752,25.141,119.875,25.225,120.032,25.29"/><polygon fill="#FFFFFF" points="126.951,26.91 124.443,14.534 126.444,14.534 128.071,23.148 129.609,14.534 131.654,14.534 
		129.131,26.91 	"/><path fill="#FFFFFF" d="M131.083,26.909l2.516-12.376h2.351l2.508,12.376h-2.098l-0.5-2.873h-2.142l-0.508,2.873H131.083z
		 M133.957,22.565h1.657l-0.828-5.083L133.957,22.565z"/><polygon fill="#FFFFFF" points="139.656,26.91 139.656,16.199 137.581,16.199 137.581,14.534 143.918,14.534 143.918,16.199 
		141.91,16.199 141.91,26.91 	"/><rect width="2.224" height="12.376" x="144.177" y="14.533" fill="#FFFFFF"/><path fill="#FFFFFF" d="M150.875,27.059c-1.273,0-2.187-0.346-2.739-1.038c-0.553-0.691-0.828-1.704-0.828-3.038v-4.568
		c0-0.657,0.062-1.227,0.186-1.709c0.125-0.483,0.325-0.901,0.601-1.254c0.276-0.354,0.646-0.619,1.109-0.795
		c0.462-0.177,1.02-0.265,1.671-0.265c1.27,0,2.181,0.34,2.736,1.022c0.555,0.682,0.833,1.682,0.833,3.001v4.568
		c0,0.647-0.064,1.216-0.191,1.706s-0.328,0.916-0.605,1.276c-0.275,0.361-0.645,0.634-1.108,0.818S151.522,27.059,150.875,27.059
		 M150.312,25.29c0.157,0.064,0.345,0.097,0.563,0.097c0.219,0,0.406-0.033,0.561-0.097c0.154-0.065,0.277-0.149,0.369-0.254
		c0.092-0.104,0.164-0.241,0.216-0.411c0.053-0.168,0.087-0.338,0.105-0.507c0.017-0.169,0.026-0.371,0.026-0.605v-5.62
		c0-0.299-0.015-0.548-0.045-0.747c-0.03-0.199-0.088-0.387-0.175-0.564c-0.087-0.176-0.218-0.308-0.392-0.395
		c-0.174-0.087-0.396-0.131-0.665-0.131c-0.268,0-0.491,0.044-0.667,0.131c-0.177,0.087-0.308,0.219-0.393,0.395
		c-0.084,0.177-0.141,0.365-0.171,0.564s-0.045,0.448-0.045,0.747v5.62c0,0.234,0.009,0.436,0.026,0.605
		c0.018,0.169,0.052,0.339,0.105,0.507c0.052,0.17,0.123,0.307,0.212,0.411C150.032,25.141,150.155,25.225,150.312,25.29"/><polygon fill="#FFFFFF" points="155.299,26.91 155.299,14.534 156.852,14.534 159.882,21.543 159.882,14.534 161.749,14.534 
		161.749,26.91 160.271,26.91 157.21,19.542 157.21,26.91 	"/><path fill="#FFFFFF" d="M41.254,47.286c-0.553,0-1.032-0.065-1.437-0.194c-0.406-0.129-0.739-0.311-1.001-0.545
		c-0.261-0.234-0.47-0.533-0.626-0.9c-0.157-0.365-0.267-0.761-0.329-1.186c-0.062-0.426-0.093-0.92-0.093-1.482v-8.218h2.187v8.449
		c0,0.289,0.007,0.535,0.022,0.74c0.015,0.203,0.048,0.418,0.097,0.641c0.05,0.224,0.121,0.403,0.213,0.538
		c0.092,0.134,0.219,0.246,0.381,0.336c0.162,0.089,0.357,0.134,0.586,0.134c0.229,0,0.424-0.045,0.586-0.134
		c0.162-0.09,0.286-0.202,0.373-0.336c0.087-0.135,0.157-0.314,0.209-0.538c0.052-0.223,0.084-0.436,0.097-0.638
		c0.012-0.202,0.019-0.449,0.019-0.743v-8.449h2.187v8.218c0,0.562-0.031,1.056-0.094,1.482c-0.062,0.425-0.171,0.821-0.328,1.186
		c-0.156,0.367-0.364,0.666-0.623,0.9s-0.591,0.416-0.997,0.545C42.277,47.221,41.801,47.286,41.254,47.286"/><polygon fill="#FFFFFF" points="45.883,47.136 45.883,34.76 47.436,34.76 50.466,41.769 50.466,34.76 52.332,34.76 52.332,47.136 
		50.854,47.136 47.794,39.769 47.794,47.136 	"/><path fill="#FFFFFF" d="M53.588,47.137V34.761h2.881c0.746,0,1.371,0.074,1.873,0.223c0.503,0.15,0.906,0.386,1.209,0.71
		c0.304,0.323,0.52,0.72,0.646,1.19c0.127,0.47,0.191,1.049,0.191,1.735v4.464c0,0.707-0.065,1.307-0.194,1.799
		c-0.13,0.493-0.343,0.911-0.639,1.255c-0.296,0.343-0.69,0.595-1.183,0.757c-0.492,0.162-1.097,0.243-1.814,0.243H53.588z
		 M55.842,45.554h0.642c0.224,0,0.42-0.02,0.589-0.06c0.169-0.039,0.311-0.086,0.426-0.141c0.114-0.055,0.21-0.145,0.287-0.269
		c0.077-0.124,0.136-0.239,0.176-0.343c0.04-0.105,0.069-0.263,0.089-0.475c0.02-0.211,0.033-0.391,0.038-0.541
		c0.004-0.149,0.007-0.37,0.007-0.664v-4.524c0-0.293-0.005-0.529-0.015-0.709c-0.01-0.179-0.033-0.359-0.071-0.541
		c-0.037-0.182-0.092-0.322-0.164-0.421c-0.072-0.1-0.168-0.191-0.287-0.273c-0.12-0.082-0.269-0.14-0.448-0.172
		c-0.179-0.032-0.396-0.048-0.65-0.048h-0.619V45.554z"/><rect width="2.224" height="12.376" x="64.652" y="34.76" fill="#FFFFFF"/><polygon fill="#FFFFFF" points="68.183,47.136 68.183,34.76 69.736,34.76 72.766,41.769 72.766,34.76 74.632,34.76 74.632,47.136 
		73.154,47.136 70.094,39.769 70.094,47.136 	"/><polygon fill="#FFFFFF" points="75.887,47.136 75.887,34.76 80.97,34.76 80.97,36.32 78.141,36.32 78.141,39.918 80.403,39.918 
		80.403,41.508 78.141,41.508 78.141,47.136 	"/><path fill="#FFFFFF" d="M81.562,47.136V34.76h2.836c0.652,0,1.212,0.054,1.68,0.16c0.467,0.108,0.874,0.287,1.22,0.538
		c0.346,0.252,0.605,0.592,0.776,1.023c0.172,0.43,0.258,0.957,0.258,1.579c0,0.776-0.116,1.41-0.347,1.903
		c-0.231,0.493-0.614,0.851-1.146,1.075l1.717,6.098h-2.262l-1.478-5.65h-1v5.65H81.562z M83.816,40.045h0.545
		c0.666,0,1.141-0.142,1.422-0.425c0.281-0.284,0.422-0.769,0.422-1.456c0-0.662-0.122-1.136-0.366-1.422
		c-0.244-0.286-0.692-0.429-1.344-0.429h-0.679V40.045z"/><path fill="#FFFFFF" d="M88.803,47.136l2.516-12.376h2.351l2.508,12.376H94.08l-0.5-2.873h-2.142l-0.508,2.873H88.803z
		 M91.677,42.792h1.657l-0.829-5.083L91.677,42.792z"/><path fill="#FFFFFF" d="M99.919,47.286c-2.18,0-3.324-1.259-3.434-3.777l1.963-0.41c0.05,1.637,0.518,2.455,1.404,2.455
		c0.343,0,0.598-0.104,0.765-0.313c0.167-0.209,0.25-0.491,0.25-0.844c0-0.343-0.062-0.658-0.187-0.944
		c-0.124-0.286-0.268-0.52-0.432-0.702c-0.165-0.181-0.399-0.406-0.702-0.675l-1.627-1.411c-0.479-0.418-0.834-0.852-1.068-1.303
		c-0.234-0.45-0.351-1.014-0.351-1.69c0-0.961,0.283-1.707,0.847-2.24c0.565-0.532,1.34-0.803,2.325-0.813
		c0.454-0.005,0.854,0.051,1.203,0.167c0.348,0.118,0.635,0.274,0.862,0.471c0.226,0.196,0.415,0.442,0.567,0.735
		c0.152,0.294,0.265,0.599,0.34,0.915c0.074,0.316,0.127,0.668,0.156,1.056l-1.925,0.381c-0.011-0.249-0.027-0.466-0.049-0.65
		c-0.023-0.184-0.061-0.371-0.116-0.56s-0.125-0.342-0.212-0.459c-0.088-0.117-0.204-0.21-0.351-0.28
		c-0.147-0.069-0.318-0.097-0.512-0.082c-0.333,0.02-0.588,0.131-0.765,0.332c-0.177,0.202-0.265,0.472-0.265,0.81
		c0,0.398,0.079,0.726,0.235,0.982c0.157,0.256,0.402,0.531,0.736,0.825l1.612,1.403c0.269,0.244,0.502,0.48,0.702,0.709
		c0.198,0.229,0.389,0.49,0.571,0.784c0.181,0.294,0.319,0.617,0.414,0.97c0.094,0.354,0.142,0.727,0.142,1.12
		c0,0.901-0.285,1.632-0.855,2.195C101.592,47.005,100.845,47.286,99.919,47.286"/><polygon fill="#FFFFFF" points="104.951,47.136 104.951,36.425 102.876,36.425 102.876,34.76 109.213,34.76 109.213,36.425 
		107.205,36.425 107.205,47.136 	"/><path fill="#FFFFFF" d="M109.603,47.136V34.76h2.836c0.652,0,1.212,0.054,1.68,0.16c0.467,0.108,0.874,0.287,1.22,0.538
		c0.346,0.252,0.605,0.592,0.776,1.023c0.172,0.43,0.258,0.957,0.258,1.579c0,0.776-0.116,1.41-0.347,1.903
		c-0.231,0.493-0.613,0.851-1.146,1.075l1.717,6.098h-2.262l-1.478-5.65h-1v5.65H109.603z M111.857,40.045h0.545
		c0.666,0,1.141-0.142,1.422-0.425c0.281-0.284,0.422-0.769,0.422-1.456c0-0.662-0.122-1.136-0.366-1.422
		c-0.244-0.286-0.692-0.429-1.344-0.429h-0.679V40.045z"/><path fill="#FFFFFF" d="M120.875,47.286c-0.552,0-1.031-0.065-1.437-0.194c-0.406-0.129-0.739-0.311-1-0.545
		c-0.262-0.234-0.471-0.533-0.627-0.9c-0.157-0.365-0.267-0.761-0.329-1.186c-0.062-0.426-0.093-0.92-0.093-1.482v-8.218h2.187
		v8.449c0,0.289,0.007,0.535,0.023,0.74c0.014,0.203,0.047,0.418,0.097,0.641c0.049,0.224,0.12,0.403,0.212,0.538
		c0.092,0.134,0.219,0.246,0.381,0.336c0.162,0.089,0.357,0.134,0.586,0.134c0.229,0,0.424-0.045,0.586-0.134
		c0.162-0.09,0.286-0.202,0.373-0.336c0.087-0.135,0.157-0.314,0.209-0.538c0.053-0.223,0.085-0.436,0.097-0.638
		c0.012-0.202,0.019-0.449,0.019-0.743v-8.449h2.187v8.218c0,0.562-0.031,1.056-0.094,1.482c-0.062,0.425-0.171,0.821-0.328,1.186
		c-0.156,0.367-0.364,0.666-0.623,0.9c-0.259,0.234-0.591,0.416-0.996,0.545C121.899,47.221,121.422,47.286,120.875,47.286"/><polygon fill="#FFFFFF" points="125.504,47.136 125.504,34.76 127.758,34.76 127.758,40.135 130.192,34.76 132.342,34.76 
		129.975,40.299 132.588,47.136 130.341,47.136 128.206,41.314 127.758,42.12 127.758,47.136 	"/><polygon fill="#FFFFFF" points="134.217,47.136 134.217,36.425 132.142,36.425 132.142,34.76 138.479,34.76 138.479,36.425 
		136.471,36.425 136.471,47.136 	"/><path fill="#FFFFFF" d="M142.257,47.286c-0.552,0-1.031-0.065-1.437-0.194c-0.405-0.129-0.739-0.311-1-0.545
		c-0.261-0.234-0.47-0.533-0.627-0.9c-0.157-0.365-0.266-0.761-0.329-1.186c-0.062-0.426-0.093-0.92-0.093-1.482v-8.218h2.187v8.449
		c0,0.289,0.008,0.535,0.023,0.74c0.015,0.203,0.047,0.418,0.097,0.641c0.05,0.224,0.12,0.403,0.213,0.538
		c0.091,0.134,0.218,0.246,0.38,0.336c0.162,0.089,0.357,0.134,0.586,0.134c0.229,0,0.424-0.045,0.586-0.134
		c0.162-0.09,0.286-0.202,0.373-0.336c0.087-0.135,0.157-0.314,0.209-0.538c0.053-0.223,0.085-0.436,0.098-0.638
		c0.012-0.202,0.018-0.449,0.018-0.743v-8.449h2.187v8.218c0,0.562-0.031,1.056-0.093,1.482c-0.063,0.425-0.171,0.821-0.329,1.186
		c-0.156,0.367-0.364,0.666-0.623,0.9c-0.259,0.234-0.591,0.416-0.996,0.545C143.281,47.221,142.804,47.286,142.257,47.286"/><path fill="#FFFFFF" d="M146.886,47.136V34.76h2.837c0.651,0,1.211,0.054,1.679,0.16c0.467,0.108,0.875,0.287,1.22,0.538
		c0.346,0.252,0.605,0.592,0.777,1.023c0.172,0.43,0.257,0.957,0.257,1.579c0,0.776-0.115,1.41-0.347,1.903
		c-0.231,0.493-0.613,0.851-1.146,1.075l1.717,6.098h-2.261l-1.479-5.65h-1v5.65H146.886z M149.14,40.045h0.545
		c0.667,0,1.141-0.142,1.422-0.425c0.281-0.284,0.422-0.769,0.422-1.456c0-0.662-0.122-1.136-0.366-1.422
		c-0.244-0.286-0.691-0.429-1.343-0.429h-0.68V40.045z"/><path fill="#FFFFFF" d="M128.51,111.759l-20.283-11.706V76.635c0-0.495-0.264-0.951-0.692-1.199l-20.97-12.107
		c-0.429-0.247-0.955-0.247-1.383,0L64.209,75.436c-0.428,0.248-0.691,0.704-0.691,1.199v23.418l-20.281,11.706
		c-0.428,0.248-0.692,0.704-0.692,1.198v24.221c0,0.494,0.264,0.951,0.692,1.198l20.972,12.106c0.215,0.123,0.453,0.185,0.692,0.185
		c0.239,0,0.477-0.062,0.692-0.185l20.28-11.707l20.278,11.707c0.215,0.123,0.453,0.185,0.692,0.185s0.477-0.061,0.692-0.185
		l20.975-12.106c0.429-0.247,0.692-0.704,0.692-1.198v-24.221C129.202,112.463,128.939,112.006,128.51,111.759 M84.49,134.78
		l-16.823-9.713l16.823-9.712V134.78z M104.075,100.853l-16.819,9.708V91.139L104.075,100.853z M84.49,110.562l-16.821-9.709
		l16.821-9.714V110.562z M88.641,112.958l18.202-10.508l18.208,10.507l-18.208,10.513L88.641,112.958z M105.46,98.455l-16.819-9.713
		l16.819-9.711V98.455z M83.105,88.742l-16.821,9.714V79.031L83.105,88.742z M63.518,146.887l-18.206-10.508v-21.024l18.206,10.512
		V146.887z M66.284,146.887v-19.423l16.821,9.714L66.284,146.887z M126.435,136.379l-18.208,10.508v-21.02l18.208-10.512V136.379z"/></g></svg>