<svg xmlns="http://www.w3.org/2000/svg" xml:space="preserve" x="0px" y="0px" version="1.1" viewBox="0 0 169.847 169.847" focusable="false" aria-hidden="true"><g><rect width="169.847" height="169.848" fill="#1F3262"/><path fill="#FFFFFF" d="M14.801,21.171c-0.294,0.16-1.146,0.493-2.559,0.999c-1.12,0.374-1.826,0.627-2.119,0.76v-4.598
		c0.906-0.347,2.005-0.88,3.299-1.599c1.292-0.72,2.205-1.373,2.738-1.959h4.838v32.385h-6.197V21.171z"/><polygon fill="#FFFFFF" points="33.473,19.491 24.676,19.491 24.676,14.773 39.51,14.773 39.51,18.811 32.673,47.159 
		26.676,47.159 	"/><path fill="#FFFFFF" d="M54.279,22.192V9.816h3.561c2.11,0,3.165,1.172,3.165,3.516c0,1.149-0.289,1.992-0.867,2.527
		c-0.577,0.534-1.39,0.802-2.44,0.802h-1.165v5.531H54.279z M56.533,15.079h0.725c0.636,0,1.067-0.126,1.291-0.377
		c0.223-0.251,0.336-0.713,0.336-1.385c0-0.383-0.015-0.679-0.045-0.888c-0.03-0.209-0.1-0.4-0.209-0.572
		c-0.11-0.171-0.273-0.289-0.489-0.354s-0.509-0.097-0.878-0.097h-0.731V15.079z"/><path fill="#FFFFFF" d="M60.624,22.193l2.515-12.376h2.351l2.509,12.376h-2.098l-0.5-2.873h-2.142l-0.508,2.873H60.624z
		 M63.497,17.849h1.657l-0.828-5.084L63.497,17.849z"/><path fill="#FFFFFF" d="M68.878,22.193V9.817h2.837c0.651,0,1.212,0.054,1.68,0.16c0.467,0.107,0.874,0.286,1.219,0.538
		c0.347,0.251,0.606,0.592,0.777,1.023c0.172,0.43,0.258,0.957,0.258,1.578c0,0.776-0.116,1.411-0.347,1.904
		c-0.231,0.492-0.613,0.851-1.147,1.074l1.718,6.099h-2.262l-1.478-5.651h-1v5.651H68.878z M71.133,15.102h0.545
		c0.666,0,1.141-0.142,1.422-0.426c0.281-0.283,0.422-0.768,0.422-1.456c0-0.661-0.122-1.136-0.367-1.422
		c-0.244-0.286-0.691-0.428-1.343-0.428h-0.679V15.102z"/><polygon fill="#FFFFFF" points="78.231,22.193 78.231,11.482 76.156,11.482 76.156,9.817 82.494,9.817 82.494,11.482 
		80.486,11.482 80.486,22.193 	"/><polygon fill="#FFFFFF" points="83.143,22.193 83.143,9.817 84.696,9.817 87.726,16.826 87.726,9.817 89.592,9.817 89.592,22.193 
		88.114,22.193 85.053,14.826 85.053,22.193 	"/><polygon fill="#FFFFFF" points="91.107,22.193 91.107,9.817 96.288,9.817 96.288,11.407 93.362,11.407 93.362,14.961 
		95.675,14.961 95.675,16.55 93.362,16.55 93.362,20.633 96.325,20.633 96.325,22.193 	"/><path fill="#FFFFFF" d="M97.288,22.193V9.817h2.836c0.652,0,1.212,0.054,1.68,0.16c0.467,0.107,0.875,0.286,1.22,0.538
		c0.346,0.251,0.605,0.592,0.777,1.023c0.172,0.43,0.258,0.957,0.258,1.578c0,0.776-0.117,1.411-0.348,1.904
		c-0.231,0.492-0.613,0.851-1.146,1.074l1.717,6.099h-2.261l-1.479-5.651h-1v5.651H97.288z M99.542,15.102h0.545
		c0.667,0,1.141-0.142,1.422-0.426c0.281-0.283,0.422-0.768,0.422-1.456c0-0.661-0.122-1.136-0.366-1.422
		c-0.244-0.286-0.692-0.428-1.343-0.428h-0.68V15.102z"/><path fill="#FFFFFF" d="M108.551,22.342c-2.18,0-3.324-1.259-3.434-3.777l1.963-0.41c0.05,1.637,0.518,2.456,1.404,2.456
		c0.343,0,0.598-0.105,0.765-0.314c0.166-0.209,0.249-0.49,0.249-0.844c0-0.343-0.061-0.658-0.185-0.944
		c-0.125-0.286-0.27-0.52-0.434-0.702c-0.164-0.181-0.398-0.406-0.701-0.675l-1.628-1.411c-0.478-0.418-0.833-0.852-1.067-1.303
		c-0.234-0.45-0.351-1.014-0.351-1.69c0-0.96,0.282-1.707,0.848-2.24c0.564-0.532,1.34-0.803,2.324-0.813
		c0.453-0.005,0.853,0.051,1.202,0.168c0.349,0.116,0.636,0.273,0.862,0.47c0.227,0.197,0.415,0.442,0.568,0.735
		c0.151,0.294,0.264,0.599,0.34,0.915c0.074,0.316,0.127,0.668,0.156,1.056l-1.926,0.381c-0.01-0.249-0.026-0.465-0.048-0.65
		c-0.022-0.184-0.061-0.371-0.116-0.559c-0.055-0.19-0.126-0.343-0.213-0.46c-0.087-0.117-0.204-0.21-0.35-0.28
		c-0.147-0.069-0.318-0.097-0.512-0.082c-0.333,0.02-0.588,0.131-0.765,0.332c-0.177,0.202-0.264,0.472-0.264,0.81
		c0,0.398,0.078,0.726,0.234,0.981c0.157,0.257,0.402,0.533,0.735,0.826l1.613,1.403c0.268,0.244,0.502,0.48,0.702,0.709
		c0.198,0.229,0.388,0.49,0.57,0.784c0.183,0.294,0.32,0.617,0.415,0.971c0.094,0.352,0.142,0.726,0.142,1.119
		c0,0.901-0.285,1.633-0.855,2.194C110.224,22.061,109.477,22.342,108.551,22.342"/><path fill="#FFFFFF" d="M115.956,22.342c-0.532,0-1.003-0.067-1.411-0.201c-0.408-0.135-0.745-0.321-1.012-0.561
		c-0.265-0.238-0.482-0.534-0.648-0.887c-0.167-0.354-0.284-0.733-0.352-1.139c-0.067-0.405-0.1-0.862-0.1-1.369V13.87
		c0-0.538,0.035-1.014,0.104-1.429c0.069-0.416,0.187-0.802,0.351-1.158c0.164-0.355,0.38-0.648,0.645-0.877
		c0.267-0.229,0.603-0.408,1.008-0.538c0.406-0.129,0.878-0.193,1.415-0.193c0.617,0,1.145,0.082,1.582,0.246
		c0.439,0.164,0.784,0.405,1.038,0.724c0.254,0.319,0.438,0.69,0.552,1.116c0.115,0.426,0.172,0.922,0.172,1.489v1.06h-2.172v-1.052
		c0-0.617-0.032-1.033-0.097-1.247c-0.13-0.418-0.446-0.642-0.948-0.672h-0.119c-0.19,0-0.356,0.023-0.497,0.067
		c-0.142,0.045-0.257,0.116-0.347,0.213c-0.09,0.097-0.162,0.201-0.217,0.31c-0.054,0.109-0.095,0.253-0.123,0.43
		c-0.027,0.176-0.045,0.338-0.053,0.488c-0.006,0.149-0.01,0.339-0.01,0.567v5.24c0,0.727,0.091,1.245,0.272,1.553
		c0.182,0.309,0.506,0.463,0.975,0.463c0.159,0,0.299-0.018,0.421-0.056c0.122-0.038,0.224-0.084,0.306-0.142
		c0.082-0.057,0.152-0.139,0.209-0.246c0.057-0.107,0.101-0.206,0.131-0.299c0.029-0.092,0.052-0.22,0.067-0.384
		s0.024-0.304,0.026-0.418c0.003-0.114,0.004-0.271,0.004-0.471V17.55h2.172v1.015c0,0.463-0.032,0.879-0.097,1.247
		c-0.064,0.368-0.176,0.714-0.332,1.037c-0.157,0.324-0.359,0.593-0.608,0.806c-0.249,0.214-0.568,0.382-0.956,0.504
		S116.469,22.342,115.956,22.342"/><polygon fill="#FFFFFF" points="120.546,22.193 120.546,9.817 122.8,9.817 122.8,14.99 125.317,14.99 125.317,9.817 127.57,9.817 
		127.57,22.193 125.317,22.193 125.317,16.594 122.8,16.594 122.8,22.193 	"/><path fill="#FFFFFF" d="M128.466,22.193l2.516-12.376h2.351l2.508,12.376h-2.098l-0.5-2.873h-2.142l-0.507,2.873H128.466z
		 M131.34,17.849h1.657l-0.829-5.084L131.34,17.849z"/><polygon fill="#FFFFFF" points="136.721,22.193 136.721,9.817 141.804,9.817 141.804,11.378 138.975,11.378 138.975,14.975 
		141.237,14.975 141.237,16.565 138.975,16.565 138.975,22.193 	"/><polygon fill="#FFFFFF" points="143.864,22.193 143.864,11.482 141.789,11.482 141.789,9.817 148.127,9.817 148.127,11.482 
		146.119,11.482 146.119,22.193 	"/><polygon fill="#FFFFFF" points="148.775,22.193 148.775,9.817 153.956,9.817 153.956,11.407 151.03,11.407 151.03,14.961 
		153.343,14.961 153.343,16.55 151.03,16.55 151.03,20.633 153.994,20.633 153.994,22.193 	"/><polygon fill="#FFFFFF" points="154.956,22.193 154.956,9.817 156.509,9.817 159.539,16.826 159.539,9.817 161.405,9.817 
		161.405,22.193 159.928,22.193 156.867,14.826 156.867,22.193 	"/><polygon fill="#FFFFFF" points="53.89,42.419 53.89,40.941 57.175,31.604 54.055,31.604 54.055,30.043 59.481,30.043 
		59.481,31.155 56.04,40.859 59.489,40.859 59.489,42.419 	"/><path fill="#FFFFFF" d="M63.704,42.569c-0.553,0-1.032-0.064-1.437-0.194c-0.406-0.129-0.74-0.311-1.001-0.544
		c-0.261-0.235-0.47-0.534-0.626-0.901c-0.158-0.365-0.267-0.76-0.329-1.186c-0.062-0.426-0.093-0.919-0.093-1.482v-8.218h2.187
		v8.45c0,0.288,0.007,0.535,0.022,0.739c0.015,0.203,0.048,0.418,0.097,0.642c0.05,0.223,0.12,0.403,0.213,0.537
		c0.092,0.135,0.219,0.246,0.381,0.336c0.161,0.09,0.357,0.134,0.586,0.134c0.229,0,0.424-0.044,0.586-0.134
		c0.161-0.09,0.286-0.201,0.373-0.336c0.087-0.134,0.156-0.314,0.209-0.537c0.052-0.224,0.084-0.437,0.097-0.639
		c0.012-0.201,0.018-0.449,0.018-0.742v-8.45h2.188v8.218c0,0.563-0.032,1.056-0.094,1.482s-0.171,0.821-0.328,1.186
		c-0.156,0.367-0.364,0.666-0.623,0.901c-0.259,0.233-0.591,0.415-0.997,0.544C64.727,42.505,64.251,42.569,63.704,42.569"/><path fill="#FFFFFF" d="M68.47,42.419V30.043h2.836c0.652,0,1.212,0.054,1.68,0.16c0.467,0.107,0.875,0.286,1.22,0.538
		c0.346,0.251,0.605,0.592,0.777,1.023c0.172,0.43,0.258,0.957,0.258,1.578c0,0.776-0.117,1.411-0.348,1.904
		c-0.231,0.492-0.613,0.851-1.146,1.074l1.717,6.099h-2.261l-1.479-5.651h-1v5.651H68.47z M70.724,35.328h0.545
		c0.667,0,1.141-0.142,1.422-0.426c0.281-0.283,0.422-0.768,0.422-1.456c0-0.661-0.122-1.136-0.366-1.422
		c-0.244-0.286-0.692-0.428-1.343-0.428h-0.68V35.328z"/><polygon fill="#FFFFFF" points="79.765,42.419 79.765,30.043 84.945,30.043 84.945,31.633 82.019,31.633 82.019,35.187 
		84.333,35.187 84.333,36.776 82.019,36.776 82.019,40.859 84.982,40.859 84.982,42.419 	"/><path fill="#FFFFFF" d="M85.823,42.419V30.043h2.836c0.652,0,1.212,0.054,1.68,0.16c0.467,0.107,0.875,0.286,1.22,0.538
		c0.346,0.251,0.605,0.592,0.777,1.023c0.172,0.43,0.258,0.957,0.258,1.578c0,0.776-0.117,1.411-0.348,1.904
		c-0.231,0.492-0.613,0.851-1.146,1.074l1.717,6.099h-2.261l-1.478-5.651h-1.001v5.651H85.823z M88.077,35.328h0.545
		c0.667,0,1.142-0.142,1.422-0.426c0.281-0.283,0.422-0.768,0.422-1.456c0-0.661-0.122-1.136-0.366-1.422
		c-0.244-0.286-0.692-0.428-1.343-0.428h-0.68V35.328z"/><path fill="#FFFFFF" d="M93.843,42.419V30.043h2.837c0.652,0,1.212,0.054,1.68,0.16c0.467,0.107,0.874,0.286,1.22,0.538
		c0.346,0.251,0.605,0.592,0.777,1.023c0.172,0.43,0.258,0.957,0.258,1.578c0,0.776-0.117,1.411-0.348,1.904
		c-0.231,0.492-0.613,0.851-1.146,1.074l1.717,6.099h-2.261l-1.479-5.651h-1v5.651H93.843z M96.098,35.328h0.545
		c0.667,0,1.141-0.142,1.422-0.426c0.281-0.283,0.422-0.768,0.422-1.456c0-0.661-0.122-1.136-0.367-1.422
		c-0.243-0.286-0.691-0.428-1.342-0.428h-0.68V35.328z"/><polygon fill="#FFFFFF" points="101.865,42.419 101.865,30.043 107.046,30.043 107.046,31.633 104.12,31.633 104.12,35.187 
		106.433,35.187 106.433,36.776 104.12,36.776 104.12,40.859 107.083,40.859 107.083,42.419 	"/><rect width="2.224" height="12.376" x="107.991" y="30.043" fill="#FFFFFF"/><path fill="#FFFFFF" d="M114.981,42.569c-0.532,0-1.003-0.066-1.41-0.201c-0.408-0.135-0.745-0.321-1.012-0.56
		c-0.266-0.239-0.482-0.535-0.649-0.888c-0.167-0.354-0.283-0.733-0.351-1.139c-0.067-0.405-0.101-0.862-0.101-1.369v-4.315
		c0-0.538,0.035-1.014,0.104-1.429c0.07-0.416,0.188-0.802,0.352-1.158c0.164-0.355,0.379-0.648,0.645-0.877
		c0.267-0.229,0.602-0.408,1.008-0.537c0.405-0.13,0.877-0.194,1.414-0.194c0.617,0,1.145,0.082,1.583,0.246
		c0.438,0.164,0.784,0.405,1.037,0.724c0.254,0.319,0.439,0.69,0.553,1.116s0.172,0.922,0.172,1.489v1.06h-2.172v-1.052
		c0-0.617-0.033-1.033-0.098-1.247c-0.129-0.418-0.445-0.642-0.948-0.672h-0.119c-0.19,0-0.355,0.023-0.496,0.067
		c-0.143,0.045-0.258,0.116-0.348,0.213c-0.09,0.097-0.161,0.201-0.216,0.31c-0.055,0.109-0.096,0.253-0.123,0.43
		c-0.028,0.176-0.045,0.338-0.053,0.488c-0.007,0.149-0.011,0.339-0.011,0.567v5.24c0,0.727,0.091,1.245,0.273,1.553
		c0.181,0.309,0.506,0.463,0.974,0.463c0.159,0,0.3-0.018,0.422-0.056c0.122-0.038,0.223-0.084,0.305-0.142
		c0.082-0.057,0.153-0.139,0.209-0.246c0.058-0.107,0.101-0.206,0.131-0.299c0.03-0.092,0.053-0.22,0.068-0.384
		c0.014-0.164,0.023-0.304,0.026-0.418c0.002-0.114,0.004-0.271,0.004-0.471v-1.104h2.172v1.015c0,0.463-0.032,0.879-0.098,1.247
		c-0.064,0.368-0.175,0.714-0.332,1.037c-0.156,0.324-0.359,0.593-0.608,0.806c-0.249,0.214-0.568,0.382-0.955,0.504
		C115.944,42.508,115.494,42.569,114.981,42.569"/><polygon fill="#FFFFFF" points="119.45,42.419 119.45,30.043 121.704,30.043 121.704,35.216 124.22,35.216 124.22,30.043 
		126.473,30.043 126.473,42.419 124.22,42.419 124.22,36.82 121.704,36.82 121.704,42.419 	"/><path fill="#FFFFFF" d="M131.278,42.569c-0.553,0-1.032-0.064-1.437-0.194c-0.406-0.129-0.74-0.311-1.001-0.544
		c-0.261-0.235-0.47-0.534-0.626-0.901c-0.158-0.365-0.267-0.76-0.33-1.186c-0.061-0.426-0.092-0.919-0.092-1.482v-8.218h2.186v8.45
		c0,0.288,0.008,0.535,0.024,0.739c0.014,0.203,0.047,0.418,0.096,0.642c0.05,0.223,0.12,0.403,0.213,0.537
		c0.092,0.135,0.219,0.246,0.381,0.336c0.161,0.09,0.357,0.134,0.586,0.134c0.229,0,0.424-0.044,0.585-0.134
		c0.162-0.09,0.287-0.201,0.374-0.336c0.087-0.134,0.156-0.314,0.209-0.537c0.052-0.224,0.084-0.437,0.097-0.639
		c0.012-0.201,0.018-0.449,0.018-0.742v-8.45h2.188v8.218c0,0.563-0.032,1.056-0.094,1.482s-0.171,0.821-0.328,1.186
		c-0.156,0.367-0.364,0.666-0.623,0.901c-0.259,0.233-0.591,0.415-0.997,0.544C132.301,42.505,131.825,42.569,131.278,42.569"/><polygon fill="#FFFFFF" points="136.044,42.419 136.044,30.043 137.597,30.043 140.627,37.053 140.627,30.043 142.493,30.043 
		142.493,42.419 141.015,42.419 137.955,35.052 137.955,42.419 	"/><path fill="#FFFFFF" d="M146.984,42.583c-1.17,0-2.012-0.365-2.526-1.097c-0.516-0.731-0.774-1.797-0.774-3.195v-4.03
		c0-0.712,0.057-1.325,0.169-1.841c0.111-0.515,0.299-0.966,0.563-1.355c0.263-0.387,0.628-0.678,1.089-0.873
		c0.463-0.194,1.031-0.291,1.703-0.291c1.224,0,2.102,0.3,2.635,0.9c0.533,0.599,0.798,1.509,0.798,2.728v0.605h-2.157v-0.643
		c0-0.273-0.006-0.497-0.019-0.672c-0.012-0.174-0.042-0.349-0.088-0.525c-0.048-0.177-0.117-0.313-0.206-0.407
		c-0.089-0.095-0.211-0.172-0.366-0.232c-0.154-0.059-0.343-0.09-0.567-0.09c-0.169,0-0.32,0.022-0.452,0.064
		c-0.132,0.043-0.242,0.095-0.332,0.157c-0.089,0.063-0.165,0.151-0.228,0.265c-0.062,0.114-0.109,0.225-0.141,0.332
		c-0.033,0.107-0.058,0.245-0.075,0.415c-0.017,0.169-0.029,0.318-0.034,0.447c-0.005,0.13-0.008,0.296-0.008,0.5v4.994
		c0,0.746,0.093,1.293,0.277,1.639c0.184,0.346,0.535,0.518,1.052,0.518c0.269,0,0.495-0.05,0.676-0.153
		c0.182-0.101,0.323-0.256,0.426-0.463c0.102-0.206,0.174-0.442,0.216-0.709c0.042-0.265,0.063-0.588,0.063-0.967V37.59h-1.336
		v-1.456h3.367v6.285h-1.463l-0.164-1.254C148.709,42.11,148.009,42.583,146.984,42.583"/><path fill="#FFFFFF" d="M54.279,62.646V50.27h2.881c0.747,0,1.371,0.074,1.874,0.224c0.502,0.149,0.905,0.385,1.209,0.71
		c0.304,0.323,0.519,0.719,0.645,1.19c0.127,0.47,0.191,1.049,0.191,1.735v4.464c0,0.707-0.065,1.306-0.194,1.799
		c-0.129,0.492-0.342,0.91-0.638,1.254c-0.296,0.344-0.691,0.596-1.184,0.758c-0.492,0.162-1.096,0.242-1.813,0.242H54.279z
		 M56.533,61.064h0.643c0.223,0,0.419-0.02,0.588-0.06c0.17-0.04,0.312-0.086,0.426-0.141s0.21-0.145,0.287-0.27
		c0.077-0.124,0.136-0.238,0.176-0.342c0.04-0.105,0.069-0.263,0.09-0.475c0.019-0.211,0.032-0.392,0.037-0.541
		c0.005-0.15,0.008-0.37,0.008-0.664v-4.524c0-0.294-0.005-0.53-0.016-0.709c-0.01-0.179-0.033-0.359-0.07-0.542
		c-0.037-0.18-0.093-0.321-0.164-0.42c-0.072-0.1-0.168-0.191-0.288-0.273c-0.119-0.083-0.269-0.14-0.447-0.172
		c-0.18-0.032-0.397-0.049-0.65-0.049h-0.62V61.064z"/><polygon fill="#FFFFFF" points="62.277,62.646 62.277,50.27 67.458,50.27 67.458,51.86 64.532,51.86 64.532,55.414 66.845,55.414 
		66.845,57.003 64.532,57.003 64.532,61.086 67.496,61.086 67.496,62.646 	"/><path fill="#FFFFFF" d="M68.336,62.646V50.27h2.837c0.651,0,1.211,0.054,1.68,0.16c0.466,0.107,0.874,0.286,1.219,0.538
		c0.346,0.251,0.605,0.592,0.777,1.023c0.172,0.43,0.258,0.957,0.258,1.579c0,0.775-0.117,1.41-0.348,1.903
		c-0.231,0.492-0.613,0.851-1.146,1.075l1.717,6.098h-2.261l-1.478-5.651H70.59v5.651H68.336z M70.59,55.555h0.545
		c0.667,0,1.142-0.142,1.423-0.426c0.28-0.283,0.421-0.768,0.421-1.455c0-0.662-0.122-1.136-0.366-1.423
		c-0.244-0.286-0.691-0.428-1.343-0.428h-0.68V55.555z"/><polygon fill="#FFFFFF" points="79.243,62.646 79.243,61.168 82.527,51.831 79.407,51.831 79.407,50.27 84.834,50.27 
		84.834,51.382 81.392,61.086 84.841,61.086 84.841,62.646 	"/><rect width="2.225" height="12.376" x="85.733" y="50.27" fill="#FFFFFF"/><polygon fill="#FFFFFF" points="89.403,62.646 89.403,50.27 94.583,50.27 94.583,51.86 91.657,51.86 91.657,55.414 93.971,55.414 
		93.971,57.003 91.657,57.003 91.657,61.086 94.62,61.086 94.62,62.646 	"/><polygon fill="#FFFFFF" points="95.461,62.646 95.461,50.27 97.715,50.27 97.715,61.086 100.679,61.086 100.679,62.646 	"/><polygon fill="#FFFFFF" points="101.414,62.646 101.414,50.27 106.595,50.27 106.595,51.86 103.669,51.86 103.669,55.414 
		105.982,55.414 105.982,57.003 103.669,57.003 103.669,61.086 106.632,61.086 106.632,62.646 	"/><path fill="#FFFFFF" d="M128.291,103.094c0-11.984-9.533-21.774-21.407-22.207c-3.055-8.626-11.293-14.824-20.955-14.824
		c-9.658,0-17.895,6.198-20.953,14.824c-11.875,0.434-21.403,10.224-21.403,22.207c0,7.109,3.361,13.447,8.576,17.517
		c-0.566,1.961-0.878,4.028-0.878,6.169c0,12.25,9.969,22.22,22.225,22.22c4.65,0,8.97-1.44,12.543-3.891
		c3.53,2.362,7.77,3.743,12.329,3.743c12.253,0,22.223-9.969,22.223-22.219c0-2.098-0.297-4.124-0.842-6.047
		C124.941,116.512,128.291,110.188,128.291,103.094 M103.679,88.286c0,8.895-6.583,16.261-15.13,17.533
		c-0.139-0.892-0.232-1.799-0.232-2.726c0-8.898,6.584-16.264,15.131-17.536C103.587,86.449,103.679,87.355,103.679,88.286
		 M86.012,139.344c-3.322-3.226-5.394-7.73-5.394-12.712c0-4.908,2.005-9.355,5.231-12.571c3.321,3.227,5.395,7.732,5.395,12.718
		C91.244,131.684,89.241,136.131,86.012,139.344 M68.414,85.557c8.547,1.272,15.132,8.639,15.132,17.537
		c0,0.927-0.094,1.834-0.233,2.726c-8.548-1.272-15.131-8.638-15.131-17.533C68.182,87.355,68.275,86.449,68.414,85.557
		 M81.647,111.031c-2.92,5.808-8.92,9.811-15.85,9.811c-2.941,0-5.71-0.732-8.154-2.002c2.92-5.807,8.921-9.81,15.853-9.81
		C76.437,109.029,79.203,109.76,81.647,111.031 M90.157,110.911c2.459-1.289,5.246-2.029,8.211-2.029
		c6.977,0,13.011,4.058,15.91,9.928c-2.46,1.291-5.251,2.031-8.211,2.031C99.088,120.842,93.053,116.783,90.157,110.911
		 M85.929,70.538c7.274,0,13.53,4.398,16.271,10.673c-7.221,1.273-13.248,6.039-16.271,12.488
		c-3.018-6.45-9.047-11.216-16.267-12.488C72.402,74.936,78.659,70.538,85.929,70.538 M48.048,103.094
		c0-9.147,6.951-16.694,15.845-17.647c-0.118,0.931-0.186,1.878-0.186,2.84c0,6.496,2.803,12.349,7.261,16.417
		c-7.373,0.839-13.661,5.294-17.04,11.547C50.329,113.001,48.048,108.312,48.048,103.094 M55.746,126.779
		c0-1.262,0.135-2.491,0.389-3.678c2.923,1.417,6.201,2.213,9.662,2.213c3.89,0,7.546-1.008,10.73-2.77
		c-0.248,1.325-0.385,2.691-0.385,4.088c0,6.002,2.401,11.454,6.283,15.457c-2.627,1.538-5.673,2.436-8.929,2.436
		C63.707,144.525,55.746,136.564,55.746,126.779 M116.117,126.633c0,9.783-7.962,17.746-17.749,17.746
		c-3.186,0-6.165-0.855-8.752-2.328c3.775-3.986,6.103-9.363,6.103-15.271c0-1.455-0.147-2.876-0.415-4.253
		c3.192,1.775,6.86,2.788,10.763,2.788c3.472,0,6.762-0.802,9.691-2.23C115.993,124.232,116.117,125.419,116.117,126.633
		 M101.031,104.572c4.377-4.062,7.124-9.857,7.124-16.286c0-0.962-0.068-1.909-0.187-2.84c8.895,0.952,15.848,8.5,15.848,17.647
		c0,5.195-2.259,9.861-5.832,13.111C114.639,109.938,108.383,105.456,101.031,104.572"/></g></svg>