<svg xmlns="http://www.w3.org/2000/svg" xml:space="preserve" x="0px" y="0px" version="1.1" viewBox="0 0 169.847 169.847" focusable="false" aria-hidden="true"><g><rect width="169.847" height="169.847" fill="#289438"/><path fill="#FFFFFF" d="M15.497,45.159c-1.359-1.705-2.039-4.118-2.039-7.237v-1.119h6.157v1.079
		c0.027,1.653,0.226,2.839,0.6,3.559c0.373,0.719,1.053,1.079,2.039,1.079s1.645-0.366,1.979-1.099c0.333-0.733,0.5-1.926,0.5-3.578
		c0-1.733-0.254-3.019-0.76-3.859c-0.506-0.84-1.439-1.273-2.799-1.3c-0.079-0.025-0.453-0.039-1.119-0.039v-4.518h1
		c1.385,0,2.345-0.373,2.878-1.12c0.533-0.746,0.8-1.973,0.8-3.679c0-1.385-0.194-2.412-0.58-3.078c-0.386-0.666-1.073-1-2.059-1
		c-0.933,0-1.573,0.36-1.919,1.08c-0.347,0.72-0.533,1.786-0.56,3.199v1.439h-6.157v-1.759c0-2.825,0.752-5.011,2.259-6.557
		c1.506-1.546,3.631-2.32,6.377-2.32c2.799,0,4.958,0.747,6.477,2.24c1.52,1.493,2.279,3.638,2.279,6.437
		c0,1.866-0.386,3.432-1.159,4.698c-0.774,1.266-1.759,2.059-2.959,2.379c2.745,1.013,4.118,3.558,4.118,7.636
		c0,3.119-0.693,5.565-2.079,7.337c-1.386,1.773-3.585,2.659-6.597,2.659C19.081,47.718,16.856,46.866,15.497,45.159"/><path fill="#FFFFFF" d="M47.788,27.295c-1.17,0-2.012-0.366-2.527-1.097c-0.515-0.732-0.772-1.797-0.772-3.195v-4.031
		c0-0.712,0.055-1.325,0.168-1.84c0.111-0.515,0.299-0.966,0.563-1.355c0.264-0.388,0.627-0.679,1.09-0.873
		c0.463-0.194,1.03-0.291,1.702-0.291c1.224,0,2.102,0.3,2.635,0.899c0.532,0.6,0.799,1.51,0.799,2.728v0.605h-2.158v-0.642
		c0-0.273-0.006-0.497-0.019-0.672c-0.012-0.174-0.042-0.349-0.089-0.526c-0.047-0.176-0.116-0.312-0.205-0.407
		c-0.09-0.094-0.212-0.171-0.366-0.231s-0.343-0.09-0.568-0.09c-0.169,0-0.319,0.021-0.451,0.064
		c-0.132,0.042-0.242,0.094-0.332,0.157c-0.09,0.062-0.166,0.15-0.228,0.265c-0.062,0.114-0.109,0.225-0.142,0.332
		c-0.032,0.107-0.057,0.245-0.075,0.414c-0.017,0.169-0.028,0.319-0.033,0.448c-0.005,0.13-0.007,0.296-0.007,0.5v4.994
		c0,0.746,0.092,1.293,0.276,1.638c0.184,0.346,0.535,0.519,1.052,0.519c0.269,0,0.494-0.051,0.676-0.153
		c0.181-0.102,0.323-0.256,0.425-0.463c0.102-0.206,0.174-0.443,0.217-0.709c0.042-0.266,0.063-0.588,0.063-0.967v-1.015h-1.336
		v-1.455h3.367v6.285H50.05l-0.165-1.254C49.512,26.822,48.813,27.295,47.788,27.295"/><polygon fill="#FFFFFF" points="53.138,27.131 53.138,14.755 58.319,14.755 58.319,16.344 55.392,16.344 55.392,19.898 
		57.706,19.898 57.706,21.488 55.392,21.488 55.392,25.571 58.356,25.571 58.356,27.131 	"/><path fill="#FFFFFF" d="M62.699,27.28c-2.18,0-3.324-1.259-3.434-3.777l1.963-0.411c0.05,1.638,0.518,2.456,1.404,2.456
		c0.343,0,0.598-0.104,0.765-0.313c0.167-0.209,0.25-0.491,0.25-0.844c0-0.343-0.062-0.658-0.187-0.944
		c-0.124-0.286-0.268-0.52-0.432-0.702c-0.165-0.181-0.399-0.407-0.703-0.675l-1.626-1.411c-0.479-0.418-0.834-0.852-1.068-1.303
		c-0.234-0.45-0.351-1.014-0.351-1.691c0-0.96,0.283-1.706,0.847-2.239c0.565-0.532,1.34-0.804,2.325-0.813
		c0.454-0.005,0.854,0.05,1.203,0.167c0.348,0.117,0.635,0.274,0.862,0.471c0.226,0.196,0.415,0.442,0.567,0.735
		c0.152,0.294,0.265,0.598,0.34,0.914c0.074,0.317,0.127,0.669,0.156,1.057l-1.925,0.38c-0.011-0.248-0.027-0.465-0.049-0.649
		c-0.023-0.184-0.061-0.371-0.116-0.56c-0.055-0.189-0.125-0.342-0.212-0.459c-0.088-0.117-0.204-0.21-0.351-0.28
		c-0.147-0.069-0.318-0.097-0.512-0.082c-0.333,0.02-0.588,0.131-0.765,0.332c-0.177,0.202-0.265,0.472-0.265,0.81
		c0,0.398,0.079,0.725,0.235,0.981c0.157,0.257,0.402,0.532,0.736,0.826l1.612,1.403c0.269,0.244,0.502,0.48,0.702,0.709
		c0.198,0.229,0.389,0.49,0.571,0.784c0.181,0.294,0.319,0.617,0.414,0.97c0.094,0.353,0.142,0.727,0.142,1.12
		c0,0.901-0.285,1.632-0.855,2.194C64.372,26.999,63.625,27.28,62.699,27.28"/><path fill="#FFFFFF" d="M70.43,27.28c-0.552,0-1.031-0.065-1.437-0.194c-0.406-0.13-0.739-0.311-1-0.545
		c-0.262-0.234-0.471-0.534-0.627-0.9c-0.157-0.365-0.267-0.761-0.329-1.186c-0.062-0.426-0.093-0.92-0.093-1.482v-8.219h2.187v8.45
		c0,0.289,0.007,0.535,0.023,0.739c0.014,0.204,0.047,0.418,0.097,0.642c0.049,0.224,0.12,0.403,0.212,0.538
		c0.092,0.134,0.219,0.246,0.381,0.336c0.162,0.089,0.357,0.134,0.586,0.134c0.229,0,0.424-0.045,0.586-0.134
		c0.162-0.09,0.286-0.202,0.373-0.336c0.087-0.135,0.157-0.314,0.209-0.538c0.053-0.224,0.085-0.437,0.097-0.638
		c0.013-0.202,0.019-0.449,0.019-0.743v-8.45h2.187v8.219c0,0.562-0.031,1.056-0.093,1.482c-0.063,0.425-0.172,0.821-0.329,1.186
		c-0.156,0.366-0.364,0.666-0.623,0.9s-0.591,0.415-0.996,0.545C71.454,27.215,70.977,27.28,70.43,27.28"/><polygon fill="#FFFFFF" points="75.579,27.131 75.579,14.755 77.132,14.755 80.162,21.764 80.162,14.755 82.028,14.755 
		82.028,27.131 80.55,27.131 77.49,19.763 77.49,27.131 	"/><path fill="#FFFFFF" d="M83.804,27.131V14.754h2.881c0.747,0,1.371,0.075,1.873,0.224c0.503,0.15,0.906,0.386,1.21,0.709
		c0.303,0.324,0.519,0.721,0.645,1.191c0.127,0.47,0.191,1.048,0.191,1.735v4.464c0,0.707-0.065,1.306-0.194,1.799
		c-0.13,0.493-0.342,0.911-0.638,1.254c-0.297,0.344-0.691,0.596-1.184,0.758c-0.492,0.161-1.097,0.243-1.814,0.243H83.804z
		 M86.058,25.548H86.7c0.224,0,0.42-0.02,0.589-0.06c0.17-0.04,0.311-0.087,0.426-0.142c0.114-0.054,0.21-0.144,0.287-0.268
		c0.077-0.125,0.136-0.239,0.176-0.343c0.04-0.105,0.069-0.263,0.089-0.475c0.02-0.211,0.033-0.392,0.038-0.541
		s0.007-0.371,0.007-0.664v-4.524c0-0.293-0.005-0.53-0.015-0.709c-0.01-0.179-0.033-0.359-0.071-0.541
		c-0.037-0.182-0.092-0.322-0.164-0.422c-0.072-0.099-0.168-0.19-0.287-0.272c-0.12-0.082-0.269-0.14-0.448-0.172
		c-0.179-0.033-0.395-0.049-0.649-0.049h-0.62V25.548z"/><polygon fill="#FFFFFF" points="92.207,27.131 92.207,14.755 94.461,14.755 94.461,19.927 96.977,19.927 96.977,14.755 
		99.231,14.755 99.231,27.131 96.977,27.131 96.977,21.532 94.461,21.532 94.461,27.131 	"/><polygon fill="#FFFFFF" points="101.028,27.131 101.028,14.755 106.209,14.755 106.209,16.344 103.282,16.344 103.282,19.898 
		105.596,19.898 105.596,21.488 103.282,21.488 103.282,25.571 106.246,25.571 106.246,27.131 	"/><rect width="2.225" height="12.376" x="107.535" y="14.754" fill="#FFFFFF"/><polygon fill="#FFFFFF" points="112.797,27.131 112.797,16.419 110.722,16.419 110.722,14.755 117.059,14.755 117.059,16.419 
		115.051,16.419 115.051,27.131 	"/><path fill="#FFFFFF" d="M125.012,27.28c-0.552,0-1.031-0.065-1.437-0.194c-0.406-0.13-0.739-0.311-1-0.545
		c-0.262-0.234-0.471-0.534-0.627-0.9c-0.157-0.365-0.267-0.761-0.329-1.186c-0.062-0.426-0.093-0.92-0.093-1.482v-8.219h2.187v8.45
		c0,0.289,0.007,0.535,0.023,0.739c0.014,0.204,0.047,0.418,0.096,0.642c0.05,0.224,0.121,0.403,0.213,0.538
		c0.092,0.134,0.219,0.246,0.381,0.336c0.162,0.089,0.357,0.134,0.586,0.134c0.229,0,0.424-0.045,0.586-0.134
		c0.162-0.09,0.286-0.202,0.373-0.336c0.087-0.135,0.157-0.314,0.209-0.538s0.085-0.437,0.097-0.638
		c0.012-0.202,0.019-0.449,0.019-0.743v-8.45h2.187v8.219c0,0.562-0.031,1.056-0.094,1.482c-0.062,0.425-0.171,0.821-0.328,1.186
		c-0.156,0.366-0.364,0.666-0.623,0.9c-0.259,0.234-0.591,0.415-0.997,0.545C126.036,27.215,125.559,27.28,125.012,27.28"/><polygon fill="#FFFFFF" points="130.161,27.131 130.161,14.755 131.714,14.755 134.744,21.764 134.744,14.755 136.61,14.755 
		136.61,27.131 135.132,27.131 132.072,19.763 132.072,27.131 	"/><path fill="#FFFFFF" d="M138.386,27.131V14.754h2.881c0.747,0,1.371,0.075,1.873,0.224c0.503,0.15,0.906,0.386,1.21,0.709
		c0.303,0.324,0.519,0.721,0.645,1.191c0.127,0.47,0.191,1.048,0.191,1.735v4.464c0,0.707-0.065,1.306-0.194,1.799
		c-0.13,0.493-0.343,0.911-0.639,1.254c-0.296,0.344-0.69,0.596-1.183,0.758c-0.492,0.161-1.097,0.243-1.814,0.243H138.386z
		 M140.64,25.548h0.642c0.224,0,0.42-0.02,0.589-0.06c0.17-0.04,0.311-0.087,0.426-0.142c0.114-0.054,0.21-0.144,0.287-0.268
		c0.077-0.125,0.136-0.239,0.176-0.343c0.04-0.105,0.069-0.263,0.089-0.475c0.02-0.211,0.033-0.392,0.038-0.541
		c0.004-0.149,0.007-0.371,0.007-0.664v-4.524c0-0.293-0.005-0.53-0.015-0.709c-0.01-0.179-0.033-0.359-0.071-0.541
		c-0.037-0.182-0.092-0.322-0.164-0.422c-0.072-0.099-0.168-0.19-0.287-0.272c-0.12-0.082-0.269-0.14-0.448-0.172
		c-0.179-0.033-0.396-0.049-0.649-0.049h-0.62V25.548z"/><polygon fill="#FFFFFF" points="46.034,47.357 44.265,34.981 46.161,34.981 47.176,42.961 48.497,34.981 50.013,34.981 
		51.364,42.968 52.379,34.981 54.238,34.981 52.469,47.357 50.67,47.357 49.274,39.094 47.885,47.357 	"/><path fill="#FFFFFF" d="M58.856,47.507c-1.273,0-2.187-0.346-2.739-1.038c-0.553-0.691-0.828-1.704-0.828-3.038v-4.568
		c0-0.657,0.062-1.227,0.186-1.709c0.125-0.483,0.325-0.901,0.601-1.254c0.276-0.354,0.646-0.619,1.109-0.796
		c0.462-0.176,1.02-0.264,1.671-0.264c1.27,0,2.182,0.34,2.736,1.022c0.555,0.682,0.833,1.682,0.833,3.001v4.568
		c0,0.647-0.064,1.216-0.191,1.706c-0.127,0.49-0.328,0.915-0.604,1.276c-0.276,0.361-0.646,0.634-1.109,0.818
		C60.059,47.415,59.503,47.507,58.856,47.507 M58.293,45.738c0.157,0.064,0.345,0.097,0.563,0.097c0.22,0,0.406-0.033,0.561-0.097
		c0.154-0.065,0.277-0.149,0.369-0.254c0.092-0.104,0.164-0.241,0.216-0.411c0.053-0.168,0.087-0.338,0.105-0.507
		c0.018-0.169,0.026-0.371,0.026-0.605v-5.62c0-0.299-0.015-0.548-0.045-0.747c-0.029-0.199-0.088-0.387-0.175-0.564
		c-0.087-0.176-0.218-0.308-0.392-0.395c-0.174-0.087-0.395-0.131-0.665-0.131c-0.268,0-0.491,0.044-0.667,0.131
		c-0.177,0.087-0.308,0.219-0.393,0.395c-0.084,0.177-0.141,0.365-0.171,0.564c-0.03,0.199-0.045,0.448-0.045,0.747v5.62
		c0,0.234,0.009,0.436,0.026,0.605c0.018,0.169,0.053,0.339,0.105,0.507c0.052,0.17,0.123,0.307,0.212,0.411
		C58.013,45.589,58.136,45.673,58.293,45.738"/><polygon fill="#FFFFFF" points="64.02,47.357 64.02,34.981 66.274,34.981 66.274,40.154 68.79,40.154 68.79,34.981 71.044,34.981 
		71.044,47.357 68.79,47.357 68.79,41.758 66.274,41.758 66.274,47.357 	"/><polygon fill="#FFFFFF" points="72.842,47.357 72.842,34.981 75.096,34.981 75.096,45.797 78.06,45.797 78.06,47.357 	"/><polygon fill="#FFFFFF" points="79.177,47.357 79.177,34.981 84.357,34.981 84.357,36.571 81.431,36.571 81.431,40.124 
		83.745,40.124 83.745,41.714 81.431,41.714 81.431,45.797 84.395,45.797 84.395,47.357 	"/><path fill="#FFFFFF" d="M85.618,47.357V34.981h2.836c0.652,0,1.212,0.054,1.68,0.16c0.467,0.107,0.874,0.287,1.22,0.538
		c0.346,0.251,0.605,0.592,0.776,1.023c0.172,0.43,0.258,0.957,0.258,1.578c0,0.777-0.116,1.411-0.347,1.904
		s-0.613,0.851-1.146,1.075l1.717,6.098H90.35l-1.478-5.651h-1v5.651H85.618z M87.872,40.266h0.545c0.666,0,1.141-0.142,1.422-0.425
		c0.281-0.284,0.422-0.769,0.422-1.456c0-0.662-0.122-1.136-0.366-1.422c-0.244-0.286-0.692-0.429-1.344-0.429h-0.679V40.266z"/><path fill="#FFFFFF" d="M97.118,47.521c-1.169,0-2.012-0.366-2.527-1.097c-0.515-0.732-0.772-1.797-0.772-3.195v-4.031
		c0-0.711,0.056-1.325,0.168-1.84c0.111-0.515,0.299-0.966,0.563-1.355c0.264-0.388,0.627-0.679,1.09-0.873
		c0.463-0.194,1.03-0.291,1.702-0.291c1.224,0,2.103,0.3,2.635,0.899c0.533,0.6,0.799,1.51,0.799,2.729v0.604h-2.158v-0.642
		c0-0.273-0.006-0.497-0.018-0.672c-0.013-0.174-0.043-0.349-0.089-0.526c-0.048-0.176-0.117-0.312-0.206-0.407
		c-0.089-0.094-0.211-0.171-0.366-0.231c-0.154-0.06-0.343-0.09-0.567-0.09c-0.17,0-0.32,0.021-0.452,0.064
		c-0.132,0.042-0.242,0.095-0.332,0.157c-0.09,0.062-0.165,0.15-0.227,0.265c-0.063,0.114-0.11,0.225-0.142,0.332
		c-0.033,0.107-0.058,0.245-0.075,0.414c-0.018,0.169-0.028,0.319-0.034,0.448c-0.005,0.13-0.007,0.296-0.007,0.5v4.994
		c0,0.746,0.092,1.293,0.276,1.638c0.184,0.346,0.535,0.519,1.052,0.519c0.27,0,0.495-0.051,0.676-0.153
		c0.182-0.102,0.323-0.256,0.426-0.463c0.102-0.206,0.174-0.443,0.216-0.709s0.064-0.588,0.064-0.967v-1.015h-1.337v-1.455h3.367
		v6.285H99.38l-0.164-1.254C98.843,47.048,98.143,47.521,97.118,47.521"/><polygon fill="#FFFFFF" points="102.469,47.357 102.469,34.981 107.649,34.981 107.649,36.571 104.723,36.571 104.723,40.124 
		107.037,40.124 107.037,41.714 104.723,41.714 104.723,45.797 107.687,45.797 107.687,47.357 	"/><polygon fill="#FFFFFF" points="108.931,47.357 108.931,34.981 111.185,34.981 111.185,40.154 113.701,40.154 113.701,34.981 
		115.955,34.981 115.955,47.357 113.701,47.357 113.701,41.758 111.185,41.758 111.185,47.357 	"/><polygon fill="#FFFFFF" points="117.753,47.357 117.753,34.981 122.933,34.981 122.933,36.571 120.007,36.571 120.007,40.124 
		122.321,40.124 122.321,41.714 120.007,41.714 120.007,45.797 122.971,45.797 122.971,47.357 	"/><polygon fill="#FFFFFF" points="124.193,47.357 124.193,34.981 125.746,34.981 128.776,41.99 128.776,34.981 130.642,34.981 
		130.642,47.357 129.164,47.357 126.104,39.989 126.104,47.357 	"/><path fill="#FFFFFF" d="M142.232,106.245c0-4.801-3.081-8.693-7.746-8.693c-2.333,0-5.148,2.555-6.676,4.126
		c-1.528-1.573-4.156-4.13-6.49-4.13c-4.666,0-7.936,3.892-7.936,8.695c0,2.4,0.946,4.574,2.476,6.148l11.96,11.982l11.944-11.969
		l-0.009-0.009C141.286,110.823,142.232,108.648,142.232,106.245"/><path fill="#FFFFFF" d="M91.31,143.935c-0.04,0-0.081-0.001-0.122-0.003c-0.909-0.056-1.66-0.73-1.814-1.629l-6.075-35.383
		l-9.203,17.063c-0.403,0.747-1.245,1.15-2.072,1.001c-0.836-0.149-1.48-0.816-1.601-1.654l-3.907-27.308l-7.147,16.056
		c-0.316,0.708-1.019,1.165-1.795,1.165H29.792c-1.085,0-1.963-0.88-1.963-1.964c0-1.085,0.878-1.964,1.963-1.964h26.506
		L65.7,88.198c0.357-0.8,1.198-1.266,2.066-1.147c0.867,0.121,1.549,0.801,1.673,1.667l4.028,28.157l9.076-16.827
		c0.397-0.739,1.219-1.143,2.047-1.006c0.826,0.135,1.475,0.78,1.617,1.606l5.626,32.77l20.505-68.112
		c0.234-0.776,0.92-1.329,1.726-1.392c0.81-0.06,1.573,0.375,1.924,1.104l10.79,22.368c0.471,0.977,0.061,2.151-0.916,2.621
		c-0.976,0.472-2.151,0.062-2.622-0.915l-8.596-17.819l-21.455,71.266C92.939,143.372,92.172,143.935,91.31,143.935"/></g></svg>