<svg xmlns="http://www.w3.org/2000/svg" viewBox="0 0 24 24" focusable="false"><path d="M11.682 7.51L4 13.837v6.828a.667.667 0 00.667.667l4.669-.013a.667.667 0 00.663-.666v-3.988a.667.667 0 01.667-.666h2.666a.667.667 0 01.667.666v3.985a.667.667 0 00.666.669l4.667.013a.667.667 0 00.667-.667v-6.833L12.32 7.51a.508.508 0 00-.637 0zm12.133 4.3l-3.483-2.87V3.167a.5.5 0 00-.5-.5H17.5a.5.5 0 00-.5.5v3.026l-3.73-3.07a2 2 0 00-2.541 0L.18 11.81a.5.5 0 00-.066.704l1.062 1.292a.5.5 0 00.705.068l9.8-8.072a.508.508 0 01.637 0l9.8 8.072a.5.5 0 00.705-.067l1.062-1.291a.5.5 0 00-.07-.706z"/></svg>