<svg xmlns="http://www.w3.org/2000/svg" viewBox="0 0 200 200" fill="#fff" focusable="false"><path d="M38.7 88c5 0 9.1-4.1 9.1-9.1s-4.1-9.1-9.1-9.1-9.1 4.1-9.1 9.1c-.1 5 4 9.1 9.1 9.1zm0-13.9c2.6 0 4.8 2.2 4.8 4.8 0 2.6-2.2 4.8-4.8 4.8s-4.8-2.2-4.8-4.8c0-2.6 2.1-4.8 4.8-4.8z"/><circle cx="14.8" cy="30.3" r="3.4"/><circle cx="27.6" cy="30.3" r="3.4"/><circle cx="40.4" cy="30.3" r="3.4"/><path d="M101.4 60.3v18.1h22.3V55.9h-22.3v4.4zm4.4 0l13.7-.1V74h-13.7V60.3z"/><path d="M189.1 132.3V38.7H167V17.6H0v123h84.3v42h104.8v-13.3H200v-37h-10.9zm6.6 32.6h-51.3v-28.3h51.4v28.3zm-10.9 13.3H88.6V43h96.1v89.3h-44.5v36.9h44.6v9zM84.3 89.5L68.2 73.4l-42.8 42.8V64.6h58.9v24.9zm-16.1-10l16.1 16.1v20.9H31.1l37.1-37zM4.3 22h158.3v16.7H4.3V22zm0 114.2V43h79.9v17.3H21v60.6h63.2v15.3H4.3z"/><path d="M149.2 155.5h14.7v-14.8h-14.7v14.8zm4.3-10.4h6v6.1h-6v-6.1z"/></svg>