<svg xmlns="http://www.w3.org/2000/svg" viewBox="0 0 23.998 24" focusable="false"><path d="M12 5.848A6.142 6.142 0 005.848 12 6.144 6.144 0 0012 18.151 6.143 6.143 0 0018.152 12 6.14 6.14 0 0012 5.85zM12 16c-2.2 0-4-1.794-4-4A4.003 4.003 0 0112 8c2.207 0 4 1.793 4 4 0 2.205-1.799 4-4 4zm7.84-10.403c0 .8-.644 1.436-1.436 1.436a1.433 1.433 0 01-1.435-1.436 1.435 1.435 0 112.871 0zm4.075 1.456c-.092-1.923-.53-3.626-1.938-5.027C20.574.623 18.872.183 16.949.087c-1.98-.112-7.919-.112-9.901 0C5.131.18 3.429.617 2.021 2.02S.179 5.125.083 7.05c-.112 1.978-.112 7.918 0 9.9.092 1.922.53 3.623 1.938 5.026 1.409 1.402 3.105 1.842 5.027 1.938 1.982.11 7.92.11 9.901 0 1.922-.092 3.626-.53 5.028-1.938 1.401-1.403 1.841-3.104 1.938-5.027.112-1.983.112-7.916 0-9.897zm-2.561 12.021a4.045 4.045 0 01-2.281 2.28c-1.579.626-5.327.481-7.073.481-1.746 0-5.499.14-7.073-.482a4.056 4.056 0 01-2.282-2.279c-.626-1.58-.481-5.329-.481-7.074s-.139-5.499.481-7.074a4.05 4.05 0 012.282-2.279c1.58-.627 5.327-.48 7.073-.48 1.746 0 5.5-.14 7.073.48a4.05 4.05 0 012.281 2.28c.626 1.58.482 5.328.482 7.073s.146 5.5-.482 7.074z"/></svg>