<svg xmlns="http://www.w3.org/2000/svg" viewBox="0 0 16 16" focusable="false"><path d="M0-8h24v24H0z" fill="none"/><path d="M12.82 11.31c-.611 0-1.157.24-1.575.618L5.518 8.594c.04-.184.072-.37.072-.562a2.63 2.63 0 00-.072-.562l5.663-3.301a2.4 2.4 0 001.638.65 2.406 2.406 0 002.41-2.41A2.406 2.406 0 0012.819 0a2.406 2.406 0 00-2.41 2.41c0 .192.033.377.073.562L4.819 6.273a2.4 2.4 0 00-1.638-.65 2.406 2.406 0 00-2.41 2.41 2.406 2.406 0 002.41 2.409 2.4 2.4 0 001.638-.65l5.72 3.34c-.041.17-.065.346-.065.523A2.348 2.348 0 0012.819 16a2.348 2.348 0 002.346-2.345 2.348 2.348 0 00-2.346-2.346z"/></svg>