<svg xmlns="http://www.w3.org/2000/svg" version="1.0" viewBox="0 0 100 100" focusable="false"><path fill="#25377a" d="M100 50c0 27.615-22.386 50-50 50S0 77.616 0 50c0-1.465.077-2.912.2-4.346l19.361-21.539-6.719-7.564a50.41 50.41 0 015.801-5.486l9.42 13.433-13.661 19.1 7.237 5.668 22.772-25.149L27.505 5.349A49.784 49.784 0 0150 0c27.614 0 50 22.386 50 50zM83.93 38.894H40.338v11.644h11.141v7.525c0 16.805 3.332 25.908 20.906 25.908 2.772 0 5.4-.18 7.813-.539l-.736-10.457c-.987.148-2.439.148-4.381.148-7.712 0-10.446-3.941-10.446-15.061v-7.525H83.93V38.894z"/></svg>