<svg xmlns="http://www.w3.org/2000/svg" aria-hidden="true" data-prefix="far" data-icon="id-card" viewBox="0 0 24 24" class="svg-inline--fa fa-id-card fa-w-18 fa-2x" focusable="false"><path d="M22 2.667H2a2 2 0 00-2 2v14.666a2 2 0 002 2h20a2 2 0 002-2V4.667a2 2 0 00-2-2zm0 16.666h-9.367c.038-.187.034.15.034-.933 0-1.325-1.255-2.4-2.8-2.4-.45 0-.78.333-1.867.333-1.12 0-1.392-.333-1.867-.333-1.546 0-2.8 1.075-2.8 2.4 0 1.083-.008.746.034.933H2v-12h20zM15 16h4.667c.183 0 .333-.15.333-.333V15a.334.334 0 00-.333-.333H15a.334.334 0 00-.333.333v.667c0 .183.15.333.333.333zm0-2.667h4.667c.183 0 .333-.15.333-.333v-.667a.334.334 0 00-.333-.333H15a.334.334 0 00-.333.333V13c0 .183.15.333.333.333zm0-2.666h4.667c.183 0 .333-.15.333-.334v-.666a.334.334 0 00-.333-.334H15a.334.334 0 00-.333.334v.666c0 .184.15.334.333.334zm-7 4A2.67 2.67 0 0010.667 12 2.67 2.67 0 008 9.333 2.67 2.67 0 005.333 12 2.67 2.67 0 008 14.667z"/></svg>