<svg xmlns="http://www.w3.org/2000/svg" viewBox="0 0 24 24" focusable="false"><path d="M10.43 9.53c-.098.178-1.352 2.379-3.756 6.615-.264.445-.578.67-.947.67H2.24c-.412 0-.646-.401-.455-.771L5.48 9.547c.01 0 .01-.007 0-.018l-2.352-4.05c-.23-.417.016-.755.455-.755H7.07c.39 0 .71.22.963.654zM22.206.754l-7.711 13.55v.018l4.904 8.923c.209.38.012.755-.455.755h-3.492c-.406 0-.727-.214-.963-.652l-4.95-9.024c.179-.312 2.76-4.864 7.757-13.67.246-.434.557-.653.938-.653h3.52c.426-.004.657.354.452.753z"/></svg>