<?xml version="1.0" encoding="utf-8"?>
<!-- Generator: Adobe Illustrator 26.5.0, SVG Export Plug-In . SVG Version: 6.00 Build 0)  -->
<svg version="1.1" xmlns="http://www.w3.org/2000/svg" xmlns:xlink="http://www.w3.org/1999/xlink" x="0px" y="0px"
	 viewBox="0 0 324 86" enable-background="new 0 0 324 86" xml:space="preserve">
<g id="Ebene_1">
</g>
<g id="RZ_2">
	<path fill="#25377A" d="M323.5351868,70.6776962H311.390686l-8.1503906-13.2616959l-4.4190063,5.0098v8.2518959h-10.5371094
		V17.9312h10.5371094v31.7875996l11.5224915-14.3843002h12.4648132l-13.1162109,14.8120003L323.5351868,70.6776962z M235.5234985,64
		c-5.2285004,0-7.9618988-2.6288986-8.5948029-8.2519989h17.3887024v-7.375h-4.3563995h-12.8457031
		c0.7910004-3.9453011,2.8417969-5.6499023,6.8329926-5.6499023l10.3691101,0.0030022v-0.0039024v-7.3876991h-10.0947113
		l-1.0399933,0.0410004c-10.3876953,0.4258003-15.881897,6.5703011-15.881897,17.8666992
		c0,11.8535042,6.0526886,18.3808022,17.0410004,18.3808022c4.6552887,0,9.0654907-0.9453049,13.476593-2.8867035
		l-2.3506012-6.8339958C241.7997894,63.2891006,238.4560852,64,235.5234985,64z M273.3300781,44.7851982
		c0.5429993-0.0468979,1.0635071-0.0371971,1.5664062,0.0136032c1.1777954,0.1191978,2.2442017,0.4824982,3.1777954,1.0058975
		l3.1894226-9.2729988c-1.0762024-0.6660004-2.1387024-1.1503983-3.1787109-1.472599
		c-0.0380859-0.0116997-0.0772095-0.0254021-0.1152039-0.0371017c-3.7978821-1.1348-7.2880859-0.1133003-9.9638977,2.0195007
		c-1.4024048,1.0038986-2.8272095,2.3535004-4.3573914,4.1016006l-0.4971008,0.5682983v-6.3768997h-10.4580078v35.3431969
		h10.5371094V52.0565987l0.0458984-0.0702972c1.0830078-1.6562004,2.1591797-2.9961014,3.2666016-4.0566025
		C269.0019836,45.892601,271.2949829,44.9628983,273.3300781,44.7851982z M201.4345856,56.9511986l-8.3202972-21.6166992h-7.2451019
		L177.9649048,57.0098l-4.8067169-21.6753006h-10.8934937l10.1533051,35.3431969h7.8632965l8.933609-21.8885956
		l8.8524933,21.8885956h7.7831879l9.7656097-35.3431969h-10.1025085L201.4345856,56.9511986z M268.4082031,58.5469017
		l7.6562805,12.1366997h12.1494141l-11.4198914-15.9395027L268.4082031,58.5469017z M85.6054993,42.9995003
		c0,23.5122032-19.0596008,42.570797-42.5713005,42.570797c-23.5106983,0-42.5702972-19.0585938-42.5702972-42.570797
		c0-1.2471008,0.0654-2.4794998,0.1699-3.7001991l16.4843998-18.3379021L11.3975,14.5209999
		c1.5185003-1.6856003,3.1718998-3.2451,4.9394007-4.6709003l8.0205994,11.4365005L12.7265997,37.5483017l6.1621008,4.827198
		l19.3886967-21.4130993L23.8819008,4.9829001C29.6406975,2.0767,36.1425972,0.4292,43.0341988,0.4292
		C66.5458984,0.4292,85.6054993,19.4888,85.6054993,42.9995003z M71.9228973,33.543499h-16.4277H44.2939987h-9.4854012v9.9140015
		h9.4854012V49.8652c0,14.3066978,2.8369026,22.0585976,17.7997971,22.0585976c2.3602982,0,4.5976028-0.1542969,6.652298-0.4589996
		l-0.6268997-8.9042969C67.2783966,62.6875,66.0419998,62.6875,64.3886948,62.6875
		c-6.5663986,0-8.8934975-3.3554993-8.8934975-12.8223v-6.4076996h16.4277V33.543499z M124.3827972,52.2969017
		c0,12.1014977-6.9002991,19.3260994-18.4589005,19.3260994c-11.0654984,0-17.6708984-6.9296036-17.6708984-18.5371017
		c0-11.658699,6.9296951-18.6185989,18.5370941-18.6185989C117.8056946,34.4673004,124.3827972,41.1333008,124.3827972,52.2969017z
		 M113.6103973,52.8496017c0-6.9297028-2.4804993-10.4429016-7.3721008-10.4429016
		c-4.7343979,0-7.1348038,3.4604988-7.1348038,10.2846985c0,7.2422028,2.5069046,10.9141006,7.4502029,10.9141006
		C111.2363968,63.6054993,113.6103973,59.9863014,113.6103973,52.8496017z M147.510788,56.0312996h10.5371094V17.9312H147.510788
		V56.0312996z M129.4902954,70.6776962h10.5361023V17.9312h-10.5361023V70.6776962z"/>
</g>
</svg>
